<?xml version="1.0" standalone="no"?>
<!DOCTYPE svg PUBLIC "-//W3C//DTD SVG 20010904//EN"
 "http://www.w3.org/TR/2001/REC-SVG-20010904/DTD/svg10.dtd">
<svg version="1.0" xmlns="http://www.w3.org/2000/svg"
 width="1098.000000pt" height="1098.000000pt" viewBox="0 0 1098.000000 1098.000000"
 preserveAspectRatio="xMidYMid meet">
<metadata>
Created by potrace 1.11, written by Peter Selinger 2001-2013
</metadata>
<g transform="translate(0.000000,1098.000000) scale(0.100000,-0.100000)"
fill="#000000" stroke="none">
<path d="M5239 10236 c-2 -2 -53 -7 -114 -10 -60 -4 -123 -9 -140 -11 -16 -3
-46 -7 -65 -9 -42 -4 -125 -16 -160 -22 -14 -3 -38 -7 -55 -9 -16 -2 -48 -8
-70 -12 -22 -3 -44 -7 -50 -8 -5 -1 -12 -3 -15 -4 -3 -2 -14 -4 -25 -6 -39 -5
-82 -15 -220 -51 -77 -19 -151 -38 -165 -41 -14 -4 -101 -33 -195 -65 -93 -32
-174 -60 -180 -61 -5 -1 -12 -4 -15 -7 -3 -3 -32 -16 -65 -28 -105 -40 -364
-162 -460 -216 -11 -6 -56 -31 -100 -55 -44 -25 -111 -65 -150 -89 -125 -80
-210 -136 -215 -142 -3 -4 -32 -25 -65 -47 -55 -37 -203 -152 -266 -206 -14
-12 -52 -44 -84 -72 -32 -27 -83 -74 -114 -103 -31 -29 -74 -70 -96 -91 -49
-46 -222 -233 -261 -281 -16 -19 -37 -44 -48 -55 -10 -11 -30 -36 -45 -55 -14
-19 -30 -40 -36 -46 -5 -6 -19 -23 -30 -38 -11 -15 -28 -37 -38 -49 -10 -12
-26 -34 -35 -49 -9 -16 -20 -28 -24 -28 -4 0 -8 -7 -8 -15 0 -8 -7 -15 -15
-15 -15 0 -209 69 -270 95 -16 7 -70 29 -120 48 -78 31 -129 52 -295 124 -19
8 -73 33 -120 55 -47 23 -101 48 -120 57 -19 9 -36 19 -38 24 -2 4 -12 7 -23
7 -10 0 -19 4 -19 10 0 5 -3 9 -7 8 -12 -2 -45 13 -75 34 -16 11 -28 16 -28
12 0 -3 -6 -2 -12 4 -7 5 -40 25 -73 43 -33 18 -73 41 -90 51 -16 10 -42 24
-58 30 -15 7 -27 15 -27 19 0 4 -15 13 -32 20 -18 7 -40 19 -48 26 -20 17
-154 102 -156 100 -2 -1 2 -25 7 -52 6 -28 12 -61 15 -75 10 -51 40 -166 52
-200 3 -8 6 -19 7 -25 15 -65 91 -273 107 -292 6 -7 8 -13 5 -13 -9 0 96 -207
128 -253 14 -21 25 -40 25 -43 0 -6 39 -61 60 -85 8 -9 22 -26 30 -37 30 -40
116 -128 155 -158 42 -32 64 -43 105 -50 13 -3 30 -10 37 -16 7 -6 13 -7 13
-3 0 4 6 3 13 -2 6 -6 35 -16 62 -22 28 -7 59 -17 70 -21 26 -11 86 -30 114
-35 11 -2 25 -6 29 -9 5 -3 19 -7 33 -10 13 -3 52 -13 85 -23 l62 -18 -23 -48
c-13 -26 -24 -50 -25 -52 0 -3 -11 -27 -23 -55 l-22 -50 -50 5 c-27 3 -68 8
-90 11 -22 2 -58 7 -80 10 -97 12 -214 29 -260 38 -78 15 -155 26 -155 21 0
-5 41 -98 71 -162 16 -34 29 -67 29 -72 0 -6 3 -11 8 -11 4 0 20 -26 37 -58
35 -68 77 -136 88 -140 4 -2 7 -10 7 -18 0 -8 4 -14 8 -14 5 0 13 -10 19 -23
11 -24 105 -141 137 -170 19 -17 19 -19 3 -85 -10 -37 -20 -78 -23 -92 -8 -36
-12 -55 -14 -57 -2 -2 -3 -11 -4 -20 -1 -10 -7 -40 -14 -68 -6 -27 -14 -63
-16 -80 -2 -16 -5 -30 -6 -30 -1 0 -3 -11 -4 -25 -2 -14 -6 -43 -11 -65 -4
-22 -9 -47 -10 -55 -1 -8 -5 -42 -9 -75 -4 -33 -9 -71 -11 -85 -3 -14 -6 -50
-9 -80 -3 -30 -8 -93 -12 -140 -10 -107 -10 -573 -1 -660 4 -36 9 -92 12 -125
4 -56 6 -78 21 -172 3 -21 7 -54 8 -73 2 -19 6 -46 10 -60 3 -14 8 -41 11 -60
2 -19 9 -60 15 -90 6 -30 12 -64 14 -75 2 -11 4 -20 5 -20 3 0 7 -18 15 -65 6
-35 83 -322 94 -350 3 -8 4 -18 4 -22 -1 -5 3 -8 9 -8 5 0 8 -4 5 -8 -8 -13
108 -325 169 -457 27 -58 42 -96 43 -109 0 -5 4 -12 9 -15 4 -3 26 -42 47 -85
39 -77 92 -177 151 -281 28 -51 190 -298 241 -370 106 -147 291 -372 392 -475
20 -20 46 -48 58 -61 49 -55 269 -260 364 -338 110 -91 205 -163 323 -246 42
-30 81 -55 86 -55 5 0 11 -3 13 -7 4 -11 146 -103 157 -103 5 0 11 -3 13 -7 2
-5 18 -16 36 -25 81 -44 97 -54 110 -65 7 -7 20 -13 27 -13 7 0 20 -6 27 -13
11 -10 203 -110 218 -112 3 -1 32 -14 65 -29 97 -45 165 -76 170 -76 2 0 16
-5 32 -12 15 -6 30 -12 33 -13 15 -5 48 -18 65 -26 25 -11 318 -109 342 -114
10 -2 99 -24 198 -49 167 -41 208 -51 275 -61 14 -2 39 -6 55 -9 44 -7 117
-18 140 -21 11 -1 20 -3 20 -4 0 -1 20 -4 45 -7 25 -2 63 -6 85 -8 269 -28
829 -29 1005 -1 14 2 48 6 75 10 101 11 164 20 220 32 17 3 41 7 55 9 69 9
118 20 299 66 108 27 202 50 209 51 6 0 12 5 12 10 0 6 3 8 6 4 3 -3 31 4 62
15 32 10 64 21 72 23 104 26 440 167 645 272 61 31 124 63 140 71 17 9 32 18
35 22 3 3 21 14 40 24 36 18 104 57 130 76 8 5 44 29 80 51 36 23 72 46 81 53
9 6 45 31 80 55 35 25 66 47 69 51 3 3 21 17 40 30 19 13 37 27 40 30 3 3 23
19 45 35 22 17 42 32 45 35 3 3 32 28 65 55 111 92 144 122 255 230 105 101
310 320 310 330 0 3 12 18 28 33 15 15 56 65 92 112 36 47 70 90 75 96 6 6 28
37 50 70 22 32 43 61 46 64 14 12 89 130 89 139 0 6 5 11 10 11 6 0 10 7 10
15 0 8 4 15 8 15 5 0 16 15 25 33 9 17 30 55 47 82 17 28 40 68 51 90 12 22
25 42 28 45 4 3 13 21 21 40 8 19 30 64 50 100 80 146 255 573 261 635 0 6 5
15 10 21 5 7 12 20 14 30 2 11 20 75 40 144 20 69 43 154 51 190 8 36 17 74
20 85 3 11 6 30 7 43 1 12 3 22 7 22 3 0 6 12 7 28 3 27 10 67 13 67 1 0 3 14
5 30 2 17 7 45 10 63 8 52 14 91 25 182 6 47 13 96 15 110 19 127 26 640 12
840 -8 113 -30 291 -49 405 -6 39 -12 79 -14 90 -1 11 -3 20 -4 20 -1 0 -4 14
-6 30 -5 45 -10 69 -45 210 -17 72 -34 140 -36 153 -4 17 4 32 31 58 20 19 36
38 36 42 0 4 10 18 23 32 36 39 117 156 117 169 0 6 6 14 14 17 8 3 18 19 21
35 4 16 10 29 14 29 4 0 13 16 21 35 8 19 17 35 21 35 4 0 9 8 11 18 3 9 6 22
8 27 1 6 11 22 22 38 11 15 16 27 12 27 -3 0 -2 6 4 13 8 10 52 115 52 125 0
3 -43 -4 -115 -18 -83 -17 -90 -18 -145 -25 -29 -4 -62 -9 -74 -11 -12 -2 -40
-6 -64 -9 -23 -2 -47 -7 -52 -10 -6 -3 -10 -1 -10 5 0 6 -5 8 -12 3 -15 -8
-13 -8 -91 -17 l-58 -6 -45 96 c-24 52 -44 99 -44 104 0 5 17 12 38 16 20 4
43 11 50 17 6 5 12 7 12 4 0 -3 15 -1 33 4 17 6 39 12 47 14 8 2 15 4 15 5 0
1 6 3 50 14 81 19 339 111 362 129 44 35 125 117 168 172 22 28 43 52 48 53 4
2 7 10 7 18 0 8 5 14 10 14 6 0 10 4 10 9 0 5 15 32 33 60 107 162 237 491
292 741 26 113 36 173 31 177 -3 4 -6 1 -6 -5 0 -7 -5 -12 -10 -12 -12 0 -94
-52 -98 -62 -2 -5 -8 -8 -12 -8 -5 0 -49 -25 -99 -55 -50 -30 -93 -55 -95 -55
-3 0 -21 -11 -40 -24 -29 -19 -419 -218 -436 -222 -3 0 -36 -15 -75 -33 -38
-18 -79 -37 -90 -41 -11 -5 -46 -20 -78 -34 -32 -14 -60 -26 -62 -26 -3 0 -24
-9 -48 -19 -83 -39 -122 -54 -130 -52 -5 1 -23 -6 -40 -15 -59 -31 -67 -34
-85 -34 -9 0 -26 -6 -37 -14 -11 -7 -32 -16 -47 -20 -15 -3 -37 -10 -50 -15
-13 -5 -26 -8 -29 -7 -3 0 -13 -5 -21 -12 -14 -11 -19 -8 -37 15 -11 15 -24
33 -28 38 -5 6 -28 37 -52 70 -167 226 -452 530 -671 715 -36 30 -67 57 -70
60 -3 3 -32 27 -65 53 -33 26 -74 58 -91 72 -16 13 -68 51 -115 83 -46 33 -91
66 -101 75 -9 8 -25 18 -37 22 -12 3 -21 11 -21 16 0 5 -5 9 -12 9 -6 0 -25
11 -42 23 -78 59 -480 280 -490 270 -3 -4 -6 -1 -6 5 0 10 -38 28 -52 24 -5
-1 -8 2 -8 8 0 6 -3 9 -7 8 -8 -1 -37 11 -141 58 -29 13 -59 24 -67 24 -8 0
-15 5 -15 11 0 5 -4 8 -9 5 -4 -3 -17 1 -27 9 -10 8 -28 15 -40 15 -11 0 -24
4 -30 9 -20 20 -506 167 -574 174 -14 2 -30 6 -35 9 -10 6 -47 14 -105 23 -19
3 -42 8 -51 11 -10 2 -32 7 -50 10 -19 2 -43 6 -54 8 -36 7 -132 21 -215 32
-14 2 -56 6 -95 9 -38 4 -83 9 -100 11 -38 7 -630 16 -636 10z"/>
</g>
</svg>
