<svg id="Layer_1" data-name="Layer 1" xmlns="http://www.w3.org/2000/svg" viewBox="0 0 549.35 474.99"><defs><style>.cls-1{fill:#f7f3f0;stroke:#242a40;}.cls-1,.cls-2,.cls-4{stroke-miterlimit:10;stroke-width:6.99px;}.cls-2{fill:#fff;}.cls-2,.cls-4{stroke:#d9d9d9;}.cls-10,.cls-11,.cls-12,.cls-13,.cls-14,.cls-15,.cls-16,.cls-17,.cls-3,.cls-5,.cls-6,.cls-7,.cls-8,.cls-9{fill:#d9d9d9;}.cls-3{fill-opacity:0.5;}.cls-4{fill:none;}.cls-10,.cls-11,.cls-12,.cls-13,.cls-14,.cls-15,.cls-16,.cls-17,.cls-6,.cls-7,.cls-8,.cls-9{isolation:isolate;font-family:Arial-BoldMT, Arial;font-weight:700;}.cls-6,.cls-9{font-size:33.76px;}.cls-7{font-size:33.7px;}.cls-8{font-size:33.6px;}.cls-9{letter-spacing:-0.02em;}.cls-10{font-size:33.68px;}.cls-11{font-size:33.71px;}.cls-12{font-size:33.7px;}.cls-13{font-size:33.9px;}.cls-14{font-size:33.84px;}.cls-15{font-size:33.77px;}.cls-16{font-size:33.16px;}.cls-17{font-size:33.2px;}</style></defs><title>2</title><g id="mask"><circle class="cls-1" cx="274.69" cy="237.49" r="234"/></g><g id="Layer_3" data-name="Layer 3"><circle class="cls-2" cx="274.69" cy="237.49" r="234"/><path class="cls-3" d="M415.69,145.82c46.9-1,102.28-21,102.28-21,24.9-18.75,31.38-63.32,31.38-63.32C476,110.88,359.92,128,359.92,128c-6.53,37.49-30.23,52.62-50.93,58.61l-.13-.24c-10.31-18-10-47.23-10-47.23,5.65-2.66,12.14.83,12.14.83s-.17-8.81-4.32-13-16.3-2.16-16.3-2.16c-5.32-3.82-13-4.49-21.29-3.16s-9.81,7.82-9.81,7.82l-17.79,57.43c-21-5.77-45.4-20.79-52.06-58.92,0,0-116.08-17.12-189.43-66.51,0,0,6.49,44.57,31.43,63.33,0,0,55.38,20,102.28,21,0,0-62.86,3.16-109.26-6.32,0,0,12.47,35.76,37.42,46.23,0,0,68.52,2,87-4,0,0-28.44,13.49-91,18,0,0,23.78,31.43,55.71,33.93,0,0,30.1-3.66,61.53-25.45,0,0-22.29,26.28-52.22,40.75,0,0,30.77,17.13,54.22,12.14,0,0,18-10.48,26.94-23.45a117.63,117.63,0,0,1-27.77,37.25S206,280.53,214,273.05a82.78,82.78,0,0,0,11-27.44s-.5,18.26-9.48,32.83c0,0,13,4.09,20.46-4.89,0,0-8.73,20.46-20,24.7,0,0,6,3.74,11,0,0,0-3.74,2.49-4,8.48a9.28,9.28,0,0,0,1.42,0l-6.25,11s-7.11-6.49-13.6-7c0,0-7,1.5-8.48,10.6,0,0,5.49-6.86,8.48-7.36,0,0,5.24.5,8.23,3.87a14.75,14.75,0,0,0-8.11,6.61s-1.12,7,0,11.6c0,0,.75-7.73,3-11.1,0,0,4.62-4.74,10.48-3.62a72.74,72.74,0,0,1,4.49,6.61c.5,1.25-.5,8.11-.5,8.11s2.74-5.36,3.12-8.61a17.6,17.6,0,0,0-4.37-8.36l8-13.68a9.82,9.82,0,0,0,4-4.18s-1,7,3.74,10.48c0,0,1.75-14,9.48-17.71,0,0-6.74,47.15-34.92,69.35,0,0,21,4.74,31.43-11.23,0,0-5.74,25-.5,35.92,0,0,14-7.73,20.46-30.93,0,0,.77,40.14,12,52.38h0c11.21-12.24,12-52.38,12-52.38C293.1,380.3,307.07,388,307.07,388c5.24-11-.5-35.92-.5-35.92,10.48,16,31.43,11.23,31.43,11.23C309.81,341.14,303.07,294,303.07,294c7.73,3.74,9.48,17.71,9.48,17.71,4.74-3.49,3.74-10.48,3.74-10.48a9.81,9.81,0,0,0,4,4.17l8,13.69a17.6,17.6,0,0,0-4.37,8.36c.37,3.24,3.12,8.61,3.12,8.61s-1-6.86-.5-8.11a72.77,72.77,0,0,1,4.49-6.61c5.86-1.12,10.48,3.62,10.48,3.62,2.25,3.37,3,11.1,3,11.1,1.12-4.61,0-11.6,0-11.6a14.76,14.76,0,0,0-8.11-6.61c3-3.37,8.23-3.87,8.23-3.87,3,.5,8.48,7.36,8.48,7.36-1.5-9.1-8.48-10.6-8.48-10.6-6.49.5-13.6,7-13.6,7l-6.25-11a9.32,9.32,0,0,0,1.43,0c-.25-6-4-8.48-4-8.48,5,3.74,11,0,11,0-11.23-4.24-20-24.7-20-24.7,7.48,9,20.46,4.89,20.46,4.89-9-14.57-9.48-32.83-9.48-32.83a82.78,82.78,0,0,0,11,27.44c8,7.48,37.75,1.83,37.75,1.83a117.64,117.64,0,0,1-27.77-37.25c9,13,26.94,23.45,26.94,23.45,23.45,5,54.22-12.14,54.22-12.14-29.94-14.47-52.22-40.75-52.22-40.75,31.43,21.79,61.53,25.45,61.53,25.45,31.93-2.49,55.71-33.93,55.71-33.93-62.53-4.47-91-18-91-18,18.46,6,87,4,87,4,25-10.47,37.51-46.22,37.51-46.22C478.51,149,415.69,145.82,415.69,145.82Zm-137.22-17.9c-2.12-.17-5.7-2.75-5.7-2.75a30.64,30.64,0,0,1,5.9-.33c2.91.17,5.49,3.08,5.49,3.08S280.59,128.08,278.47,127.91Z"/><circle class="cls-4" cx="274.69" cy="237.5" r="186.27"/><path class="cls-5" d="M193.4,91.13q3.74,2.26,7.32,4.66,4.61-1.59,9.24-2.89-2.06,4-3.85,8.07,2.46,3.37,4.85,6.79-4.37-.12-8.86,0-2.69,3.59-5.13,7.28-1.43-3.92-2.79-7.87-4.38-.82-8.92-1.39,3.79-3.12,7.76-6Q193.12,95.49,193.4,91.13Z"/><path class="cls-5" d="M233.11,76.16q3,3.1,5.9,6.3,4.76-.42,9.5-.57-2.9,3.4-5.55,6.9,1.57,3.87,3.06,7.76-4.15-1.18-8.46-2.13-3.39,2.82-6.55,5.78-.46-4.14-.85-8.3-4-1.88-8.15-3.55,4.31-2.06,8.74-3.88Q231.84,80.3,233.11,76.16Z"/><path class="cls-5" d="M274.69,71.16q2.2,3.73,4.22,7.51,4.7.72,9.33,1.69-3.62,2.62-7,5.39.61,4.13,1.13,8.26-3.74-2.13-7.67-4.06Q270.76,91.89,267,94q.53-4.13,1.13-8.26-3.39-2.77-7-5.39,4.62-1,9.33-1.69Q272.49,74.89,274.69,71.16Z"/><path class="cls-5" d="M316.27,76.16q1.27,4.15,2.35,8.31,4.43,1.82,8.74,3.88-4.17,1.67-8.15,3.55-.38,4.16-.85,8.3-3.16-3-6.55-5.78-4.31.94-8.46,2.13,1.49-3.89,3.06-7.76-2.65-3.49-5.55-6.9,4.73.15,9.5.57Q313.23,79.25,316.27,76.16Z"/><path class="cls-5" d="M356,91.13q.28,4.36.37,8.68,4,2.89,7.76,6-4.53.56-8.92,1.39-1.36,4-2.79,7.87-2.44-3.69-5.13-7.28-4.48-.16-8.86,0,2.39-3.41,4.85-6.79-1.79-4-3.85-8.07,4.63,1.3,9.24,2.89Q352.25,93.38,356,91.13Z"/><text class="cls-6" transform="translate(54.99 274.7) rotate(76.86)">O</text><text class="cls-6" transform="matrix(0.39, 0.92, -0.92, 0.39, 65.33, 313.44)">R</text><text class="cls-6" transform="matrix(0.5, 0.86, -0.86, 0.5, 79.89, 344.9)">I</text><text class="cls-7" transform="translate(90.88 363.29) rotate(52.33)">G</text><text class="cls-6" transform="translate(114.79 392.09) rotate(44.76)">I</text><text class="cls-6" transform="matrix(0.8, 0.6, -0.6, 0.8, 130.19, 407)">N</text><text class="cls-8" transform="translate(179.8 438.94) rotate(22.44)">S</text><text class="cls-6" transform="matrix(0.97, 0.24, -0.24, 0.97, 209.97, 450.64)">T</text><text class="cls-6" transform="translate(243.67 458.15) rotate(4.36)">O</text><text class="cls-6" transform="translate(283.67 459.96) rotate(-5.17)">R</text><text class="cls-9" transform="translate(315.21 456.59) rotate(-13.9)">Y</text><text class="cls-10" transform="translate(369.26 439.07) rotate(-28.11)">F</text><text class="cls-11" transform="matrix(0.82, -0.57, 0.57, 0.82, 397.73, 422.79)">I</text><text class="cls-12" transform="matrix(0.74, -0.67, 0.67, 0.74, 415.11, 410.33)">T</text><text class="cls-13" transform="translate(441.79 384.76) rotate(-51.87)">N</text><text class="cls-14" transform="translate(464.37 354.07) rotate(-61.39)">E</text><text class="cls-6" transform="matrix(0.35, -0.94, 0.94, 0.35, 479.67, 324.51)">S</text><text class="cls-15" transform="matrix(0.2, -0.98, 0.98, 0.2, 490.53, 292.24)">S</text><text class="cls-16" transform="translate(150.37 83.09) rotate(-35.66)">B</text><text class="cls-16" transform="translate(176.29 65.43) rotate(-26.84)">E</text><text class="cls-16" transform="translate(202.97 52.55) rotate(-17.54)">N</text><text class="cls-16" transform="translate(254.25 40.09) rotate(-1.68)">M</text><text class="cls-17" transform="translate(292.27 40.01) rotate(8.62)">U</text><text class="cls-16" transform="translate(324.24 45.43) rotate(18.02)">D</text><text class="cls-16" transform="matrix(0.89, 0.46, -0.46, 0.89, 355.42, 56.31)">G</text><text class="cls-16" transform="matrix(0.8, 0.6, -0.6, 0.8, 385.06, 72.87)">E</text></g></svg>