<svg xmlns="http://www.w3.org/2000/svg" xmlns:xlink="http://www.w3.org/1999/xlink" viewBox="0 0 800 600"><defs><style>.cls-1{fill:#f7f3f0;}.cls-1,.cls-2,.cls-5{stroke:#242a40;stroke-miterlimit:10;stroke-width:6.99px;}.cls-2{fill:#fff;}.cls-3{mask:url(#mask);}.cls-4{fill:#69c9ff;fill-opacity:0.5;}.cls-5{fill:none;}.cls-6,.cls-7,.cls-8{fill:#e29e44;}.cls-6{fill-rule:evenodd;}.cls-7{font-size:33.76px;}.cls-7,.cls-8{font-family:Atami-Bold, Atami;font-weight:700;}.cls-8{font-size:33.16px;}.cls-9{font-size:21px;fill:#01395e;font-family:Montserrat-Light, Montserrat;}</style><mask id="mask" x="125.34" y="62.51" width="549.33" height="474.99" maskUnits="userSpaceOnUse"><circle class="cls-1" cx="400" cy="300" r="234"/></mask></defs><title>osf</title><g id="Layer_3" data-name="Layer 3"><circle class="cls-2" cx="400" cy="300" r="234"/><g class="cls-3"><path class="cls-4" d="M541,208.32c46.9-1,102.28-21,102.28-21C668.18,168.57,674.66,124,674.66,124c-73.34,49.39-189.43,66.51-189.43,66.51C478.7,228,455,243.13,434.3,249.12l-.13-.24c-10.31-18-10-47.23-10-47.23,5.65-2.66,12.14.83,12.14.83s-.17-8.81-4.32-13-16.3-2.16-16.3-2.16c-5.32-3.82-13-4.49-21.29-3.16s-9.81,7.82-9.81,7.82l-17.79,57.43c-21-5.77-45.4-20.79-52.06-58.92,0,0-116.08-17.12-189.43-66.51,0,0,6.49,44.57,31.43,63.33,0,0,55.38,20,102.28,21,0,0-62.86,3.16-109.26-6.32,0,0,12.47,35.76,37.42,46.23,0,0,68.52,2,87-4,0,0-28.44,13.49-91,18,0,0,23.78,31.43,55.71,33.93,0,0,30.1-3.66,61.53-25.45,0,0-22.29,26.28-52.22,40.75,0,0,30.77,17.13,54.22,12.14,0,0,18-10.48,26.94-23.45a117.63,117.63,0,0,1-27.77,37.25s29.77,5.65,37.75-1.83a82.78,82.78,0,0,0,11-27.44s-.5,18.26-9.48,32.83c0,0,13,4.09,20.46-4.89,0,0-8.73,20.46-20,24.7,0,0,6,3.74,11,0,0,0-3.74,2.49-4,8.48a9.28,9.28,0,0,0,1.42,0l-6.25,11s-7.11-6.49-13.6-7c0,0-7,1.5-8.48,10.6,0,0,5.49-6.86,8.48-7.36,0,0,5.24.5,8.23,3.87a14.75,14.75,0,0,0-8.11,6.61s-1.12,7,0,11.6c0,0,.75-7.73,3-11.1,0,0,4.62-4.74,10.48-3.62a72.74,72.74,0,0,1,4.49,6.61c.5,1.25-.5,8.11-.5,8.11s2.74-5.36,3.12-8.61a17.6,17.6,0,0,0-4.37-8.36l8-13.68a9.82,9.82,0,0,0,4-4.18s-1,7,3.74,10.48c0,0,1.75-14,9.48-17.71,0,0-6.74,47.15-34.92,69.35,0,0,21,4.74,31.43-11.23,0,0-5.74,24.95-.5,35.92,0,0,14-7.73,20.46-30.93,0,0,.77,40.14,12,52.38h0c11.21-12.24,12-52.38,12-52.38,6.49,23.2,20.46,30.93,20.46,30.93,5.24-11-.5-35.92-.5-35.92,10.48,16,31.43,11.23,31.43,11.23-28.19-22.2-34.93-69.35-34.93-69.35,7.73,3.74,9.48,17.71,9.48,17.71,4.74-3.49,3.74-10.48,3.74-10.48a9.81,9.81,0,0,0,4,4.17l8.05,13.69a17.6,17.6,0,0,0-4.37,8.36c.37,3.24,3.12,8.61,3.12,8.61s-1-6.86-.5-8.11a72.77,72.77,0,0,1,4.49-6.61c5.86-1.12,10.48,3.62,10.48,3.62,2.25,3.37,3,11.1,3,11.1,1.12-4.61,0-11.6,0-11.6a14.76,14.76,0,0,0-8.11-6.61c3-3.37,8.23-3.87,8.23-3.87,3,.5,8.48,7.36,8.48,7.36-1.5-9.1-8.48-10.6-8.48-10.6-6.49.5-13.6,7-13.6,7l-6.25-11a9.32,9.32,0,0,0,1.43,0c-.25-6-4-8.48-4-8.48,5,3.74,11,0,11,0-11.23-4.24-20-24.7-20-24.7,7.48,9,20.46,4.89,20.46,4.89-9-14.57-9.48-32.83-9.48-32.83a82.78,82.78,0,0,0,11,27.44c8,7.48,37.75,1.83,37.75,1.83a117.64,117.64,0,0,1-27.77-37.25c9,13,26.94,23.45,26.94,23.45,23.45,5,54.22-12.14,54.22-12.14-29.94-14.47-52.22-40.75-52.22-40.75,31.43,21.79,61.53,25.45,61.53,25.45,31.93-2.49,55.71-33.93,55.71-33.93-62.53-4.47-91-18-91-18,18.46,6,87,4,87,4C637.74,237.75,650.22,202,650.22,202,603.82,211.48,541,208.32,541,208.32ZM403.78,190.42c-2.12-.17-5.7-2.75-5.7-2.75a30.64,30.64,0,0,1,5.9-.33c2.91.17,5.49,3.08,5.49,3.08S405.9,190.59,403.78,190.42Z"/></g><circle class="cls-5" cx="400" cy="300" r="186.27"/><path class="cls-6" d="M318.71,153.63q3.74,2.26,7.32,4.66,4.61-1.59,9.24-2.89-2.06,4-3.85,8.07,2.46,3.37,4.85,6.79-4.37-.12-8.86,0-2.69,3.59-5.13,7.28-1.43-3.92-2.79-7.87-4.38-.82-8.92-1.39,3.79-3.12,7.76-6Q318.43,158,318.71,153.63Z"/><path class="cls-6" d="M358.42,138.66q3,3.1,5.9,6.3,4.76-.42,9.5-.57-2.9,3.4-5.55,6.9,1.57,3.87,3.06,7.76-4.15-1.18-8.46-2.13-3.39,2.82-6.55,5.78-.46-4.14-.85-8.3-4-1.88-8.15-3.55,4.31-2.06,8.74-3.88Q357.15,142.81,358.42,138.66Z"/><path class="cls-6" d="M400,133.67q2.2,3.73,4.22,7.51,4.7.72,9.33,1.69-3.62,2.62-7,5.39.61,4.13,1.13,8.26-3.74-2.13-7.67-4.06-3.94,1.94-7.67,4.06.53-4.13,1.13-8.26-3.39-2.77-7-5.39,4.62-1,9.33-1.69Q397.8,137.4,400,133.67Z"/><path class="cls-6" d="M441.58,138.66q1.27,4.15,2.35,8.31,4.43,1.82,8.74,3.88-4.17,1.67-8.15,3.55-.38,4.16-.85,8.3-3.16-3-6.55-5.78-4.31.94-8.46,2.13,1.49-3.89,3.06-7.76-2.65-3.49-5.55-6.9,4.73.15,9.5.57Q438.54,141.76,441.58,138.66Z"/><path class="cls-6" d="M481.29,153.63q.28,4.36.37,8.68,4,2.89,7.76,6-4.53.56-8.92,1.39-1.36,4-2.79,7.87-2.44-3.69-5.13-7.28-4.48-.16-8.86,0,2.39-3.41,4.85-6.79-1.79-4.05-3.85-8.07,4.63,1.3,9.24,2.89Q477.56,155.88,481.29,153.63Z"/><text class="cls-7" transform="translate(180.3 337.2) rotate(76.86)">O</text><text class="cls-7" transform="translate(190.64 375.94) rotate(67.12)">R</text><text class="cls-7" transform="translate(205.2 407.4) rotate(59.87)">I</text><text class="cls-7" transform="matrix(0.61, 0.79, -0.79, 0.61, 216.19, 425.8)">G</text><text class="cls-7" transform="translate(240.1 454.59) rotate(44.76)">I</text><text class="cls-7" transform="matrix(0.8, 0.6, -0.6, 0.8, 255.5, 469.5)">N</text><text class="cls-7" transform="translate(286.3 491.19) rotate(29.57)"> </text><text class="cls-7" transform="matrix(0.92, 0.38, -0.38, 0.92, 305.11, 501.44)">S</text><text class="cls-7" transform="translate(335.28 513.14) rotate(13.71)">T</text><text class="cls-7" transform="translate(368.98 520.65) rotate(4.36)">O</text><text class="cls-7" transform="translate(408.98 522.47) rotate(-5.17)">R</text><text class="cls-7" transform="translate(440.52 519.09) rotate(-13.9)">Y</text><text class="cls-7" transform="matrix(0.93, -0.36, 0.36, 0.93, 474.7, 509.55)"> </text><text class="cls-7" transform="matrix(0.88, -0.47, 0.47, 0.88, 494.57, 501.58)">F</text><text class="cls-7" transform="matrix(0.82, -0.57, 0.57, 0.82, 523.04, 485.3)">I</text><text class="cls-7" transform="matrix(0.74, -0.67, 0.67, 0.74, 540.42, 472.84)">T</text><text class="cls-7" transform="matrix(0.62, -0.79, 0.79, 0.62, 567.1, 447.26)">N</text><text class="cls-7" transform="matrix(0.48, -0.88, 0.88, 0.48, 589.68, 416.57)">E</text><text class="cls-7" transform="translate(604.98 387.01) rotate(-69.78)">S</text><text class="cls-7" transform="matrix(0.2, -0.98, 0.98, 0.2, 615.84, 354.74)">S</text><text class="cls-8" transform="translate(275.68 145.6) rotate(-35.66)">B</text><text class="cls-8" transform="translate(301.6 127.94) rotate(-26.84)">E</text><text class="cls-8" transform="translate(328.28 115.05) rotate(-17.54)">N</text><text class="cls-8" transform="translate(361.35 105.81) rotate(-9.85)"> </text><text class="cls-8" transform="translate(379.56 102.6) rotate(-1.68)">M</text><text class="cls-8" transform="matrix(0.99, 0.15, -0.15, 0.99, 417.58, 102.51)">U</text><text class="cls-8" transform="translate(449.55 107.94) rotate(18.02)">D</text><text class="cls-8" transform="translate(480.73 118.82) rotate(27.67)">G</text><text class="cls-8" transform="matrix(0.8, 0.6, -0.6, 0.8, 510.37, 135.38)">E</text><text class="cls-9" transform="translate(262.89 358.81)">EST</text><text class="cls-9" transform="translate(491.01 359)">2017</text></g></svg>