<?xml version="1.0" encoding="utf-8"?>
<!-- Generator: Adobe Illustrator 22.0.1, SVG Export Plug-In . SVG Version: 6.00 Build 0)  -->
<svg version="1.1" id="Layer_1" xmlns="http://www.w3.org/2000/svg" xmlns:xlink="http://www.w3.org/1999/xlink" x="0px" y="0px"
	 viewBox="0 0 549.3 475" style="enable-background:new 0 0 549.3 475;" xml:space="preserve">
<style type="text/css">
	.st0{fill:none;stroke:#000000;stroke-miterlimit:10;}
	.st1{font-family:'Arial-BoldMT';}
	.st2{font-size:33.76px;}
	.st3{font-size:33.7347px;}
	.st4{font-size:33.584px;}
	.st5{font-size:33.7px;}
	.st6{font-size:33.6px;}
	.st7{font-size:33.68px;}
	.st8{font-size:33.6645px;}
	.st9{font-size:33.641px;}
	.st10{font-size:33.9px;}
	.st11{font-size:33.84px;}
	.st12{font-size:33.8628px;}
	.st13{font-size:33.7768px;}
	.st14{font-size:33.16px;}
	.st15{font-size:33.2px;}
	.st16{font-size:33.2213px;}
</style>
<title>osf_logo</title>
<g id="Layer_3">
	<circle class="st0" cx="272.8" cy="237.5" r="235.9"/>
	<path d="M415.7,145.8c46.9-1,102.3-21,102.3-21c24.9-18.8,31.4-63.3,31.4-63.3C476,110.9,359.9,128,359.9,128
		c-6.5,37.5-30.2,52.6-50.9,58.6l-0.1-0.2c-10.3-18-10-47.2-10-47.2c5.6-2.7,12.1,0.8,12.1,0.8s-0.2-8.8-4.3-13s-16.3-2.2-16.3-2.2
		c-5.3-3.8-13-4.5-21.3-3.2s-9.8,7.8-9.8,7.8l-17.8,57.4c-21-5.8-45.4-20.8-52.1-58.9c0,0-116.1-17.1-189.4-66.5
		c0,0,6.5,44.6,31.4,63.3c0,0,55.4,20,102.3,21c0,0-62.9,3.2-109.3-6.3c0,0,12.5,35.8,37.4,46.2c0,0,68.5,2,87-4
		c0,0-28.4,13.5-91,18c0,0,23.8,31.4,55.7,33.9c0,0,30.1-3.7,61.5-25.4c0,0-22.3,26.3-52.2,40.8c0,0,30.8,17.1,54.2,12.1
		c0,0,18-10.5,26.9-23.4c-6.7,14.1-16.1,26.8-27.8,37.3c0,0,29.7,5.6,37.7-1.8c5.3-8.4,9-17.7,11-27.4c0,0-0.5,18.3-9.5,32.8
		c0,0,13,4.1,20.5-4.9c0,0-8.7,20.5-20,24.7c0,0,6,3.7,11,0c0,0-3.7,2.5-4,8.5c0.5,0,0.9,0,1.4,0l-6.3,11c0,0-7.1-6.5-13.6-7
		c0,0-7,1.5-8.5,10.6c0,0,5.5-6.9,8.5-7.4c0,0,5.2,0.5,8.2,3.9c-3.4,1.1-6.3,3.5-8.1,6.6c0,0-1.1,7,0,11.6c0,0,0.8-7.7,3-11.1
		c0,0,4.6-4.7,10.5-3.6c1.6,2.1,3.1,4.3,4.5,6.6c0.5,1.3-0.5,8.1-0.5,8.1s2.7-5.4,3.1-8.6c-0.7-3.1-2.2-6-4.4-8.4l8-13.7
		c1.7-1,3.1-2.4,4-4.2c0,0-1,7,3.7,10.5c0,0,1.8-14,9.5-17.7c0,0-6.7,47.1-34.9,69.4c0,0,21,4.7,31.4-11.2c0,0-5.7,25-0.5,35.9
		c0,0,14-7.7,20.5-30.9c0,0,0.8,40.1,12,52.4l0,0c11.2-12.2,12-52.4,12-52.4c6.5,23.2,20.5,30.9,20.5,30.9c5.2-11-0.5-35.9-0.5-35.9
		c10.5,16,31.4,11.2,31.4,11.2c-28.2-22.2-34.9-69.3-34.9-69.3c7.7,3.7,9.5,17.7,9.5,17.7c4.7-3.5,3.7-10.5,3.7-10.5
		c0.9,1.8,2.3,3.2,4,4.2l8,13.7c-2.2,2.3-3.7,5.2-4.4,8.4c0.4,3.2,3.1,8.6,3.1,8.6s-1-6.9-0.5-8.1c1.4-2.3,2.9-4.5,4.5-6.6
		c5.9-1.1,10.5,3.6,10.5,3.6c2.3,3.4,3,11.1,3,11.1c1.1-4.6,0-11.6,0-11.6c-1.8-3.1-4.7-5.5-8.1-6.6c3-3.4,8.2-3.9,8.2-3.9
		c3,0.5,8.5,7.4,8.5,7.4c-1.5-9.1-8.5-10.6-8.5-10.6c-6.5,0.5-13.6,7-13.6,7l-6.3-11c0.5,0,1,0,1.4,0c-0.3-6-4-8.5-4-8.5
		c5,3.7,11,0,11,0c-11.2-4.2-20-24.7-20-24.7c7.5,9,20.5,4.9,20.5,4.9c-9-14.6-9.5-32.8-9.5-32.8c2,9.7,5.7,19,11,27.4
		c8,7.5,37.8,1.8,37.8,1.8c-11.6-10.4-21.1-23.1-27.8-37.3c9,13,26.9,23.5,26.9,23.5c23.5,5,54.2-12.1,54.2-12.1
		c-29.9-14.5-52.2-40.8-52.2-40.8c31.4,21.8,61.5,25.4,61.5,25.4c31.9-2.5,55.7-33.9,55.7-33.9c-62.5-4.5-91-18-91-18
		c18.5,6,87,4,87,4c25-10.5,37.5-46.2,37.5-46.2C478.5,149,415.7,145.8,415.7,145.8z M278.5,127.9c-2.1-0.2-5.7-2.8-5.7-2.8
		c2-0.3,3.9-0.4,5.9-0.3c2.9,0.2,5.5,3.1,5.5,3.1S280.6,128.1,278.5,127.9L278.5,127.9z"/>
	<circle class="st0" cx="274.7" cy="237.5" r="186.3"/>
	<path d="M193.4,91.1c2.5,1.5,4.9,3.1,7.3,4.7c3.1-1.1,6.2-2,9.2-2.9c-1.4,2.7-2.7,5.4-3.9,8.1c1.6,2.2,3.3,4.5,4.9,6.8
		c-2.9-0.1-5.9-0.1-8.9,0c-1.8,2.4-3.5,4.8-5.1,7.3c-1-2.6-1.9-5.2-2.8-7.9c-2.9-0.5-5.9-1-8.9-1.4c2.5-2.1,5.1-4.1,7.8-6
		C193.1,96.9,193.2,94,193.4,91.1z"/>
	<path d="M233.1,76.2c2,2.1,4,4.2,5.9,6.3c3.2-0.3,6.3-0.5,9.5-0.6c-1.9,2.3-3.8,4.6-5.6,6.9c1,2.6,2.1,5.2,3.1,7.8
		c-2.8-0.8-5.6-1.5-8.5-2.1c-2.3,1.9-4.4,3.8-6.6,5.8c-0.3-2.8-0.6-5.5-0.9-8.3c-2.7-1.3-5.4-2.4-8.1-3.6c2.9-1.4,5.8-2.7,8.7-3.9
		C231.5,81.7,232.3,78.9,233.1,76.2z"/>
	<path d="M274.7,71.2c1.5,2.5,2.9,5,4.2,7.5c3.1,0.5,6.2,1,9.3,1.7c-2.4,1.7-4.7,3.5-7,5.4c0.4,2.8,0.8,5.5,1.1,8.3
		c-2.5-1.4-5.1-2.8-7.7-4.1c-2.6,1.3-5.2,2.6-7.7,4c0.4-2.8,0.7-5.5,1.1-8.3c-2.3-1.8-4.6-3.6-7-5.4c3.1-0.7,6.2-1.2,9.3-1.7
		C271.8,76.1,273.2,73.6,274.7,71.2z"/>
	<path d="M316.3,76.2c0.8,2.8,1.6,5.5,2.4,8.3c3,1.2,5.9,2.5,8.7,3.9c-2.8,1.1-5.5,2.3-8.1,3.6c-0.3,2.8-0.5,5.5-0.9,8.3
		c-2.1-2-4.3-3.9-6.5-5.8c-2.9,0.6-5.7,1.3-8.5,2.1c1-2.6,2-5.2,3.1-7.8c-1.8-2.3-3.6-4.6-5.5-6.9c3.2,0.1,6.3,0.3,9.5,0.6
		C312.3,80.3,314.2,78.2,316.3,76.2z"/>
	<path d="M356,91.1c0.2,2.9,0.3,5.8,0.4,8.7c2.7,1.9,5.3,3.9,7.8,6c-3,0.4-6,0.8-8.9,1.4c-0.9,2.7-1.8,5.3-2.8,7.9
		c-1.6-2.5-3.3-4.9-5.1-7.3c-3-0.1-5.9-0.1-8.9,0c1.6-2.3,3.2-4.5,4.9-6.8c-1.2-2.7-2.5-5.4-3.9-8.1c3.1,0.9,6.2,1.8,9.2,2.9
		C351.1,94.2,353.5,92.6,356,91.1z"/>
	<text transform="matrix(0.2273 0.9738 -0.9738 0.2273 54.9899 274.7)" class="st1 st2">O</text>
	<text transform="matrix(0.3903 0.9207 -0.9207 0.3903 65.3297 313.4395)" class="st1 st3">R</text>
	<text transform="matrix(0.5026 0.8645 -0.8645 0.5026 79.8904 344.9002)" class="st1 st4">I</text>
	<text transform="matrix(0.6111 0.7915 -0.7915 0.6111 90.8799 363.29)" class="st1 st5">G</text>
	<text transform="matrix(0.7101 0.7041 -0.7041 0.7101 114.7904 392.0901)" class="st1 st2">I</text>
	<text transform="matrix(0.8 0.6 -0.6 0.8 130.1902 407.0001)" class="st1 st2">N</text>
	<text transform="matrix(0.9243 0.3817 -0.3817 0.9243 179.8 438.9401)" class="st1 st6">S</text>
	<text transform="matrix(0.9707 0.2402 -0.2402 0.9707 209.9697 450.6396)" class="st1 st3">T</text>
	<text transform="matrix(0.9971 7.602294e-02 -7.602294e-02 0.9971 243.67 458.15)" class="st1 st2">O</text>
	<text transform="matrix(0.9959 -9.011113e-02 9.011113e-02 0.9959 283.67 459.96)" class="st1 st2">R</text>
	<text transform="matrix(0.9707 -0.2402 0.2402 0.9707 315.21 456.59)" class="st1 st2">Y</text>
	<text transform="matrix(0.882 -0.4712 0.4712 0.882 369.26 439.07)" class="st1 st7">F</text>
	<text transform="matrix(0.8211 -0.5708 0.5708 0.8211 397.7296 422.7902)" class="st1 st8">I</text>
	<text transform="matrix(0.7413 -0.6712 0.6712 0.7413 415.1093 410.329)" class="st1 st9">T</text>
	<text transform="matrix(0.6174 -0.7866 0.7866 0.6174 441.79 384.7601)" class="st1 st10">N</text>
	<text transform="matrix(0.4788 -0.8779 0.8779 0.4788 464.37 354.0704)" class="st1 st11">E</text>
	<text transform="matrix(0.3489 -0.9371 0.9371 0.3489 479.6691 324.5102)" class="st1 st12">S</text>
	<text transform="matrix(0.2 -0.9798 0.9798 0.2 490.5302 292.2395)" class="st1 st13">S</text>
	<text transform="matrix(0.8125 -0.583 0.583 0.8125 150.3699 83.0901)" class="st1 st14">B</text>
	<text transform="matrix(0.8923 -0.4515 0.4515 0.8923 176.29 65.43)" class="st1 st14">E</text>
	<text transform="matrix(0.9535 -0.3014 0.3014 0.9535 202.97 52.55)" class="st1 st14">N</text>
	<text transform="matrix(0.9996 -2.931733e-02 2.931733e-02 0.9996 254.25 40.09)" class="st1 st14">M</text>
	<text transform="matrix(0.9887 0.1499 -0.1499 0.9887 292.2699 40.01)" class="st1 st15">U</text>
	<text transform="matrix(0.9509 0.3093 -0.3093 0.9509 324.2399 45.4299)" class="st1 st14">D</text>
	<text transform="matrix(0.8884 0.4592 -0.4592 0.8884 355.4203 56.311)" class="st1 st16">G</text>
	<text transform="matrix(0.8 0.6 -0.6 0.8 385.0598 72.87)" class="st1 st14">E</text>
</g>
</svg>
