<?xml version="1.0" encoding="utf-8"?>
<!-- Generator: Adobe Illustrator 21.1.0, SVG Export Plug-In . SVG Version: 6.00 Build 0)  -->
<svg version="1.1" id="Layer_1" xmlns="http://www.w3.org/2000/svg" xmlns:xlink="http://www.w3.org/1999/xlink" x="0px" y="0px"
	 viewBox="0 0 1200 272" style="enable-background:new 0 0 1200 272;" xml:space="preserve">
<style type="text/css">
	.st0{fill:#C0120B;}
	.st1{fill:#20346F;}
	.st2{display:none;}
	.st3{display:inline;fill:#20346F;}
</style>
<g>
	<g>
		<g>
			<path class="st0" d="M530.3,43.8c-0.2-0.4-0.4-0.7-0.6-0.8c-0.3-0.1-0.6-0.2-1-0.2H526V53h2.6l0,0c0.4,0,0.7-0.1,1-0.2
				s0.5-0.4,0.6-0.7c0.2-0.3,0.3-0.8,0.4-1.4c0.1-0.6,0.1-1.4,0.1-2.4c0-1.1,0-2.1-0.1-2.8C530.5,44.7,530.4,44.2,530.3,43.8z"/>
			<path class="st0" d="M529.3,37.9c0.3-0.1,0.5-0.4,0.6-0.8c0.2-0.4,0.3-0.9,0.3-1.5c0.1-0.6,0.1-1.4,0.1-2.5c0-1.2,0-2.1-0.1-2.7
				s-0.2-1.1-0.4-1.4s-0.4-0.5-0.7-0.6s-0.6-0.1-1-0.1H526V38h2.4C528.7,38.1,529.1,38,529.3,37.9z"/>
		</g>
		<path class="st0" d="M639.4,32.6c0-0.8-0.1-1.3-0.1-1.7c-0.1-0.4-0.1-0.7-0.2-1c-0.2-0.4-0.4-0.7-0.7-0.8
			c-0.3-0.2-0.7-0.2-1.3-0.2h-2.5v23.7h2.5l0,0c0.6,0,1.1-0.1,1.3-0.2c0.3-0.2,0.5-0.5,0.6-0.9c0.1-0.3,0.2-0.6,0.2-1
			s0.1-0.9,0.1-1.7c0-0.7,0.1-1.7,0.1-3s0-2.9,0-5c0-2,0-3.7,0-5C639.4,34.4,639.4,33.3,639.4,32.6z"/>
		<path class="st0" d="M512.7,16.6v48.2h174.7V16.6H512.7z M536.3,53.5c-0.2,1.2-0.6,2.2-1.1,3s-1.2,1.3-2.1,1.6
			c-0.9,0.3-2,0.5-3.3,0.5h-9.6l0,0V22.9h9c1.3,0,2.5,0.2,3.4,0.5s1.6,0.8,2.2,1.6c0.5,0.8,0.9,1.7,1.2,3c0.2,1.2,0.4,2.8,0.4,4.6
			c0,1.4,0,2.5-0.1,3.3s-0.2,1.5-0.4,2.1c-0.2,0.5-0.4,1-0.7,1.3s-0.6,0.6-1,0.8v0.3c0.5,0.3,0.9,0.6,1.2,0.8s0.6,0.7,0.8,1.2
			c0.2,0.6,0.4,1.3,0.4,2.4c0.1,1,0.1,2.4,0.1,4.2C536.6,50.8,536.5,52.3,536.3,53.5z M552.4,28.8h-7.6v8.8h7.5v5.6h-7.5v9.2h7.6
			v6.2H539V22.9h13.4V28.8z M571.7,58.6h-3l-7.9-22h-0.2v22h-5.3V22.9h6l4.9,15.2h0.2V22.9h5.3V58.6z M606.8,58.6h-5.2V33.9h-0.2
			c-0.1,0.6-0.2,1.3-0.3,1.9c-0.1,0.7-0.3,1.3-0.4,1.9l-4.5,20.8h-2.6L589,37.7c-0.1-0.6-0.3-1.2-0.4-1.9c-0.1-0.7-0.2-1.3-0.3-1.9
			H588v24.7h-5.2V22.9h8.6l2.4,12.9c0.2,1.2,0.4,2.1,0.5,2.9s0.2,1.6,0.3,2.4h0.3c0.1-0.8,0.2-1.6,0.4-2.4c0.1-0.8,0.3-1.8,0.5-2.9
			l2.5-12.9h8.5V58.6z M625.9,48.1c0,1.3-0.1,2.4-0.1,3.3s-0.1,1.7-0.2,2.3c-0.1,0.6-0.2,1.2-0.4,1.6s-0.4,0.9-0.6,1.3
			c-0.5,1-1.3,1.6-2.3,2s-2.5,0.5-4.5,0.5s-3.5-0.2-4.5-0.5c-1-0.4-1.8-1-2.4-2c-0.3-0.4-0.5-0.8-0.6-1.3c-0.2-0.4-0.3-1-0.4-1.6
			c-0.1-0.6-0.2-1.4-0.2-2.3s-0.1-2-0.1-3.3V22.8h5.9v25.3c0,0.7,0,1.3,0,1.7c0,0.4,0,0.8,0,1.1c0,0.3,0,0.5,0.1,0.7
			c0,0.2,0.1,0.4,0.2,0.5c0.2,0.3,0.4,0.5,0.6,0.6c0.3,0.1,0.7,0.2,1.3,0.2s1.1,0,1.3-0.1c0.3-0.1,0.5-0.3,0.6-0.6
			c0.1-0.2,0.2-0.3,0.2-0.5s0.1-0.4,0.1-0.8c0-0.3,0-0.7,0-1.1s0-1,0-1.7V22.8h5.7v25.3H625.9z M645.3,47.4
			c-0.1,1.7-0.1,3.1-0.3,4.2c-0.1,1.1-0.3,1.9-0.4,2.5c-0.2,0.6-0.4,1.2-0.7,1.7s-0.6,1-0.9,1.3c-0.4,0.4-0.8,0.6-1.4,0.8
			c-0.5,0.2-1.2,0.4-1.9,0.4c-0.7,0.1-1.6,0.1-2.5,0.1h-8.4V22.7h8.4c1.9,0,3.4,0.2,4.4,0.6s1.8,1.2,2.3,2.2
			c0.3,0.5,0.5,1.1,0.7,1.7s0.3,1.5,0.4,2.5c0.1,1.1,0.2,2.5,0.3,4.2c0,1.7,0.1,3.9,0.1,6.6C645.4,43.5,645.3,45.7,645.3,47.4z
			 M663.8,49.3c-0.1,1.3-0.2,2.3-0.3,3.2c-0.1,0.9-0.3,1.6-0.4,2.1c-0.2,0.6-0.4,1.1-0.6,1.6c-0.5,1.1-1.3,1.9-2.3,2.3
			s-2.5,0.6-4.4,0.6s-3.4-0.2-4.4-0.6s-1.8-1.2-2.3-2.3c-0.3-0.5-0.5-1.1-0.7-1.8c-0.2-0.6-0.3-1.5-0.5-2.7
			c-0.1-1.1-0.2-2.6-0.3-4.4c0-1.8-0.1-4.1-0.1-7c0-2.8,0-5,0.1-6.7c0-1.7,0.1-3.1,0.3-4.2c0.1-1.1,0.3-1.9,0.5-2.5s0.4-1.2,0.7-1.7
			c0.3-0.6,0.6-1,1-1.4s0.8-0.7,1.4-0.9c0.5-0.2,1.2-0.4,1.9-0.5s1.5-0.1,2.5-0.1s1.9,0,2.6,0.1c0.7,0.1,1.3,0.3,1.8,0.5
			s0.9,0.5,1.2,0.9s0.6,0.8,0.9,1.3c0.4,0.8,0.8,1.8,1,3c0.2,1.1,0.3,2.5,0.3,4.2c0,0.3,0,0.6,0,0.8c0,0.2,0,0.4,0,0.7h-5.5
			c0-0.2,0-0.4,0-0.6s0-0.5,0-1s0-1.1-0.1-1.6c-0.1-0.6-0.2-1.1-0.3-1.4c-0.2-0.8-0.9-1.1-2.1-1.1c-0.6,0-1.1,0.1-1.4,0.3
			c-0.3,0.2-0.5,0.5-0.7,1c-0.1,0.3-0.1,0.6-0.2,1c-0.1,0.4-0.1,1-0.2,1.7c0,0.8-0.1,1.8-0.1,3.1c0,1.3,0,3,0,5.2c0,2.3,0,4.1,0,5.4
			c0,1.4,0,2.4,0.1,3.2c0,0.8,0.1,1.4,0.2,1.7c0.1,0.4,0.1,0.7,0.2,1c0.2,0.5,0.4,0.8,0.7,1s0.8,0.3,1.5,0.3s1.2-0.1,1.5-0.3
			c0.3-0.2,0.5-0.6,0.7-1.1c0.1-0.3,0.1-0.6,0.2-1.1c0.1-0.4,0.1-0.9,0.1-1.4s0.1-1,0.1-1.5s0-1,0-1.4c0-0.6,0-1.1,0-1.5
			s0-0.7,0-0.9H655l0,0v-5.6h8.8c0,0.6,0.1,1.4,0.1,2.5s0,2.4,0,3.9C663.8,46.5,663.8,48.1,663.8,49.3z M679.8,28.8h-7.6v8.8h7.5
			v5.6h-7.5v9.2h7.6v6.2h-13.4V22.9h13.4V28.8z"/>
	</g>
	<g>
		<path class="st1" d="M353.1,205.6c1.1,0.2,1.5,2,1.1,5.6c-0.2,0.7-0.7,1.2-1.5,1.6l-0.2,0.7l-0.4,0.5v3.5c0,0.2,0.1,0.3,0.2,0.5
			l-0.2,0.7v0.5c0.1,0.6,0.1,1.5,0,2.4l0.2,2.3v3v0.9l0.2,0.9l-0.2,1.2c0.2,0.6,0.3,1.4,0.2,2.3c0,0.8,0,1.7,0.2,2.8
			c0.3,0.6,1,1.1,1.9,1.4l0.4,1c-0.1,0.5-0.1,1.1,0,1.7c-0.2,0.8-0.2,1.8,0,3l-0.2,0.5c-2.9,0.3-5.1-0.8-6.8-3.1l-0.4,0.2
			c-0.1-0.9-0.5-2.1-1.1-3.5l-0.2-1c0-0.5-0.1-1.1-0.4-1.8l-0.2-2.4v-0.5c-0.3-0.8-0.4-1.7-0.4-2.8c0.1-0.5,0-1-0.2-1.4l0.2-0.5
			c-0.2-1.4-0.2-3.2,0-5.2v-4.2l0.2-0.5l0.2-0.5V214c0.2-0.8,0.4-1.7,0.6-3l0.2-0.5l0.6-1.2C348.6,207.7,350.6,206.5,353.1,205.6z
			 M357.7,206c2.3,0.4,4.5,1.6,6.4,3.5c0.1,0.5,0.4,1.1,0.9,1.6l0.4,2.8l0.2,0.4l0.2,0.5c-0.1,0.9,0.1,1.9,0.4,3l0.2,0.7v0.7
			c-0.1,0.7-0.1,1.5,0.2,2.4v0.7v0.7l0.2,0.7l-0.2,0.7c0.2,1.3,0.1,3-0.2,5.1v0.5v0.7v0.5v1v0.5c-0.4,0.9-0.6,1.9-0.6,3.2l-0.4,1
			l-0.4,1.8c-1.4,2.1-3.6,3.5-6.4,4.4c-0.9-1.7-1.3-3.8-1-6.1v-0.7c0.7-0.4,1.4-1.1,1.9-1.9c0.1-1.3,0-3.1-0.2-5.4l0.2-0.9l-0.4-0.5
			l0.4-0.9v-11.9c-0.4-1.1-1.1-2-2.3-2.8c0-0.4-0.1-0.8-0.2-1.2c0.2-1.1,0.2-2.3,0-3.7L357.7,206z"/>
		<path class="st1" d="M379.4,205.2c0.5,0.1,1.2,0.3,1.9,0.5c-0.1,0.8,0,1.7,0.2,2.8l-0.2,0.3v0.7v0.5v0.7v0.7v0.5l0.2,0.5l-0.2,0.9
			v1.2l0.2,0.7v0.7v1.3c0.1,0.8,0.1,1.7,0,2.8v1.4l0.2,0.5c-0.2,1.4-0.3,3.2-0.2,5.5v1.2c0.1,1,0,2.3-0.2,3.9l0.2,1.3l0.2,3.9v3.6
			l-0.6,1.2h-3.5h-0.8h-0.6h-0.8h-0.8v-8.4l-0.2-0.5v-0.9c0.1-0.7,0.1-1.5,0-2.5l0.2-0.9c-0.1-0.8-0.1-1.7,0-2.8l-0.2-0.5l0.2-0.5
			V225c-0.2-1.2-0.2-2.6-0.2-4.4v-1.3c0.1-1,0-2.3-0.2-3.9v-2l0.2-0.7l-0.2-2.3c0.1-1,0-2.3-0.2-3.9V206c0.6,0,1.2-0.2,1.7-0.5
			C377,205.5,378.2,205.5,379.4,205.2z M387.1,205.4c5.4,0.4,8.2,3.1,8.3,8.2c1.2,4.3,0.1,7.6-3.5,10.1v0.7c0.8,0.2,1.5,0.7,2.3,1.4
			l0.4,0.2l0.6,1.2c0.1,0.5,0.2,1,0.4,1.4v3.6v1.4v0.5v0.9v0.7v1v3.6v0.5v0.7v0.5l-0.2,0.5c-0.9,0.2-2.1,0.2-3.5,0l-0.8,0.2h-0.6
			l-0.4-0.2l-0.6,0.2h-1c-0.3-1.2-0.3-2.7-0.2-4.4v-6.9c0.1-0.7,0-1.5-0.2-2.3v-0.5c-0.6-0.7-1.4-1.1-2.5-1.1l-0.4-1.1
			c0.1-1,0-2.2-0.2-3.5v-0.5c0.4-0.9,1.2-1.5,2.5-1.8c1.7-5,0.9-8.3-2.5-9.8c0.4-1.1,0.3-2.2-0.4-3.4
			C384.8,206.3,385.6,205.5,387.1,205.4z"/>
		<path class="st1" d="M407.2,205.6c1.2-0.3,2.5-0.2,4,0.2l0.4,2.8c-0.1,0.4-0.2,0.8-0.2,1.4l0.2,0.4v0.5v0.5v0.9v3v0.5v1.7v0.9v2.4
			v3.1v0.7v1.2v0.5v0.5v0.5v2.3v0.5v0.5v2.1v0.5v3v0.7v3.5v0.5v1.4c-1,0-2.3,0.2-3.8,0.5c-0.9-0.3-1.9-0.4-3-0.4l-0.2-1v-10
			l-0.2-0.5l0.2-0.9l-0.2-1l0.2-0.9l-0.2-1c-0.1-0.6,0-1.4,0.2-2.3l-0.2-0.4v-5.2v-0.7v-3c-0.2-1.4-0.2-3.2,0-5.4l-0.2-0.9l0.2-0.5
			l-0.2-1V206l0.8-0.5c0.6,0.1,1.2,0.1,1.9-0.2L407.2,205.6z"/>
		<path class="st1" d="M426.9,205.2l2.5,0.2l0.2,1.2v1.4c0,0.1,0.1,0.2,0.2,0.3v0.5v0.5c-0.1,1-0.8,1.7-1.9,2.1
			c-0.2,0.5-0.4,1-0.8,1.6c0.2,0.6,0.2,1.4,0.2,2.3v3.2v0.7c0,0.6,0.2,1.4,0.4,2.3c-0.2,0.8-0.3,1.7-0.2,3v3.5v0.5v0.7l0.2,0.9v0.9
			v1.1v0.9l0.2,1.1v1c0.6,0.3,1.4,0.9,2.1,1.6c-0.2,1.4-0.1,2.9,0.4,4.6v0.5c-0.3,0.3-0.5,0.8-0.8,1.2c-7.5-1.3-10.5-6.7-9.1-16.2
			c-0.3-1.1-0.3-2.5,0-4c0-0.1-0.2-0.2-0.4-0.4l0.4-0.3c-0.2-0.8-0.2-1.7,0-2.8c-0.2-0.4-0.2-0.9-0.2-1.4c-0.1-0.3-0.1-0.6,0-1.1
			v-0.9c0-0.3-0.2-0.7-0.4-1c0.4-0.6,0.5-1.3,0.2-2.1l0.4-0.9V211C421.9,208.7,424,206.7,426.9,205.2z M437.4,224.4
			c0.9,0.1,2,0.2,3.4,0.2c0.3,0.9,0.4,1.9,0.4,3.2l0.2,0.4v0.5l-0.2,0.4l0.2,0.5l-0.2,0.4l0.2,0.5c-0.1,0.8-0.1,1.8,0.2,3
			c-0.2,0.7-0.2,1.5-0.2,2.4v0.5v0.7v0.7v2.3v0.7v2.3c-1.5,0.4-2.6-0.1-3.4-1.6c-2.7,1.5-4.6,1.7-5.5,0.7v-4.6l0.4-1.2
			c1.9-0.8,2.5-2.5,1.9-5.3h-1.9l-0.4-1v-5.3l1.7-0.2C435.1,224.7,436.2,224.6,437.4,224.4z M433.5,205.2c3.9,0.9,6.2,3.3,6.9,7.2
			c0.3,1,0.4,2.2,0.4,3.5c-1.1,0.1-2.1,0.5-3,1.1l-1.5,0.3l-1.3-0.2c-0.3-1.3-0.3-2.9-0.2-4.8c-0.4-0.5-1.1-1.1-1.9-1.6
			c-0.2-1-0.2-2.2,0-3.7v-1.4l0.2-0.3C433.2,205.4,433.4,205.4,433.5,205.2z"/>
		<path class="st1" d="M452.7,205.6c1.2-0.3,2.5-0.2,4,0.2l0.4,2.8c-0.1,0.4-0.2,0.8-0.2,1.4l0.2,0.4v0.5v0.5v0.9v3v0.5v1.7v0.9v2.4
			v3.1v0.7v1.2v0.5v0.5v0.5v2.3v0.5v0.5v2.1v0.5v3v0.7v3.5v0.5v1.4c-1,0-2.3,0.2-3.8,0.5c-0.9-0.3-1.9-0.4-3-0.4l-0.2-1v-10
			l-0.2-0.5l0.2-0.9l-0.2-1l0.2-0.9l-0.2-1c-0.1-0.6,0-1.4,0.2-2.3l-0.2-0.4v-5.2v-0.7v-3c-0.2-1.4-0.2-3.2,0-5.4l-0.2-0.9l0.2-0.5
			l-0.2-1V206l0.8-0.5c0.6,0.1,1.2,0.1,1.9-0.2L452.7,205.6z"/>
		<path class="st1" d="M469,242.9c-1.4,0.2-2.8-0.1-4-0.9v-2.1v-0.5v-3v-0.7v-0.5c0.1-0.6,0-1.2-0.2-1.9c0.2-0.6,0.2-1.4,0-2.3
			c0.2-0.7,0.2-1.5,0-2.4c0.1-0.6,0-1.3-0.2-2.1c0.1-0.3,0.1-0.7,0-1l0.2-0.7c-0.2-0.7-0.3-1.5-0.2-2.4c-0.1-0.9,0-2,0.2-3.3v-0.5
			l0.8,0.2c0.2,0.5,0.5,0.9,0.9,1.4c0.3,1.6,1.1,3.2,2.2,4.7l0.2,0.7l0.8,1.2l0.9,2.1l0.2,0.3l0.6,0.5v0.7l0.8,0.9l0.2,0.9l0.4,0.7
			c0,0.3,0.2,0.6,0.4,0.9c-0.6,2-0.6,4.4,0,7l-0.2,0.3l-0.2,1.4L469,242.9z M484.7,242.4c-1.1,0.2-2.3-0.1-3.4-0.9
			c-0.3-1.2-0.9-2.5-1.9-4l-0.2-0.7l-0.4-0.3c-0.2-0.8-0.7-1.7-1.3-2.6l-0.2-0.5l-0.4-0.5c-0.2-0.8-0.6-1.6-1.3-2.4V230l-0.4-0.7
			l-0.6-0.5c-0.2-0.8-0.6-1.6-1.3-2.3c-0.1-0.4-0.2-0.7-0.4-1c0-0.1,0-0.2-0.2-0.3c-0.3-0.9-0.8-1.8-1.5-2.6v-0.5l-0.6-0.9l-0.6-0.9
			l-0.6-0.9c-0.2-0.9-0.7-1.8-1.5-2.6v-0.5c-0.4-0.5-0.7-1.1-1.1-1.7l-0.4-0.4l-0.2-0.4c-0.1-0.8-0.6-1.6-1.3-2.4l-0.4-1.7
			c0.1-0.6,0.1-1.2,0-1.9v-1.2c1-0.3,2.1-0.3,3.4,0l1.3-0.3h0.8l0.6,0.2c0.3,0.9,0.9,2.1,1.9,3.5c0,0.1,0,0.2,0.2,0.3
			c0,0.2,0.1,0.4,0.2,0.5c0.2,0.5,0.4,1.1,0.8,1.7l0.4,0.5c0,0.2,0.1,0.3,0.2,0.5l0.4,0.9c0.2,0.6,0.6,1.2,1.1,1.9v0.5l0.4,0.5
			c0.1,0.3,0.3,0.7,0.6,1l0.4,1l0.4,0.9l0.6,1l0.6,1l0.4,0.7l0.6,1l0.4,1l0.6,1c0.4,0.9,0.9,1.8,1.7,3c0.2,0.7,0.5,1.4,1.1,2.1
			c0,0.4,0.2,0.8,0.6,1.4l0.8,1.1c0.1,0.4,0.2,0.8,0.4,1.2v4.4l0.2,0.3l-0.2,0.5v2.1C485,242.1,484.8,242.2,484.7,242.4z
			 M485.1,226.1l-1.5-0.5V224l-0.8-1.6l-0.8-1.8l-0.4-0.3l-0.2-0.5l-0.4-0.3c-0.2-0.5-0.4-1.1-0.8-1.8l-0.4-0.5
			c-0.1-0.2-0.2-0.4-0.4-0.5l-0.2-0.7l-0.2-0.9l-0.6-0.5l-0.2-0.7l-0.6-0.5c0-0.4-0.1-0.8-0.2-1.2v-1.4c-0.1-0.8,0-1.8,0.2-3
			c-0.1-0.5-0.1-1.1,0-1.7l1.1-0.2c1.2,0.1,2.6,0,4.3-0.2h0.6c0,0.1,0.2,0.2,0.4,0.4c0.4,1.4,0.5,3.2,0.2,5.2l0.2,0.5v3
			c0.1,0.5,0.1,1.1,0,1.8c0,0.5,0,1,0.2,1.4v0.5v1.6v0.7l0.2,2.3l0.2,2.3L485.1,226.1z"/>
		<path class="st1" d="M511.8,231h1.6c0.3,2.8,1.6,4.8,3.7,5.9c0.4,1.7,0.4,3.8,0,6.5l-1.4-0.4h-0.6c-4.3-1.6-7.1-4.7-8.4-9.4
			C506.5,231.8,508.2,230.9,511.8,231z M514.1,205.2c0.7,0,1.5,0.2,2.3,0.5c-0.1,0.8,0,1.8,0.2,2.9c-0.2,0.6-0.2,1.3-0.2,2l-0.2,0.3
			l0.2,0.5c-0.2,0.4-0.3,0.9-0.4,1.4c-0.4,0.4-0.8,0.9-1.2,1.4c-0.2,0.6-0.2,1.3-0.2,2.2c1.7,1.7,3.8,3,6.4,4
			c0.7,0.7,1.6,1.3,2.7,1.8l0.8,0.7c0.7,0.4,1.5,1.1,2.3,2l0.4,0.2l1.8,3.3l0.4,0.7c0,0.5,0.2,1.1,0.6,1.6c0.5,4.3-1.3,8-5.3,11
			c-1.2,0.7-2.7,1.2-4.5,1.3c-0.3-1.2-0.3-2.7-0.2-4.5l-0.2-2.7c1.8-0.8,2.8-2.3,2.9-4.3c-0.5-1.1-1.3-2.2-2.5-3.2l-1.4-0.4
			c-0.5-0.5-1.1-0.9-1.9-1.4l-0.6-0.2l-0.2-0.4l-0.6-0.2l-0.2-0.4c-6-2.4-8.7-6.9-8-13.7c0.4-0.4,0.8-1,1.2-1.6
			c0.4-0.5,0.8-1.2,1.2-2c0.4-0.2,0.7-0.5,1-0.9c1-0.3,1.9-0.9,2.7-1.8C513.7,205.4,513.9,205.4,514.1,205.2z M519,205.4
			c4.7,0.4,8,2.8,9.7,7.2c0.4,0.9,0.4,2,0,3c-0.9,0-2,0.1-3.3,0.4h-0.6c-0.2,0-0.4,0-0.6,0.2h-0.8l-0.8,0.2H522l-0.6-0.4
			c-0.2-0.6-0.2-1.2-0.2-2c-0.3-0.6-0.8-1-1.6-1.4l-0.8-1.1v-4.1c0.1-0.5,0-1-0.2-1.4L519,205.4z"/>
		<path class="st1" d="M557.7,205.4l0.9,0.2c0.7,2,0.9,4.1,0.4,6.5h-3.8h-0.6H554l-0.4-0.2l-0.8,0.2l-0.6-0.2v2.1v0.5v3v0.7v2.3v0.9
			v1.9v0.7l0.2,0.7l-0.2,1l0.2,0.7v1l-0.2,0.7c0.2,0.8,0.2,1.7,0.2,2.8v1v1v1.2v1.6c-0.1,0.8,0,1.7,0.2,2.8v0.7v0.5v1.2v1.2
			c-1.3,0.6-2.9,0.7-4.7,0.3c-0.6,0.2-1.3,0.4-2.1,0.4l-0.8-2.1c0.3-0.8,0.3-1.7,0.2-2.6v-3c0-0.1,0-0.2-0.2-0.3
			c0.2-1.2,0.1-2.7-0.2-4.5c0.2-0.6,0.2-1.4,0-2.3v-0.7c0.1-0.8,0.1-1.7,0-2.8v-8.7l0.2-1.2l-0.2-2.3l-0.4-0.3
			c-0.6,0-1.3,0.1-2.1,0.3c-0.7-0.2-1.5-0.2-2.4-0.2h-0.6H539l-0.6-0.2c-0.3-0.8-0.4-1.8-0.4-3V207l-0.2-0.9l0.2-0.3
			c1-0.2,2.3-0.2,3.8-0.2h0.6h2.1h3.4h0.6c1,0.1,2.2,0,3.6-0.2h0.6h1.3h0.6h0.9h1.5L557.7,205.4z"/>
		<path class="st1" d="M574.9,205.6c1.1,0.2,1.5,2,1.1,5.6c-0.2,0.7-0.7,1.2-1.5,1.6l-0.2,0.7l-0.4,0.5v3.5c0,0.2,0.1,0.3,0.2,0.5
			l-0.2,0.7v0.5c0.1,0.6,0.1,1.5,0,2.4l0.2,2.3v3v0.9l0.2,0.9l-0.2,1.2c0.2,0.6,0.3,1.4,0.2,2.3c0,0.8,0,1.7,0.2,2.8
			c0.3,0.6,1,1.1,1.9,1.4l0.4,1c-0.1,0.5-0.1,1.1,0,1.7c-0.2,0.8-0.2,1.8,0,3l-0.2,0.5c-2.8,0.3-5.1-0.8-6.8-3.1l-0.4,0.2
			c-0.1-0.9-0.5-2.1-1.1-3.5l-0.2-1c0-0.5-0.1-1.1-0.4-1.8l-0.2-2.4v-0.5c-0.3-0.8-0.4-1.7-0.4-2.8c0.1-0.5,0-1-0.2-1.4l0.2-0.5
			c-0.2-1.4-0.2-3.2,0-5.2v-4.2l0.2-0.5l0.2-0.5V214c0.2-0.8,0.4-1.7,0.6-3l0.2-0.5l0.6-1.2C570.3,207.7,572.3,206.5,574.9,205.6z
			 M579.4,206c2.3,0.4,4.5,1.6,6.4,3.5c0.1,0.5,0.4,1.1,0.9,1.6l0.4,2.8l0.2,0.4l0.2,0.5c-0.1,0.9,0.1,1.9,0.4,3l0.2,0.7v0.7
			c-0.1,0.7-0.1,1.5,0.2,2.4v0.7v0.7l0.2,0.7l-0.2,0.7c0.2,1.3,0.1,3-0.2,5.1v0.5v0.7v0.5v1v0.5c-0.4,0.9-0.6,1.9-0.6,3.2l-0.4,1
			l-0.4,1.8c-1.4,2.1-3.6,3.5-6.4,4.4c-1-1.7-1.3-3.8-1-6.1v-0.7c0.7-0.4,1.4-1.1,1.9-1.9c0.1-1.3,0-3.1-0.2-5.4l0.2-0.9l-0.4-0.5
			l0.4-0.9v-11.9c-0.4-1.1-1.1-2-2.3-2.8c0-0.4-0.1-0.8-0.2-1.2c0.2-1.1,0.2-2.3,0-3.7L579.4,206z"/>
		<path class="st1" d="M601.2,205.2c0.5,0.1,1.2,0.3,1.9,0.5c-0.1,0.8,0,1.7,0.2,2.8l-0.2,0.3v0.7v0.5v0.7v0.7v0.5l0.2,0.5l-0.2,0.9
			v1.2l0.2,0.7v0.7v1.3c0.1,0.8,0.1,1.7,0,2.8v1.4l0.2,0.5c-0.2,1.4-0.3,3.2-0.2,5.5v1.2c0.1,1,0,2.3-0.2,3.9l0.2,1.3l0.2,3.9v3.6
			l-0.6,1.2h-3.5h-0.8H598h-0.8h-0.8v-8.4l-0.2-0.5v-0.9c0.1-0.7,0.1-1.5,0-2.5l0.2-0.9c-0.1-0.8-0.1-1.7,0-2.8l-0.2-0.5l0.2-0.5
			V225c-0.2-1.2-0.2-2.6-0.2-4.4v-1.3c0.1-1,0-2.3-0.2-3.9v-2l0.2-0.7l-0.2-2.3c0.1-1,0-2.3-0.2-3.9V206c0.6,0,1.2-0.2,1.7-0.5
			C598.7,205.5,599.9,205.5,601.2,205.2z M608.8,205.4c5.4,0.4,8.2,3.1,8.3,8.2c1.2,4.3,0.1,7.6-3.5,10.1v0.7
			c0.8,0.2,1.5,0.7,2.3,1.4l0.4,0.2l0.6,1.2c0.1,0.5,0.2,1,0.4,1.4v3.6v1.4v0.5v0.9v0.7v1v3.6v0.5v0.7v0.5l-0.2,0.5
			c-0.9,0.2-2.1,0.2-3.5,0l-0.8,0.2h-0.6l-0.4-0.2l-0.6,0.2h-1c-0.3-1.2-0.3-2.7-0.2-4.4v-6.9c0.1-0.7,0-1.5-0.2-2.3v-0.5
			c-0.6-0.7-1.4-1.1-2.5-1.1l-0.4-1.1c0.1-1,0-2.2-0.2-3.5v-0.5c0.4-0.9,1.2-1.5,2.5-1.8c1.7-5,0.9-8.3-2.5-9.8
			c0.4-1.1,0.3-2.2-0.4-3.4C606.5,206.3,607.3,205.5,608.8,205.4z"/>
		<path class="st1" d="M626.4,205.4c0.9,0.1,2.1,0.1,3.4,0l0.4,0.2h1.5c0.1,0,0.3,0,0.4-0.2c0.2,0.1,0.4,0.2,0.8,0.2
			c0.1,0.9,0.4,2,1,3.3v0.5l0.6,1.4l0.2,0.5c0,0.2,0,0.4,0.2,0.5c0.1,0.5,0.3,1.2,0.6,1.9l0.2,1l0.4,0.5c0.1,0.6,0.3,1.5,0.8,2.4
			c0.1,0.5,0.3,1.1,0.6,1.8v0.5c0,0.1,0,0.2,0.2,0.3l0.4,1.4c0.1,0.5,0.3,1.1,0.8,1.7c0,0.4,0.2,0.8,0.4,1.2c0,0.5,0.2,1.1,0.6,1.8
			l0.4,1.2l0.2,1c0.1,0.3,0.3,0.6,0.6,0.9c-0.2,1.2-0.3,2.6-0.2,4.4c0,0.4-0.1,0.9-0.2,1.4l0.2,0.7l-0.2,3l0.2,0.7
			c0.2,0.9,0,1.8-0.6,2.6l0.2,0.3h-5.9l-1.1-0.7c-0.1-1.1,0.1-2.4,0.4-4l-0.2-0.3c0.2-0.8,0.2-1.7,0.2-2.8v-0.9c0-0.8,0-1.7,0-2.8
			v-1.9c-0.5-1-0.9-2.2-1.1-3.7l-0.2-0.3l-0.4-0.4l-0.4-1.4l-0.2-0.7c0-0.6-0.3-1.2-0.8-1.9v-0.5l-0.4-0.9l-0.2-0.9l-0.2-0.7
			c-0.1-0.2-0.2-0.4-0.2-0.7c-0.2-0.9-0.6-1.9-1.1-3v-0.9l-0.4-0.7c-0.1-0.8-0.5-1.7-0.9-2.8l-1-2.8v-0.5l-0.2-0.3L626.4,205.4z
			 M641.9,205.6c1.2,0.2,2.7,0.2,4.4,0h0.6h0.6l0.6,0.2c0.1,0.6,0,1.3-0.2,2.1c-0.5,0.8-0.9,1.8-1.1,3.1c-0.1,0-0.3,0.2-0.4,0.3
			l-0.2,0.5l-0.2,0.7l-0.8,1.9l-0.2,0.7l-0.2,0.5l-1.1,2.8l0.2,0.7c-0.2,0.1-0.4,0.3-0.6,0.5l-1,2.3l-0.2,1.1
			c-0.3,0.3-0.8,0.6-1.3,0.9c-0.3-0.8-0.5-1.6-0.6-2.6L640,221c0-0.2,0-0.4-0.2-0.5l-0.4-1.4l-0.6-1.2v-0.5l-0.4-0.3l-0.2-0.5
			l-0.2-0.7l-0.2-1.2c0.8-1.1,1.3-2.6,1.7-4.4l0.8-1.2l0.2-0.7l0.4-0.7l0.4-1.4L641.9,205.6z"/>
		<path class="st1" d="M669.1,205h3.8l0.6,0.2h2.1c0.4,0,0.9,0.1,1.5,0.2h0.6h2.7l1.3-0.2c0.6,0.1,1.3,0.1,2.3,0l0.4,0.2h0.6h1
			l1.1-0.2l1.1,0.4c0.4,1.9,0.2,3.9-0.8,6c-0.8,0.1-1.8,0-3-0.2l-0.4,0.2l-0.4-0.2l-0.6,0.2h-0.8h-0.6h-1c-0.6,0-1.3,0-2.1-0.2
			l-1,0.2l-0.8-0.2c-0.5,0.1-1,0.3-1.5,0.7l-0.2,3.2v0.5l0.2,1.4l-0.2,0.9l0.2,0.5l-0.2,0.9c1.7,0.5,3.8,0.6,6.3,0.3l1,0.4
			c0.1,1,0.1,2,0,3.2l0.2,0.3v0.5v0.7l-0.8,1.2h-3.4H677h-0.8h-0.8L675,226v2.1v0.5v3v0.7v0.7v0.7v0.7v2v3.1v0.7v2.3l-1,0.3
			c-1.3-0.4-2.8-0.5-4.6-0.2l-0.6,0.2l-0.8-0.3c-0.2-1-0.1-2.3,0.2-3.9l-0.2-0.9l0.2-0.5v-5.5v-0.9v-25L669.1,205z"/>
		<path class="st1" d="M699.8,205.6c1.2-0.3,2.5-0.2,4,0.2l0.4,2.8c-0.1,0.4-0.2,0.8-0.2,1.4l0.2,0.4v0.5v0.5v0.9v3v0.5v1.7v0.9v2.4
			v3.1v0.7v1.2v0.5v0.5v0.5v2.3v0.5v0.5v2.1v0.5v3v0.7v3.5v0.5v1.4c-1,0-2.3,0.2-3.8,0.5c-0.9-0.3-1.9-0.4-3-0.4l-0.2-1v-10
			l-0.2-0.5l0.2-0.9l-0.2-1l0.2-0.9l-0.2-1c-0.1-0.6,0-1.4,0.2-2.3l-0.2-0.4v-5.2v-0.7v-3c-0.2-1.4-0.2-3.2,0-5.4l-0.2-0.9l0.2-0.5
			l-0.2-1V206l0.8-0.5c0.6,0.1,1.2,0.1,1.9-0.2L699.8,205.6z"/>
		<path class="st1" d="M732.2,205.4l0.9,0.2c0.7,2,0.9,4.1,0.4,6.5h-3.8h-0.6h-0.6l-0.4-0.2l-0.8,0.2l-0.6-0.2v2.1v0.5v3v0.7v2.3
			v0.9v1.9v0.7l0.2,0.7l-0.2,1l0.2,0.7v1l-0.2,0.7c0.2,0.8,0.2,1.7,0.2,2.8v1v1v1.2v1.6c-0.1,0.8,0,1.7,0.2,2.8v0.7v0.5v1.2v1.2
			c-1.3,0.6-2.9,0.7-4.7,0.3c-0.6,0.2-1.3,0.4-2.1,0.4l-0.8-2.1c0.3-0.8,0.3-1.7,0.2-2.6v-3c0-0.1,0-0.2-0.2-0.3
			c0.2-1.2,0.1-2.7-0.2-4.5c0.2-0.6,0.2-1.4,0-2.3v-0.7c0.1-0.8,0.1-1.7,0-2.8v-8.7l0.2-1.2l-0.2-2.3l-0.4-0.3
			c-0.6,0-1.3,0.1-2.1,0.3c-0.7-0.2-1.5-0.2-2.4-0.2H714h-0.6l-0.6-0.2c-0.3-0.8-0.4-1.8-0.4-3V207l-0.2-0.9l0.2-0.3
			c1-0.2,2.3-0.2,3.8-0.2h0.6h2.1h3.4h0.6c1,0.1,2.2,0,3.6-0.2h0.6h1.3h0.6h0.9h1.5L732.2,205.4z"/>
		<path class="st1" d="M745.7,242.9c-1.4,0.2-2.8-0.1-4-0.9v-2.1v-0.5v-3v-0.7v-0.5c0.1-0.6,0-1.2-0.2-1.9c0.2-0.6,0.2-1.4,0-2.3
			c0.2-0.7,0.2-1.5,0-2.4c0.1-0.6,0-1.3-0.2-2.1c0.1-0.3,0.1-0.7,0-1l0.2-0.7c-0.2-0.7-0.3-1.5-0.2-2.4c-0.1-0.9,0-2,0.2-3.3v-0.5
			l0.8,0.2c0.2,0.5,0.5,0.9,0.9,1.4c0.3,1.6,1.1,3.2,2.2,4.7l0.2,0.7l0.8,1.2l0.9,2.1l0.2,0.3l0.6,0.5v0.7l0.8,0.9l0.2,0.9l0.4,0.7
			c0,0.3,0.2,0.6,0.4,0.9c-0.6,2-0.6,4.4,0,7l-0.2,0.3l-0.2,1.4L745.7,242.9z M761.4,242.4c-1.1,0.2-2.3-0.1-3.4-0.9
			c-0.3-1.2-0.9-2.5-1.9-4l-0.2-0.7l-0.4-0.3c-0.2-0.8-0.7-1.7-1.3-2.6l-0.2-0.5l-0.4-0.5c-0.2-0.8-0.6-1.6-1.3-2.4V230l-0.4-0.7
			l-0.6-0.5c-0.2-0.8-0.6-1.6-1.3-2.3c-0.1-0.4-0.2-0.7-0.4-1c0-0.1,0-0.2-0.2-0.3c-0.3-0.9-0.8-1.8-1.5-2.6v-0.5l-0.6-0.9l-0.6-0.9
			l-0.6-0.9c-0.2-0.9-0.7-1.8-1.5-2.6v-0.5c-0.4-0.5-0.7-1.1-1.1-1.7l-0.4-0.4l-0.2-0.4c-0.1-0.8-0.6-1.6-1.3-2.4l-0.4-1.7
			c0.1-0.6,0.1-1.2,0-1.9v-1.2c1-0.3,2.1-0.3,3.4,0l1.3-0.3h0.8l0.6,0.2c0.3,0.9,0.9,2.1,1.9,3.5c0,0.1,0,0.2,0.2,0.3
			c0,0.2,0.1,0.4,0.2,0.5c0.2,0.5,0.4,1.1,0.8,1.7l0.4,0.5c0,0.2,0.1,0.3,0.2,0.5l0.4,0.9c0.2,0.6,0.6,1.2,1.1,1.9v0.5l0.4,0.5
			c0.1,0.3,0.3,0.7,0.6,1l0.4,1l0.4,0.9l0.6,1l0.6,1l0.4,0.7l0.6,1l0.4,1l0.6,1c0.4,0.9,0.9,1.8,1.7,3c0.2,0.7,0.5,1.4,1.1,2.1
			c0,0.4,0.2,0.8,0.6,1.4l0.8,1.1c0.1,0.4,0.2,0.8,0.4,1.2v4.4l0.2,0.3l-0.2,0.5v2.1C761.7,242.1,761.5,242.2,761.4,242.4z
			 M761.8,226.1l-1.5-0.5V224l-0.8-1.6l-0.8-1.8l-0.4-0.3l-0.2-0.5l-0.4-0.3c-0.2-0.5-0.4-1.1-0.8-1.8l-0.4-0.5
			c-0.1-0.2-0.2-0.4-0.4-0.5l-0.2-0.7l-0.2-0.9l-0.6-0.5l-0.2-0.7l-0.6-0.5c0-0.4-0.1-0.8-0.2-1.2v-1.4c-0.1-0.8,0-1.8,0.2-3
			c-0.1-0.5-0.1-1.1,0-1.7l1.1-0.2c1.2,0.1,2.6,0,4.3-0.2h0.6c0,0.1,0.2,0.2,0.4,0.4c0.4,1.4,0.5,3.2,0.2,5.2l0.2,0.5v3
			c0.1,0.5,0.1,1.1,0,1.8c0,0.5,0,1,0.2,1.4v0.5v1.6v0.7l0.2,2.3l0.2,2.3L761.8,226.1z"/>
		<path class="st1" d="M772.3,205h2.5h0.6h1.5l0.6,0.2h0.6c0.6-0.1,1.4,0,2.3,0.2l0.4-0.2l1.3,0.2h0.6c0.8-0.1,1.6-0.1,2.7,0h0.8
			l1-0.2c0.9,0.2,1.9,0.2,3.3,0.2h1.2c0,0.3,0.2,0.6,0.4,0.9c-0.4,0.7-0.4,1.5,0,2.3l-0.2,1.2l0.2,0.7l-0.6,0.9
			c-1.3,0.2-2.9,0.2-5,0c-0.6,0.1-1.3,0.1-2.3,0c-0.8,0.2-1.7,0.2-2.7,0.2c-0.6-0.2-1.2-0.3-1.9-0.4h-0.8c-0.2,1-0.3,2.2-0.2,3.6
			v0.5v0.5c0,0.5-0.1,1.2-0.2,2.1v0.7l-0.4,0.5v0.7l1,0.4c1.3-0.3,2.9-0.5,4.6-0.4h0.6h0.6h1.3l0.6,0.5v3.5v1.4l-0.2,0.3l-0.8,0.7
			c-0.7-0.1-1.4-0.1-2.3,0.2l-0.6-0.2c-0.5,0.1-1.2,0.1-1.9,0h-0.6h-0.6H779l-0.6-0.3v3.2v3.2l-0.2,1.3v0.5l-0.4,1.4l3.9-0.2h0.6
			l0.6,0.2h0.8h2.1h0.6h2.5l1-0.2c0.6,0.1,1.2,0.3,1.7,0.7l-0.2,0.5v3.5v0.5l-0.2,0.5v0.9l-0.2,0.5c-0.1,0-0.3,0.1-0.4,0.4
			c-0.9-0.2-1.9-0.2-3.1-0.2h-0.6h-0.6H785l-0.6-0.2H778h-1.9l-2.1-0.3h-0.8l-0.8,0.3l-1.1-0.2c-0.2-0.8-0.2-1.7-0.2-2.8v-24.1
			c0-0.8,0.1-1.8,0.2-3.2V210c0.1-1,0.1-2.3-0.2-3.9C771.4,205.9,771.8,205.5,772.3,205z"/>
		<path class="st1" d="M805.3,231h1.6c0.3,2.8,1.6,4.8,3.7,5.9c0.4,1.7,0.4,3.8,0,6.5l-1.4-0.4h-0.6c-4.3-1.6-7.1-4.7-8.4-9.4
			C800,231.8,801.7,230.9,805.3,231z M807.6,205.2c0.7,0,1.5,0.2,2.3,0.5c-0.1,0.8,0,1.8,0.2,2.9c-0.2,0.6-0.2,1.3-0.2,2l-0.2,0.3
			l0.2,0.5c-0.2,0.4-0.3,0.9-0.4,1.4c-0.4,0.4-0.8,0.9-1.2,1.4c-0.2,0.6-0.2,1.3-0.2,2.2c1.7,1.7,3.8,3,6.4,4
			c0.7,0.7,1.6,1.3,2.7,1.8l0.8,0.7c0.7,0.4,1.5,1.1,2.3,2l0.4,0.2l1.8,3.3l0.4,0.7c0,0.5,0.2,1.1,0.6,1.6c0.5,4.3-1.3,8-5.3,11
			c-1.2,0.7-2.7,1.2-4.5,1.3c-0.3-1.2-0.3-2.7-0.2-4.5l-0.2-2.7c1.8-0.8,2.8-2.3,2.9-4.3c-0.5-1.1-1.3-2.2-2.5-3.2l-1.4-0.4
			c-0.5-0.5-1.1-0.9-1.9-1.4l-0.6-0.2l-0.2-0.4l-0.6-0.2l-0.2-0.4c-6-2.4-8.7-6.9-8-13.7c0.4-0.4,0.8-1,1.2-1.6
			c0.4-0.5,0.8-1.2,1.2-2c0.4-0.2,0.7-0.5,1-0.9c1-0.3,1.9-0.9,2.7-1.8C807.2,205.4,807.4,205.4,807.6,205.2z M812.4,205.4
			c4.7,0.4,8,2.8,9.7,7.2c0.4,0.9,0.4,2,0,3c-0.9,0-2,0.1-3.3,0.4h-0.6c-0.2,0-0.4,0-0.6,0.2h-0.8l-0.8,0.2h-0.6L815,216
			c-0.1-0.6-0.2-1.2-0.2-2c-0.3-0.6-0.8-1-1.6-1.4l-0.8-1.1v-4.1c0.1-0.5,0-1-0.2-1.4L812.4,205.4z"/>
		<path class="st1" d="M836.4,231h1.6c0.3,2.8,1.6,4.8,3.7,5.9c0.4,1.7,0.4,3.8,0,6.5l-1.4-0.4h-0.6c-4.3-1.6-7.1-4.7-8.4-9.4
			C831.1,231.8,832.8,230.9,836.4,231z M838.8,205.2c0.7,0,1.5,0.2,2.3,0.5c-0.1,0.8,0,1.8,0.2,2.9c-0.2,0.6-0.2,1.3-0.2,2l-0.2,0.3
			l0.2,0.5c-0.2,0.4-0.3,0.9-0.4,1.4c-0.4,0.4-0.8,0.9-1.2,1.4c-0.2,0.6-0.2,1.3-0.2,2.2c1.7,1.7,3.8,3,6.4,4
			c0.7,0.7,1.6,1.3,2.7,1.8l0.8,0.7c0.7,0.4,1.5,1.1,2.3,2l0.4,0.2l1.8,3.3l0.4,0.7c0,0.5,0.2,1.1,0.6,1.6c0.5,4.3-1.3,8-5.3,11
			c-1.2,0.7-2.7,1.2-4.5,1.3c-0.3-1.2-0.3-2.7-0.2-4.5l-0.2-2.7c1.8-0.8,2.8-2.3,2.9-4.3c-0.5-1.1-1.3-2.2-2.5-3.2l-1.4-0.4
			c-0.5-0.5-1.1-0.9-1.9-1.4l-0.6-0.2l-0.2-0.4l-0.6-0.2l-0.2-0.4c-6-2.4-8.7-6.9-8-13.7c0.4-0.4,0.8-1,1.2-1.6
			c0.4-0.5,0.8-1.2,1.2-2c0.4-0.2,0.7-0.5,1-0.9c1-0.3,1.9-0.9,2.7-1.8C838.4,205.4,838.6,205.4,838.8,205.2z M843.6,205.4
			c4.7,0.4,8,2.8,9.8,7.2c0.4,0.9,0.4,2,0,3c-0.9,0-2,0.1-3.3,0.4h-0.6c-0.2,0-0.4,0-0.6,0.2h-0.8l-0.8,0.2h-0.6l-0.6-0.4
			c-0.2-0.6-0.2-1.2-0.2-2c-0.3-0.6-0.8-1-1.6-1.4l-0.8-1.1v-4.1c0.1-0.5,0-1-0.2-1.4L843.6,205.4z"/>
	</g>
	<g class="st2">
		<path class="st3" d="M186.1,77.6l5.6,21.1h-15.2v92.2h-23.1V98.7h-15.2l5.9-21.1H186.1z"/>
		<path class="st3" d="M256.5,190.9h-23.1v-45.3h-12.3v45.3H198V77.6h23.1V126h12.3V77.6h23.1V190.9z"/>
		<path class="st3" d="M265.9,77.6H310l3.9,21.1h-24.7v26.9h18.7v19.5h-18.7v24.7H313l-3.9,21.1H266L265.9,77.6L265.9,77.6z"/>
		<path class="st3" d="M339.6,190.9l-4.1-21.1h24.4c1.8,0,2.7-0.8,2.7-2.3v-20.6c0-1.6-0.3-2.5-0.9-2.8s-1.7-0.5-3.3-0.5h-11.7
			c-1.7,0-3.3-0.1-4.8-0.4s-2.9-0.9-4.1-1.8s-2.1-2.2-2.8-3.9c-0.7-1.7-1-3.9-1-6.7V92.4c0-4.5,1.2-8,3.7-10.7c2.4-2.7,6.3-4,11.6-4
			h31.2l3.9,21.1h-25.6c-1.9,0-2.8,0.8-2.8,2.5v20.6c0,1.1,0.3,1.9,0.9,2.3s1.4,0.6,2.6,0.6h14.2c3.6,0,6.4,0.9,8.4,2.6
			c1.9,1.7,2.9,4.7,2.9,9v37.3c0,6.3-1.3,10.7-3.8,13.3c-2.6,2.6-7.1,3.9-13.5,3.9H339.6L339.6,190.9z"/>
		<path class="st3" d="M411.9,190.9c-6.6,0-11.1-1.4-13.8-4.1c-2.6-2.7-3.9-7.2-3.9-13.4V77.6h23.1v90.9c0,0.8,0.1,1.5,0.4,1.9
			s0.9,0.6,1.8,0.6h8c0.9,0,1.5-0.2,1.8-0.6s0.4-1,0.4-1.9V77.6h23.1v95.8c0,6.2-1.3,10.7-3.9,13.4c-2.6,2.7-7.2,4.1-13.8,4.1
			L411.9,190.9L411.9,190.9z"/>
		<path class="st3" d="M506.7,77.6c4.5,0,7.8,1.3,10.1,3.8c2.2,2.5,3.4,5.8,3.4,10v54.2c0,2.2-0.2,4.2-0.7,6s-1.3,3.4-2.6,4.8
			s-2.9,2.4-5,3.2c-2.1,0.8-4.7,1.2-7.8,1.2h-19.4V191h-22.5V77.6H506.7L506.7,77.6z M484.7,97.5V142H496c0.9,0,1.5-0.2,1.8-0.5
			c0.3-0.4,0.4-1,0.4-1.8v-40c0-1.5-0.7-2.2-2-2.2H484.7L484.7,97.5z"/>
		<path class="st3" d="M529.1,77.6h44.1l3.9,21.1h-24.7v26.9h18.8v19.5h-18.8v24.7h23.8l-3.9,21.1h-43.1L529.1,77.6L529.1,77.6z"/>
		<path class="st3" d="M643.1,144.8c0,2.5-0.9,4.8-2.6,6.9c-1.7,2.1-4.2,3.1-7.6,3.1l11.9,36.1h-23.4l-10.9-36.1h-3v36.1h-22.7V77.6
			h43c5.3,0,9.2,1.3,11.6,4c2.4,2.7,3.7,6.2,3.7,10.7V144.8z M607.5,97.5v39.1h11.1c1.5,0,2.2-0.8,2.2-2.3V99.9
			c0-1.6-0.7-2.3-2.2-2.3h-11.1V97.5z"/>
		<path class="st3" d="M670.7,190.9l-4.1-21.1H691c1.8,0,2.7-0.8,2.7-2.3v-20.6c0-1.6-0.3-2.5-0.9-2.8s-1.7-0.5-3.3-0.5h-11.7
			c-1.7,0-3.3-0.1-4.8-0.4s-2.9-0.9-4.1-1.8c-1.2-0.9-2.1-2.2-2.8-3.9c-0.7-1.7-1-3.9-1-6.7V92.4c0-4.5,1.2-8,3.7-10.7
			c2.4-2.7,6.3-4,11.6-4h31.3l3.9,21.1H690c-1.9,0-2.8,0.8-2.8,2.5v20.6c0,1.1,0.3,1.9,0.9,2.3c0.6,0.4,1.4,0.6,2.6,0.6h14.2
			c3.6,0,6.4,0.9,8.4,2.6c1.9,1.7,2.9,4.7,2.9,9v37.3c0,6.3-1.3,10.7-3.8,13.3c-2.6,2.6-7.1,3.9-13.5,3.9H670.7L670.7,190.9z"/>
		<path class="st3" d="M784.1,174.8c0,2.2-0.3,4.2-0.8,6.2c-0.5,1.9-1.4,3.6-2.7,5.1s-2.9,2.6-5,3.5s-4.7,1.3-7.8,1.3h-26.2
			c-3.1,0-5.7-0.4-7.8-1.3s-3.8-2.1-5-3.5c-1.3-1.5-2.1-3.1-2.7-5.1c-0.5-1.9-0.8-4-0.8-6.2V92.3c0-4.5,1.2-8,3.7-10.7
			c2.4-2.7,6.3-4,11.6-4h28.1c5.3,0,9.2,1.3,11.6,4c2.4,2.7,3.7,6.2,3.7,10.7L784.1,174.8L784.1,174.8z M750.2,97.5
			c-1.4,0-2,0.7-2,2.2v69.1c0,0.8,0.1,1.4,0.4,1.8c0.3,0.4,0.9,0.5,1.8,0.5h8.6c0.9,0,1.5-0.2,1.8-0.5c0.3-0.4,0.4-1,0.4-1.8V99.7
			c0-1.5-0.7-2.2-2-2.2H750.2L750.2,97.5z"/>
		<path class="st3" d="M793.5,77.6h23.3v92.2h22.8l-3.9,21.1h-42.2L793.5,77.6L793.5,77.6z"/>
		<path class="st3" d="M904.5,173.4c0,6.2-1.3,10.7-3.9,13.4c-2.6,2.7-7.2,4.1-13.8,4.1h-40.2V77.6H891c4.5,0,7.8,1.3,10.1,3.8
			c2.2,2.5,3.4,5.8,3.4,10V173.4z M869.1,97.5V171h10.6c0.9,0,1.5-0.2,1.8-0.5c0.3-0.4,0.4-1,0.4-1.8V99.6c0-1.5-0.7-2.2-2-2.2
			L869.1,97.5L869.1,97.5z"/>
		<path class="st3" d="M913.8,77.6h22.7v113.3h-22.7V77.6z"/>
		<path class="st3" d="M945.9,77.6H990l3.9,21.1h-24.7v26.9H988v19.5h-18.8v24.7H993l-3.9,21.1H946L945.9,77.6L945.9,77.6z"/>
		<path class="st3" d="M1059.9,144.8c0,2.5-0.9,4.8-2.6,6.9s-4.2,3.1-7.6,3.1l11.9,36.1h-23.4l-10.9-36.1h-3v36.1h-22.7V77.6h43
			c5.3,0,9.2,1.3,11.6,4s3.7,6.2,3.7,10.7V144.8z M1024.3,97.5v39.1h11.1c1.5,0,2.2-0.8,2.2-2.3V99.9c0-1.6-0.7-2.3-2.2-2.3h-11.1
			V97.5z"/>
	</g>
	<g>
		<path class="st1" d="M178.3,192.7h-26.8v-92.2h-15.7l7-24.7h44.7l6.6,24.7h-15.7L178.3,192.7L178.3,192.7z M155.2,189.1h19.5V96.9
			h14.6l-4.7-17.5h-39.1l-4.9,17.5h14.6L155.2,189.1L155.2,189.1z"/>
		<path class="st1" d="M258.3,192.7h-26.8v-45.3h-8.7v45.3H196V75.8h26.8v48.4h8.7V75.8h26.8V192.7z M235.2,189.1h19.5V79.4h-19.5
			v48.4h-16V79.4h-19.5V189h19.5v-45.3h16V189.1L235.2,189.1z"/>
		<path class="st1" d="M310.5,192.7H264V75.8h47.4l4.6,24.7h-25v23.2h18.7v23.2H291v21h24.1L310.5,192.7z M267.7,189.1h39.8
			l3.2-17.5h-23.4v-28.3H306v-15.9h-18.7V96.9h24.3l-3.2-17.5h-40.7L267.7,189.1L267.7,189.1z"/>
		<path class="st1" d="M367.5,192.7H338l-4.8-24.7h26.6c0.6,0,0.8-0.1,0.8-0.1s0.1-0.1,0.1-0.4v-20.6c0-0.7-0.1-1.1-0.1-1.3
			c-0.3-0.1-0.9-0.2-2.3-0.2h-11.7c-1.8,0-3.5-0.1-5.1-0.4c-1.8-0.3-3.4-1-4.9-2.2c-1.4-1.1-2.6-2.7-3.4-4.7
			c-0.8-1.9-1.2-4.3-1.2-7.4V92.3c0-4.9,1.4-8.9,4.2-11.9c2.8-3,7.2-4.6,13-4.6H382l4.6,24.7h-27.8c-1,0-1,0.2-1,0.7v20.6
			c0,0.6,0.1,0.8,0.1,0.9c0,0,0.4,0.2,1.5,0.2h14.2c4.1,0,7.3,1,9.6,3c2.3,2.1,3.5,5.6,3.5,10.3v37.3c0,6.8-1.4,11.6-4.3,14.6
			C379.4,191.3,374.6,192.7,367.5,192.7z M341.1,189.1h26.5c5.9,0,10-1.1,12.2-3.4c2.2-2.2,3.3-6.3,3.3-12v-37.3
			c0-3.7-0.8-6.3-2.3-7.6c-1.6-1.4-4-2.1-7.1-2.1h-14.2c-1.6,0-2.8-0.3-3.7-1c-1.1-0.8-1.6-2-1.6-3.8v-20.6c0-2.7,1.8-4.3,4.6-4.3
			h23.4L379,79.5h-29.7c-4.8,0-8.2,1.1-10.3,3.4c-2.1,2.3-3.2,5.4-3.2,9.5v38.4c0,2.6,0.3,4.6,0.9,6s1.3,2.4,2.3,3.2
			c1,0.8,2,1.2,3.2,1.4c1.4,0.2,2.9,0.4,4.5,0.4h11.7c1.9,0,3.2,0.2,4.1,0.7c1.9,1,1.9,3.6,1.9,4.4v20.6c0,2.6-1.7,4.2-4.5,4.2
			h-22.2L341.1,189.1z"/>
		<path class="st1" d="M435.2,192.7h-23.3c-7.1,0-12.1-1.5-15.1-4.6c-2.9-3-4.4-8-4.4-14.7V75.8h26.8v92.8c0,0.3,0,0.5,0,0.7
			c0.1,0,0.2,0,0.3,0h8c0.1,0,0.2,0,0.3,0c0-0.1,0-0.4,0-0.7V75.8h26.8v97.6c0,6.7-1.5,11.6-4.4,14.7S442.3,192.7,435.2,192.7z
			 M396.1,79.4v94c0,5.7,1.1,9.8,3.4,12.2c2.2,2.3,6.4,3.5,12.4,3.5h23.3c6,0,10.2-1.2,12.4-3.5c2.3-2.3,3.4-6.4,3.4-12.2v-94h-19.5
			v89.1c0,1.2-0.2,2.1-0.7,2.8c-0.6,1-1.7,1.5-3.3,1.5h-8c-1.6,0-2.7-0.5-3.3-1.5c-0.4-0.7-0.7-1.6-0.7-2.8V79.4H396.1z"/>
		<path class="st1" d="M486.5,192.7h-26.1V75.8h46.4c5,0,8.8,1.5,11.4,4.4c2.5,2.8,3.8,6.6,3.8,11.2v54.2c0,2.3-0.3,4.5-0.8,6.5
			c-0.5,2.1-1.6,4-3,5.5c-1.4,1.6-3.4,2.8-5.7,3.7c-2.3,0.9-5.1,1.3-8.5,1.3h-17.6v30.1H486.5z M464,189.1h18.9v-30.2h21.2
			c2.9,0,5.3-0.4,7.2-1.1c1.8-0.7,3.3-1.6,4.3-2.7c1.1-1.1,1.8-2.4,2.2-4c0.4-1.7,0.6-3.5,0.6-5.6V91.3c0-3.7-0.9-6.6-2.9-8.8
			c-1.9-2.1-4.8-3.1-8.7-3.1H464V189.1L464,189.1z M496,143.8h-13.1V95.6h13.2c2.4,0,3.8,1.5,3.8,4v40c0,1.2-0.2,2.2-0.7,2.9
			C498.3,143.8,496.5,143.8,496,143.8z M486.5,140.2h9.4c0.1,0,0.3,0,0.3,0c0-0.1,0-0.3,0-0.5v-40c0-0.2,0-0.3,0-0.4
			c0,0-0.1,0-0.2,0h-9.6L486.5,140.2L486.5,140.2z"/>
		<path class="st1" d="M573.7,192.7h-46.5V75.8h47.4l4.6,24.7h-25.1v23.2h18.8v23.2h-18.8v21h24.1L573.7,192.7z M530.9,189.1h39.8
			l3.2-17.5h-23.4v-28.3h18.8v-15.9h-18.8V96.9h24.3l-3.2-17.5h-40.7L530.9,189.1L530.9,189.1z"/>
		<path class="st1" d="M647.4,192.7h-27.3l-10.7-35.4v35.4H583V75.8h44.8c5.8,0,10.2,1.5,13,4.6c2.8,3,4.2,7,4.2,11.9v52.5
			c0,2.9-1,5.6-3,8c-1.6,2-3.8,3.2-6.5,3.6L647.4,192.7z M622.8,189.1h19.6L630.5,153h2.5c2.8,0,4.8-0.8,6.2-2.5
			c1.5-1.8,2.2-3.6,2.2-5.7V92.3c0-4-1-7.1-3.2-9.5c-2.1-2.3-5.5-3.4-10.3-3.4h-41.1V189h19v-36h6.1L622.8,189.1z M618.6,138.3
			h-12.9V95.6h12.9c2.5,0,4,1.6,4,4.2v34.4C622.6,136.7,621.1,138.3,618.6,138.3z M609.3,134.7h9.3c0.2,0,0.3,0,0.3,0s0-0.2,0-0.5
			V99.8c0-0.3,0-0.5-0.1-0.5c0,0-0.1,0-0.3,0h-9.3L609.3,134.7L609.3,134.7z"/>
		<path class="st1" d="M698.7,192.7h-29.5l-4.8-24.7H691c0.6,0,0.8-0.1,0.8-0.1s0.1-0.1,0.1-0.4v-20.6c0-0.7-0.1-1.1-0.1-1.3
			c-0.3-0.1-0.9-0.2-2.3-0.2h-11.7c-1.8,0-3.5-0.1-5.1-0.4c-1.8-0.3-3.4-1-4.9-2.2c-1.4-1.1-2.6-2.7-3.4-4.7
			c-0.8-1.9-1.2-4.3-1.2-7.4V92.3c0-4.9,1.4-8.9,4.2-11.9s7.2-4.6,13-4.6h32.8l4.6,24.7H690c-1,0-1,0.2-1,0.7v20.6
			c0,0.6,0.1,0.8,0.1,0.9c0,0,0.4,0.2,1.5,0.2h14.2c4.1,0,7.3,1,9.6,3c2.3,2.1,3.5,5.6,3.5,10.3v37.3c0,6.8-1.4,11.6-4.3,14.6
			C710.6,191.3,705.7,192.7,698.7,192.7z M672.2,189.1h26.5c5.9,0,10-1.1,12.2-3.4c2.2-2.2,3.3-6.3,3.3-12v-37.3
			c0-3.7-0.8-6.3-2.3-7.6c-1.6-1.4-4-2.1-7.2-2.1h-14.2c-1.6,0-2.8-0.3-3.7-1c-1.1-0.8-1.6-2-1.6-3.8v-20.6c0-2.7,1.8-4.3,4.6-4.3
			h23.4L710,79.5h-29.7c-4.8,0-8.2,1.1-10.3,3.4s-3.2,5.4-3.2,9.5v38.4c0,2.6,0.3,4.6,0.9,6c0.6,1.4,1.3,2.4,2.3,3.2
			c1,0.8,2,1.2,3.2,1.4c1.4,0.2,2.9,0.4,4.5,0.4h11.7c1.9,0,3.2,0.2,4.1,0.7c1.9,1,1.9,3.6,1.9,4.4v20.6c0,2.6-1.7,4.2-4.5,4.2
			h-22.2L672.2,189.1z"/>
		<path class="st1" d="M767.9,192.7h-26.2c-3.4,0-6.2-0.5-8.5-1.5s-4.2-2.3-5.7-4c-1.4-1.7-2.4-3.6-3-5.8c-0.6-2.1-0.8-4.3-0.8-6.6
			V92.3c0-4.9,1.4-8.9,4.2-11.9s7.2-4.6,13-4.6H769c5.8,0,10.2,1.5,13,4.6c2.8,3,4.2,7,4.2,11.9v82.5c0,2.3-0.3,4.6-0.8,6.6
			c-0.6,2.2-1.6,4.1-3,5.8c-1.4,1.7-3.3,3-5.7,4C774.1,192.2,771.3,192.7,767.9,192.7z M740.7,79.4c-4.8,0-8.2,1.1-10.3,3.4
			s-3.2,5.4-3.2,9.5v82.5c0,2,0.2,3.9,0.7,5.7c0.4,1.7,1.2,3.1,2.3,4.4c1.1,1.2,2.5,2.3,4.3,3c1.8,0.8,4.2,1.2,7.1,1.2h26.2
			c2.9,0,5.3-0.4,7.1-1.2c1.8-0.8,3.3-1.8,4.3-3c1.1-1.2,1.8-2.7,2.3-4.4c0.5-1.8,0.7-3.7,0.7-5.7V92.3c0-4-1-7.1-3.2-9.5
			c-2.1-2.3-5.5-3.4-10.3-3.4H740.7z M759,172.9h-8.6c-0.6,0-2.4,0-3.3-1.3c-0.5-0.7-0.7-1.6-0.7-2.8V99.7c0-2.5,1.5-4,3.8-4h8.9
			c2.4,0,3.8,1.5,3.8,4v69.1c0,1.2-0.2,2.2-0.7,2.9C761.3,172.9,759.6,172.9,759,172.9z M750.1,169.2c0.1,0,0.2,0,0.3,0h8.6
			c0.1,0,0.3,0,0.3,0c0-0.1,0-0.3,0-0.5V99.6c0-0.2,0-0.3,0-0.4c0,0-0.1,0-0.2,0h-8.9c-0.1,0-0.2,0-0.2,0s0,0.2,0,0.4v69.1
			C750,168.9,750,169.1,750.1,169.2z"/>
		<path class="st1" d="M837.2,192.7h-45.5V75.8h26.9V168h23.2L837.2,192.7z M795.3,189.1h38.9l3.2-17.5H815V79.4h-19.6v109.7H795.3z
			"/>
		<path class="st1" d="M886.8,192.7h-42V75.8H891c5,0,8.8,1.5,11.4,4.4c2.5,2.8,3.8,6.6,3.8,11.2v82c0,6.7-1.5,11.6-4.4,14.7
			C898.9,191.2,894,192.7,886.8,192.7z M848.5,189.1h38.3c6,0,10.2-1.2,12.4-3.5c2.3-2.3,3.4-6.4,3.4-12.2v-82
			c0-3.7-0.9-6.6-2.9-8.8c-1.9-2.1-4.8-3.1-8.7-3.1h-42.6L848.5,189.1L848.5,189.1z M879.8,172.9h-12.4V95.7H880
			c2.4,0,3.8,1.5,3.8,4v69.1c0,1.2-0.2,2.2-0.7,2.9C882.1,172.9,880.4,172.9,879.8,172.9z M871,169.2h8.8c0.1,0,0.3,0,0.3,0
			c0-0.1,0-0.3,0-0.5V99.6c0-0.2,0-0.3,0-0.4c0,0-0.1,0-0.2,0h-9L871,169.2L871,169.2z"/>
		<path class="st1" d="M938.3,192.7H912V75.8h26.3V192.7z M915.7,189.1h19V79.4h-19V189.1z"/>
		<path class="st1" d="M990.5,192.7H944V75.8h47.4l4.6,24.7h-25v23.2h18.8v23.2H971v21h24.1L990.5,192.7z M947.7,189.1h39.8
			l3.2-17.5h-23.4v-28.3h18.8v-15.9h-18.8V96.9h24.3l-3.2-17.5h-40.7L947.7,189.1L947.7,189.1z"/>
		<path class="st1" d="M1064.2,192.7h-27.3l-10.7-35.4v35.4h-26.3V75.8h44.8c5.8,0,10.2,1.5,13,4.6c2.8,3,4.2,7,4.2,11.9v52.5
			c0,2.9-1,5.6-3,8c-1.6,2-3.8,3.2-6.5,3.6L1064.2,192.7z M1039.6,189.1h19.6l-11.9-36.1h2.5c2.8,0,4.8-0.8,6.2-2.5
			c1.5-1.8,2.2-3.6,2.2-5.7V92.3c0-4-1-7.1-3.2-9.5c-2.1-2.3-5.5-3.4-10.3-3.4h-41.2V189h19v-36h6.1L1039.6,189.1z M1035.4,138.3
			h-12.9V95.6h12.9c2.5,0,4,1.6,4,4.2v34.4C1039.4,136.7,1037.9,138.3,1035.4,138.3z M1026.1,134.7h9.3c0.2,0,0.3,0,0.3,0
			s0-0.2,0-0.5V99.8c0-0.3,0-0.5-0.1-0.5c0,0-0.1,0-0.3,0h-9.3L1026.1,134.7L1026.1,134.7z"/>
	</g>
</g>
</svg>
