<?xml version="1.0" encoding="utf-8"?>
<!-- Generator: Adobe Illustrator 15.1.0, SVG Export Plug-In . SVG Version: 6.00 Build 0)  -->
<!DOCTYPE svg PUBLIC "-//W3C//DTD SVG 1.1//EN" "http://www.w3.org/Graphics/SVG/1.1/DTD/svg11.dtd">
<svg version="1.1" id="Layer_1" xmlns="http://www.w3.org/2000/svg" xmlns:xlink="http://www.w3.org/1999/xlink" x="0px" y="0px"
	 width="1200px" height="900px" viewBox="0 0 1200 900" enable-background="new 0 0 1200 900" xml:space="preserve">
<g>
	<g>
		<rect x="512.668" y="336.61" fill="#E12027" width="174.662" height="48.214"/>
		<g>
			<path fill="#FFFFFF" d="M520.172,378.56v-35.687h9.002c1.35,0,2.475,0.158,3.369,0.471c0.896,0.316,1.619,0.85,2.17,1.604
				c0.549,0.755,0.941,1.744,1.178,2.971c0.236,1.226,0.354,2.75,0.354,4.572c0,1.383-0.039,2.498-0.117,3.346
				c-0.08,0.848-0.213,1.541-0.4,2.074c-0.189,0.536-0.426,0.952-0.707,1.251c-0.283,0.298-0.629,0.571-1.039,0.823v0.332
				c0.473,0.281,0.881,0.558,1.227,0.824c0.346,0.266,0.619,0.675,0.826,1.225c0.203,0.552,0.352,1.336,0.447,2.356
				c0.096,1.024,0.141,2.429,0.141,4.22c0,1.823-0.111,3.348-0.33,4.572c-0.221,1.226-0.598,2.217-1.131,2.971
				s-1.242,1.289-2.121,1.603c-0.881,0.314-1.98,0.473-3.299,0.473H520.172z M528.326,358.099c0.406,0,0.746-0.069,1.014-0.21
				c0.266-0.143,0.477-0.395,0.635-0.756c0.156-0.359,0.268-0.855,0.33-1.484c0.063-0.628,0.096-1.445,0.096-2.451
				c0-1.163-0.041-2.059-0.119-2.688c-0.078-0.627-0.205-1.1-0.377-1.414c-0.174-0.314-0.395-0.503-0.66-0.566
				c-0.268-0.061-0.59-0.094-0.967-0.094h-2.311v9.663H528.326z M528.607,372.948c0.408,0,0.746-0.062,1.014-0.188
				c0.266-0.125,0.48-0.361,0.637-0.707c0.158-0.345,0.273-0.824,0.352-1.438c0.08-0.612,0.119-1.405,0.119-2.381
				c0-1.132-0.039-2.057-0.119-2.781c-0.078-0.723-0.193-1.289-0.352-1.698c-0.156-0.406-0.371-0.682-0.637-0.823
				c-0.268-0.143-0.605-0.212-1.014-0.212h-2.641v10.229H528.607z"/>
			<path fill="#FFFFFF" d="M538.979,378.56v-35.687h13.434v5.895h-7.637v8.766h7.498v5.611h-7.498v9.239h7.592v6.176H538.979z"/>
			<path fill="#FFFFFF" d="M568.678,378.56l-7.922-21.968h-0.232v21.968h-5.283v-35.687h6.035l4.855,15.226h0.236v-15.226h5.326
				v35.687H568.678z"/>
			<path fill="#FFFFFF" d="M601.531,378.56v-24.655h-0.236c-0.063,0.629-0.156,1.273-0.283,1.932
				c-0.125,0.66-0.266,1.307-0.422,1.934l-4.48,20.79h-2.639l-4.572-20.838c-0.125-0.597-0.252-1.226-0.379-1.886
				c-0.125-0.658-0.221-1.303-0.281-1.932h-0.236v24.655h-5.232v-35.687h8.578l2.359,12.916c0.217,1.163,0.393,2.139,0.52,2.924
				c0.123,0.785,0.232,1.57,0.328,2.355h0.283c0.094-0.785,0.213-1.57,0.354-2.355s0.322-1.761,0.541-2.924l2.5-12.916h8.531v35.687
				H601.531z"/>
			<path fill="#FFFFFF" d="M620.152,342.873h5.75v25.268c-0.031,1.32-0.07,2.427-0.117,3.322s-0.119,1.66-0.213,2.288
				c-0.094,0.629-0.227,1.163-0.398,1.603c-0.176,0.439-0.371,0.864-0.592,1.273c-0.533,0.973-1.313,1.641-2.332,2.004
				c-1.021,0.358-2.523,0.54-4.502,0.54s-3.488-0.182-4.525-0.54c-1.037-0.363-1.824-1.031-2.359-2.004
				c-0.25-0.409-0.453-0.834-0.611-1.273c-0.156-0.439-0.291-0.974-0.4-1.603c-0.109-0.628-0.189-1.393-0.236-2.288
				c-0.045-0.896-0.07-2.002-0.07-3.322v-25.268h5.939v25.268c0,0.691,0.01,1.258,0.025,1.697c0.014,0.439,0.029,0.808,0.045,1.106
				c0.018,0.3,0.049,0.544,0.096,0.731c0.047,0.189,0.119,0.363,0.211,0.52c0.158,0.282,0.369,0.486,0.637,0.611
				c0.268,0.127,0.715,0.188,1.344,0.188s1.068-0.046,1.32-0.14c0.25-0.095,0.455-0.298,0.613-0.613
				c0.094-0.156,0.164-0.331,0.211-0.519c0.049-0.189,0.078-0.439,0.094-0.754c0.018-0.313,0.033-0.691,0.047-1.131
				c0.016-0.439,0.025-1.006,0.025-1.697V342.873z"/>
			<path fill="#FFFFFF" d="M628.73,378.56v-35.687h8.439c1.947,0,3.424,0.212,4.43,0.637c1.006,0.424,1.775,1.154,2.311,2.192
				c0.283,0.534,0.51,1.106,0.684,1.72s0.322,1.455,0.449,2.521c0.123,1.069,0.211,2.451,0.256,4.15
				c0.049,1.695,0.072,3.896,0.072,6.599c0,2.765-0.033,5.005-0.096,6.716c-0.061,1.715-0.148,3.105-0.258,4.174
				c-0.109,1.067-0.26,1.91-0.447,2.521c-0.189,0.613-0.41,1.172-0.66,1.674c-0.252,0.534-0.566,0.982-0.943,1.343
				c-0.377,0.362-0.832,0.646-1.367,0.849c-0.533,0.205-1.164,0.354-1.887,0.448c-0.723,0.095-1.57,0.143-2.543,0.143H628.73z
				 M637.027,372.43c0.629,0,1.076-0.078,1.344-0.234c0.266-0.156,0.479-0.455,0.637-0.896c0.096-0.283,0.164-0.613,0.211-0.99
				s0.096-0.936,0.141-1.674c0.049-0.738,0.078-1.744,0.096-3.018c0.016-1.271,0.025-2.945,0.025-5.02
				c0-2.041-0.01-3.701-0.025-4.973c-0.018-1.272-0.041-2.287-0.07-3.042c-0.031-0.753-0.08-1.325-0.141-1.72
				c-0.066-0.393-0.141-0.73-0.236-1.013c-0.158-0.409-0.377-0.69-0.66-0.849c-0.281-0.157-0.725-0.234-1.32-0.234h-2.498v23.662
				H637.027z"/>
			<path fill="#FFFFFF" d="M654.986,363.803v-5.608h8.77c0.031,0.597,0.053,1.438,0.07,2.521c0.016,1.086,0.021,2.381,0.021,3.891
				c0,1.887-0.029,3.465-0.092,4.736c-0.063,1.273-0.158,2.342-0.283,3.205c-0.127,0.867-0.275,1.581-0.447,2.146
				c-0.174,0.564-0.371,1.084-0.592,1.557c-0.535,1.1-1.303,1.861-2.309,2.285s-2.469,0.636-4.383,0.636
				c-1.949,0-3.426-0.212-4.432-0.636c-1.008-0.424-1.777-1.186-2.311-2.285c-0.252-0.535-0.473-1.125-0.66-1.77
				c-0.188-0.644-0.348-1.532-0.471-2.662c-0.127-1.133-0.211-2.594-0.26-4.385c-0.047-1.791-0.07-4.133-0.07-7.023
				c0-2.767,0.023-5.013,0.07-6.743c0.049-1.727,0.133-3.134,0.26-4.218c0.123-1.084,0.283-1.924,0.471-2.523
				c0.188-0.595,0.408-1.162,0.66-1.694c0.283-0.567,0.613-1.038,0.99-1.415s0.83-0.684,1.365-0.92
				c0.535-0.234,1.156-0.402,1.863-0.494c0.707-0.096,1.547-0.143,2.523-0.143c1.006,0,1.869,0.047,2.592,0.143
				c0.723,0.092,1.336,0.252,1.84,0.471c0.5,0.221,0.918,0.51,1.248,0.873c0.33,0.361,0.635,0.792,0.92,1.297
				c0.439,0.848,0.762,1.844,0.965,2.992c0.205,1.147,0.309,2.537,0.309,4.171c0,0.347,0,0.622,0,0.825
				c0,0.205-0.018,0.447-0.049,0.732h-5.469c0.031-0.189,0.047-0.377,0.047-0.566c0-0.188,0-0.518,0-0.991
				c0-0.5-0.039-1.052-0.117-1.648c-0.08-0.597-0.164-1.069-0.26-1.414c-0.219-0.755-0.912-1.132-2.074-1.132
				c-0.629,0-1.084,0.094-1.365,0.283c-0.283,0.188-0.504,0.534-0.662,1.037c-0.063,0.282-0.125,0.611-0.188,0.989
				c-0.063,0.377-0.117,0.958-0.164,1.743c-0.049,0.787-0.088,1.832-0.119,3.136s-0.045,3.026-0.045,5.161
				c0,2.264,0.006,4.071,0.023,5.424c0.014,1.35,0.045,2.419,0.092,3.205c0.049,0.785,0.102,1.365,0.166,1.742
				c0.063,0.379,0.141,0.707,0.234,0.99c0.158,0.504,0.393,0.85,0.707,1.037c0.316,0.188,0.803,0.284,1.463,0.284
				c0.723,0,1.232-0.103,1.531-0.308c0.299-0.203,0.525-0.574,0.684-1.106c0.063-0.284,0.125-0.646,0.189-1.085
				c0.063-0.439,0.109-0.912,0.141-1.415s0.055-1.003,0.07-1.508c0.016-0.501,0.025-0.974,0.025-1.415c0-0.597,0-1.084,0-1.461
				c0-0.375-0.018-0.69-0.049-0.943H654.986z"/>
			<path fill="#FFFFFF" d="M666.396,378.56v-35.687h13.434v5.895h-7.637v8.766h7.498v5.611h-7.498v9.239h7.592v6.176H666.396z"/>
		</g>
	</g>
	<g>
		<path fill="#232458" d="M353.15,525.635c1.098,0.178,1.477,2.043,1.135,5.597c-0.221,0.672-0.727,1.199-1.512,1.583l-0.18,0.698
			l-0.398,0.516v3.499c0,0.178,0.066,0.35,0.201,0.513l-0.201,0.7v0.535c0.102,0.645,0.102,1.462,0,2.448l0.201,2.282v2.964v0.864
			l0.197,0.885l-0.197,1.215c0.191,0.644,0.26,1.405,0.197,2.283c-0.043,0.756,0.018,1.687,0.18,2.799
			c0.342,0.616,0.971,1.083,1.891,1.4l0.379,1.048c-0.059,0.494-0.059,1.076,0,1.748c-0.164,0.811-0.164,1.806,0,2.985l-0.178,0.513
			c-2.85,0.288-5.119-0.762-6.811-3.147l-0.4,0.165c-0.15-0.892-0.52-2.058-1.113-3.499l-0.201-1.028
			c0.029-0.508-0.096-1.098-0.377-1.77l-0.18-2.427v-0.537c-0.268-0.781-0.4-1.713-0.4-2.797c0.074-0.494,0.016-0.959-0.178-1.399
			l0.178-0.535c-0.209-1.427-0.209-3.168,0-5.226v-4.196l0.201-0.537l0.199-0.533v-1.215c0.209-0.753,0.395-1.749,0.557-2.983
			l0.201-0.513l0.557-1.216C348.551,527.712,350.568,526.484,353.15,525.635z M357.693,525.983c2.328,0.412,4.473,1.577,6.432,3.498
			c0.119,0.549,0.432,1.07,0.936,1.563l0.398,2.799l0.18,0.37l0.178,0.515c-0.059,0.878,0.076,1.872,0.4,2.983l0.18,0.698v0.699
			c-0.119,0.687-0.061,1.496,0.178,2.43v0.697v0.701l0.199,0.699l-0.199,0.7c0.164,1.29,0.104,2.983-0.178,5.081v0.516v0.7v0.533
			v1.05v0.514c-0.387,0.878-0.58,1.936-0.58,3.17l-0.357,1.028l-0.398,1.768c-1.439,2.087-3.578,3.54-6.412,4.364
			c-0.949-1.717-1.268-3.76-0.955-6.132v-0.7c0.727-0.424,1.355-1.063,1.891-1.913c0.09-1.343,0.031-3.148-0.178-5.412l0.178-0.885
			l-0.379-0.514l0.379-0.885v-11.892c-0.385-1.084-1.143-2.017-2.271-2.799c0-0.41-0.057-0.815-0.176-1.214
			c0.236-1.055,0.236-2.284,0-3.683L357.693,525.983z"/>
		<path fill="#232458" d="M379.43,525.223c0.52,0.082,1.158,0.26,1.914,0.534c-0.088,0.797-0.021,1.744,0.201,2.84l-0.201,0.35
			v0.721v0.534v0.7v0.722v0.532l0.201,0.537l-0.201,0.885v1.232l0.201,0.722v0.698v1.256c0.105,0.797,0.105,1.742,0,2.84v1.418
			l0.201,0.537c-0.223,1.397-0.289,3.236-0.201,5.513v1.235c0.105,1.042,0.037,2.345-0.201,3.908l0.201,1.254l0.201,3.911v3.559
			l-0.58,1.235h-3.473h-0.756h-0.58h-0.777h-0.756v-8.353l-0.201-0.536v-0.885c0.102-0.713,0.102-1.543,0-2.488l0.201-0.885
			c-0.105-0.77-0.105-1.717,0-2.839l-0.201-0.537l0.201-0.534v-0.885c-0.164-1.166-0.23-2.646-0.201-4.444v-1.254
			c0.102-0.974,0.045-2.278-0.178-3.909v-1.956l0.178-0.698l-0.178-2.326c0.059-1-0.01-2.305-0.201-3.91v-0.514
			c0.607-0.041,1.188-0.219,1.736-0.535C377.004,525.518,378.154,525.457,379.43,525.223z M387.109,525.407
			c5.447,0.384,8.207,3.105,8.281,8.17c1.215,4.264,0.059,7.64-3.473,10.122v0.72c0.77,0.234,1.543,0.707,2.314,1.42l0.379,0.187
			l0.578,1.232c0.061,0.509,0.186,0.981,0.379,1.42v3.559v1.422v0.532v0.885v0.722v1.048v3.562v0.534v0.72v0.516l-0.178,0.534
			c-0.906,0.151-2.063,0.151-3.473,0l-0.758,0.186h-0.576l-0.402-0.186l-0.555,0.186h-0.98c-0.254-1.18-0.313-2.66-0.18-4.444
			v-6.935c0.09-0.712,0.023-1.479-0.199-2.305v-0.534c-0.607-0.713-1.439-1.069-2.494-1.069l-0.377-1.07
			c0.09-0.973,0.021-2.153-0.199-3.539v-0.535c0.385-0.862,1.215-1.46,2.492-1.791c1.736-5.005,0.902-8.262-2.492-9.771
			c0.385-1.125,0.26-2.249-0.381-3.374C384.787,526.252,385.553,525.546,387.109,525.407z"/>
		<path fill="#232458" d="M407.223,525.613c1.203-0.302,2.529-0.246,3.986,0.164l0.377,2.8c-0.135,0.355-0.201,0.821-0.201,1.398
			l0.201,0.351v0.534v0.514v0.885v2.964v0.535v1.748v0.885v2.448v3.148v0.697v1.216v0.535v0.514v0.536v2.264v0.533v0.536v2.097
			v0.516v2.985v0.698v3.498v0.513v1.399c-1.039,0-2.301,0.179-3.785,0.536c-0.861-0.316-1.871-0.434-3.027-0.351l-0.201-1.05v-9.978
			l-0.176-0.516l0.176-0.885l-0.176-1.048l0.176-0.885l-0.176-1.049c-0.074-0.633-0.016-1.386,0.176-2.264l-0.176-0.353v-5.244v-0.7
			v-2.982c-0.164-1.399-0.164-3.211,0-5.432l-0.201-0.864l0.201-0.536l-0.201-1.048v-1.749l0.756-0.516
			c0.594,0.138,1.225,0.075,1.893-0.185L407.223,525.613z"/>
		<path fill="#232458" d="M426.869,525.223l2.492,0.185l0.18,1.216v1.418c-0.018,0.11,0.051,0.227,0.197,0.35v0.514v0.537
			c-0.146,0.959-0.785,1.666-1.912,2.117c-0.164,0.494-0.416,1.023-0.758,1.585c0.178,0.618,0.246,1.379,0.201,2.285v3.168v0.698
			c0.029,0.604,0.154,1.366,0.379,2.284c-0.193,0.754-0.262,1.749-0.201,2.983v3.52v0.533v0.7l0.201,0.885v0.863v1.07v0.865
			l0.178,1.069v1.05c0.65,0.343,1.35,0.87,2.092,1.585c-0.209,1.411-0.084,2.936,0.377,4.566v0.534
			c-0.297,0.344-0.549,0.756-0.754,1.235c-7.48-1.343-10.521-6.741-9.129-16.193c-0.252-1.137-0.252-2.48,0-4.031
			c-0.029-0.122-0.154-0.24-0.377-0.351l0.377-0.35c-0.221-0.794-0.221-1.735,0-2.819c-0.162-0.384-0.23-0.856-0.199-1.418
			c-0.135-0.288-0.135-0.64,0-1.051v-0.885c-0.045-0.328-0.172-0.679-0.379-1.05c0.416-0.616,0.482-1.314,0.201-2.097l0.377-0.885
			v-0.885C421.867,528.681,424.02,526.745,426.869,525.223z M437.352,544.397c0.877,0.139,2.02,0.191,3.43,0.165
			c0.281,0.88,0.406,1.936,0.377,3.168l0.178,0.352v0.533l-0.178,0.352l0.178,0.514l-0.178,0.37l0.178,0.514
			c-0.119,0.838-0.051,1.84,0.201,3.006c-0.178,0.686-0.246,1.502-0.201,2.448v0.533v0.699v0.701v2.284v0.699v2.304
			c-1.453,0.425-2.596-0.104-3.428-1.585c-2.744,1.453-4.586,1.688-5.52,0.7v-4.566l0.402-1.236c1.854-0.768,2.482-2.53,1.889-5.288
			h-1.889l-0.402-1.048v-5.267l1.715-0.187C435.113,544.699,436.195,544.646,437.352,544.397z M433.547,525.223
			c3.871,0.892,6.156,3.29,6.854,7.201c0.314,1.001,0.438,2.173,0.381,3.518c-1.1,0.097-2.115,0.454-3.049,1.071l-1.516,0.349
			l-1.336-0.185c-0.252-1.304-0.318-2.887-0.201-4.753c-0.443-0.549-1.074-1.069-1.889-1.563c-0.164-0.974-0.164-2.208,0-3.704
			v-1.399l0.176-0.35C433.158,525.422,433.354,525.359,433.547,525.223z"/>
		<path fill="#232458" d="M452.748,525.613c1.203-0.302,2.531-0.246,3.986,0.164l0.377,2.8c-0.135,0.355-0.201,0.821-0.201,1.398
			l0.201,0.351v0.534v0.514v0.885v2.964v0.535v1.748v0.885v2.448v3.148v0.697v1.216v0.535v0.514v0.536v2.264v0.533v0.536v2.097
			v0.516v2.985v0.698v3.498v0.513v1.399c-1.039,0-2.301,0.179-3.785,0.536c-0.861-0.316-1.871-0.434-3.027-0.351l-0.201-1.05v-9.978
			l-0.176-0.516l0.176-0.885l-0.176-1.048l0.176-0.885l-0.176-1.049c-0.074-0.633-0.016-1.386,0.176-2.264l-0.176-0.353v-5.244v-0.7
			v-2.982c-0.164-1.399-0.164-3.211,0-5.432l-0.201-0.864l0.201-0.536l-0.201-1.048v-1.749l0.758-0.516
			c0.592,0.138,1.223,0.075,1.891-0.185L452.748,525.613z"/>
		<path fill="#232458" d="M469.012,562.854c-1.439,0.191-2.762-0.104-3.963-0.885v-2.1l0.021-0.534v-2.963v-0.7v-0.514
			c0.074-0.59,0.016-1.234-0.178-1.935c0.193-0.629,0.193-1.387,0-2.264c0.164-0.698,0.17-1.515,0.023-2.448
			c0.059-0.617,0-1.315-0.18-2.097c0.09-0.345,0.09-0.692,0-1.05l0.201-0.701c-0.191-0.697-0.26-1.515-0.201-2.448
			c-0.117-0.933-0.045-2.037,0.225-3.313v-0.532l0.756,0.185c0.178,0.466,0.488,0.933,0.936,1.398
			c0.311,1.633,1.059,3.211,2.246,4.73l0.178,0.701l0.758,1.215l0.936,2.099l0.199,0.35l0.559,0.533v0.7l0.756,0.865l0.178,0.883
			l0.379,0.7c0.027,0.288,0.154,0.575,0.377,0.865c-0.639,2.043-0.646,4.376-0.021,6.995l-0.201,0.35l-0.199,1.398L469.012,562.854z
			 M484.703,562.382c-1.129,0.163-2.256-0.132-3.383-0.885c-0.283-1.194-0.914-2.537-1.893-4.033l-0.178-0.7l-0.377-0.348
			c-0.225-0.839-0.662-1.71-1.314-2.616l-0.18-0.533l-0.377-0.515c-0.193-0.796-0.631-1.612-1.314-2.449v-0.534l-0.379-0.7
			l-0.555-0.535c-0.164-0.81-0.602-1.563-1.313-2.263c-0.076-0.355-0.201-0.705-0.381-1.049c0.031-0.124-0.035-0.241-0.199-0.35
			c-0.283-0.904-0.777-1.782-1.492-2.636v-0.513l-0.555-0.885l-0.58-0.863l-0.557-0.885c-0.191-0.878-0.697-1.756-1.514-2.636
			v-0.514c-0.369-0.493-0.742-1.076-1.113-1.747l-0.377-0.351l-0.201-0.351c-0.148-0.794-0.586-1.611-1.313-2.448l-0.357-1.748
			c0.09-0.59,0.09-1.235,0-1.935v-1.214c0.951-0.288,2.086-0.288,3.406,0l1.336-0.329h0.758l0.555,0.164
			c0.313,0.906,0.936,2.071,1.869,3.498c-0.029,0.123,0.039,0.24,0.201,0.35c0,0.178,0.059,0.356,0.178,0.535
			c0.164,0.494,0.416,1.077,0.758,1.749l0.379,0.534c0,0.165,0.057,0.338,0.176,0.516l0.381,0.885
			c0.193,0.604,0.57,1.24,1.135,1.912v0.536l0.377,0.515c0.119,0.327,0.305,0.679,0.557,1.049l0.379,1.048l0.355,0.886l0.58,1.05
			l0.557,1.05l0.379,0.7l0.557,1.048l0.377,1.049l0.557,1.05c0.355,0.851,0.92,1.846,1.691,2.983c0.164,0.729,0.543,1.426,1.135,2.1
			c0.031,0.37,0.215,0.836,0.557,1.396l0.756,1.052c0.061,0.37,0.188,0.774,0.379,1.212l-0.02,4.384l0.176,0.35l-0.176,0.516
			l-0.023,2.096C484.961,562.059,484.836,562.176,484.703,562.382z M485.15,546.126l-1.516-0.534l0.021-1.563l-0.758-1.564
			l-0.756-1.77l-0.379-0.348l-0.178-0.516l-0.379-0.35c-0.162-0.494-0.416-1.077-0.756-1.75l-0.379-0.533
			c-0.059-0.206-0.184-0.377-0.377-0.516l-0.178-0.699l-0.18-0.885l-0.578-0.515l-0.178-0.699l-0.557-0.535
			c0-0.412-0.068-0.815-0.199-1.214l0.021-1.398c-0.105-0.824-0.037-1.819,0.199-2.984c-0.074-0.494-0.074-1.077,0-1.748
			l1.137-0.164c1.156,0.096,2.604,0.039,4.34-0.167h0.58c0.029,0.125,0.156,0.242,0.377,0.353c0.4,1.438,0.453,3.188,0.156,5.244
			l0.199,0.537l-0.021,2.962c0.059,0.493,0.059,1.076,0,1.75c-0.029,0.521,0.029,0.986,0.178,1.397v0.535v1.563v0.701l0.178,2.263
			l0.178,2.283L485.15,546.126z"/>
		<path fill="#232458" d="M511.797,550.961h1.559c0.326,2.771,1.559,4.754,3.695,5.946c0.355,1.688,0.355,3.848,0,6.482
			l-1.357-0.351h-0.604c-4.271-1.592-7.061-4.712-8.367-9.361C506.514,551.826,508.205,550.922,511.797,550.961z M514.135,525.223
			c0.711,0.015,1.49,0.192,2.336,0.534c-0.074,0.797-0.014,1.758,0.178,2.881c-0.162,0.604-0.223,1.269-0.178,1.997l-0.201,0.349
			l0.201,0.536c-0.176,0.41-0.311,0.892-0.4,1.439c-0.387,0.384-0.771,0.863-1.156,1.438c-0.15,0.552-0.217,1.271-0.201,2.161
			c1.662,1.702,3.799,3.025,6.41,3.973c0.682,0.698,1.596,1.296,2.736,1.789l0.781,0.72c0.727,0.427,1.506,1.091,2.338,1.997
			l0.377,0.163l1.76,3.252l0.398,0.72c0.031,0.549,0.225,1.091,0.58,1.626c0.459,4.334-1.289,7.99-5.252,10.966
			c-1.248,0.741-2.748,1.166-4.498,1.275c-0.266-1.194-0.326-2.695-0.178-4.506l-0.201-2.695c1.781-0.809,2.754-2.256,2.918-4.341
			c-0.461-1.098-1.307-2.175-2.539-3.229l-1.355-0.353c-0.49-0.465-1.137-0.945-1.938-1.438l-0.58-0.186l-0.201-0.369l-0.576-0.165
			l-0.201-0.371c-6.01-2.36-8.674-6.919-7.992-13.682c0.402-0.412,0.795-0.954,1.18-1.626c0.402-0.534,0.787-1.193,1.158-1.976
			c0.355-0.204,0.684-0.506,0.98-0.904c0.979-0.302,1.885-0.898,2.715-1.791C513.727,525.422,513.928,525.359,514.135,525.223z
			 M518.988,525.407c4.719,0.357,7.969,2.758,9.748,7.201c0.355,0.947,0.355,1.962,0,3.046c-0.877,0.014-1.98,0.137-3.316,0.371
			h-0.578c-0.193-0.014-0.395,0.046-0.602,0.185h-0.779l-0.779,0.186h-0.578l-0.578-0.37c-0.15-0.59-0.215-1.249-0.201-1.976
			c-0.313-0.562-0.832-1.043-1.559-1.441l-0.777-1.089v-4.137c0.057-0.508-0.01-0.987-0.201-1.44L518.988,525.407z"/>
		<path fill="#232458" d="M557.707,525.429l0.936,0.164c0.727,1.961,0.852,4.122,0.379,6.481h-3.762h-0.58h-0.557l-0.377-0.185
			l-0.758,0.185l-0.578-0.185v2.098v0.514v2.984v0.701v2.261v0.865v1.934v0.7l0.199,0.699l-0.199,1.049l0.199,0.7v1.048
			l-0.199,0.679c0.162,0.796,0.229,1.729,0.199,2.801v1.048v1.049v1.236v1.563c-0.059,0.753,0,1.686,0.178,2.796v0.701v0.515v1.233
			v1.216c-1.291,0.575-2.863,0.692-4.717,0.348c-0.564,0.234-1.256,0.352-2.072,0.352l-0.756-2.1
			c0.283-0.811,0.34-1.682,0.178-2.612v-2.964c0.043-0.124-0.014-0.239-0.178-0.35c0.191-1.235,0.125-2.749-0.201-4.547
			c0.195-0.645,0.195-1.406,0-2.285v-0.679c0.133-0.795,0.133-1.727,0-2.797v-8.744l0.201-1.216l-0.201-2.262l-0.379-0.35
			c-0.621,0-1.313,0.117-2.068,0.35c-0.697-0.179-1.516-0.24-2.449-0.187h-0.58h-0.555l-0.58-0.163
			c-0.311-0.823-0.438-1.818-0.377-2.983v-1.914l-0.18-0.885l0.18-0.35c1.037-0.165,2.299-0.219,3.783-0.165h0.578h2.072h3.404
			h0.557c1.01,0.083,2.203,0.021,3.584-0.185h0.578h1.313h0.58h0.936h1.514L557.707,525.429z"/>
		<path fill="#232458" d="M574.883,525.635c1.098,0.178,1.477,2.043,1.135,5.597c-0.223,0.672-0.729,1.199-1.512,1.583l-0.18,0.698
			l-0.4,0.516v3.499c0,0.178,0.066,0.35,0.201,0.513l-0.201,0.7v0.535c0.104,0.645,0.104,1.462,0,2.448l0.201,2.282v2.964v0.864
			l0.199,0.885l-0.199,1.215c0.191,0.644,0.26,1.405,0.199,2.283c-0.045,0.756,0.016,1.687,0.18,2.799
			c0.342,0.616,0.969,1.083,1.889,1.4l0.381,1.048c-0.061,0.494-0.061,1.076,0,1.748c-0.164,0.811-0.164,1.806,0,2.985l-0.18,0.513
			c-2.848,0.288-5.117-0.762-6.809-3.147l-0.402,0.165c-0.148-0.892-0.52-2.058-1.113-3.499l-0.201-1.028
			c0.031-0.508-0.096-1.098-0.377-1.77l-0.178-2.427v-0.537c-0.268-0.781-0.402-1.713-0.402-2.797
			c0.076-0.494,0.016-0.959-0.178-1.399l0.178-0.535c-0.207-1.427-0.207-3.168,0-5.226v-4.196l0.201-0.537l0.201-0.533v-1.215
			c0.207-0.753,0.393-1.749,0.555-2.983l0.201-0.513l0.557-1.216C570.283,527.712,572.301,526.484,574.883,525.635z
			 M579.424,525.983c2.328,0.412,4.473,1.577,6.434,3.498c0.119,0.549,0.43,1.07,0.934,1.563l0.4,2.799l0.18,0.37l0.178,0.515
			c-0.061,0.878,0.074,1.872,0.4,2.983l0.178,0.698v0.699c-0.119,0.687-0.059,1.496,0.178,2.43v0.697v0.701l0.201,0.699l-0.201,0.7
			c0.164,1.29,0.104,2.983-0.178,5.081v0.516v0.7v0.533v1.05v0.514c-0.387,0.878-0.578,1.936-0.578,3.17l-0.357,1.028l-0.4,1.768
			c-1.439,2.087-3.576,3.54-6.41,4.364c-0.951-1.717-1.268-3.76-0.957-6.132v-0.7c0.727-0.424,1.357-1.063,1.893-1.913
			c0.088-1.343,0.029-3.148-0.178-5.412l0.178-0.885l-0.381-0.514l0.381-0.885v-11.892c-0.387-1.084-1.143-2.017-2.271-2.799
			c0-0.41-0.059-0.815-0.178-1.214c0.236-1.055,0.236-2.284,0-3.683L579.424,525.983z"/>
		<path fill="#232458" d="M601.162,525.223c0.52,0.082,1.156,0.26,1.912,0.534c-0.088,0.797-0.021,1.744,0.201,2.84l-0.201,0.35
			v0.721v0.534v0.7v0.722v0.532l0.201,0.537l-0.201,0.885v1.232l0.201,0.722v0.698v1.256c0.105,0.797,0.105,1.742,0,2.84v1.418
			l0.201,0.537c-0.223,1.397-0.289,3.236-0.201,5.513v1.235c0.105,1.042,0.037,2.345-0.201,3.908l0.201,1.254l0.201,3.911v3.559
			l-0.578,1.235h-3.473h-0.758h-0.578h-0.779h-0.756v-8.353l-0.201-0.536v-0.885c0.104-0.713,0.104-1.543,0-2.488l0.201-0.885
			c-0.105-0.77-0.105-1.717,0-2.839l-0.201-0.537l0.201-0.534v-0.885c-0.164-1.166-0.23-2.646-0.201-4.444v-1.254
			c0.104-0.974,0.045-2.278-0.178-3.909v-1.956l0.178-0.698l-0.178-2.326c0.059-1-0.01-2.305-0.201-3.91v-0.514
			c0.609-0.041,1.188-0.219,1.736-0.535C598.734,525.518,599.887,525.457,601.162,525.223z M608.84,525.407
			c5.447,0.384,8.209,3.105,8.283,8.17c1.215,4.264,0.057,7.64-3.475,10.122v0.72c0.771,0.234,1.545,0.707,2.314,1.42l0.381,0.187
			l0.578,1.232c0.059,0.509,0.184,0.981,0.379,1.42v3.559v1.422v0.532v0.885v0.722v1.048v3.562v0.534v0.72v0.516l-0.178,0.534
			c-0.906,0.151-2.064,0.151-3.475,0l-0.758,0.186h-0.576l-0.4-0.186l-0.557,0.186h-0.98c-0.254-1.18-0.311-2.66-0.18-4.444v-6.935
			c0.09-0.712,0.023-1.479-0.197-2.305v-0.534c-0.609-0.713-1.441-1.069-2.496-1.069l-0.377-1.07
			c0.09-0.973,0.021-2.153-0.199-3.539v-0.535c0.385-0.862,1.215-1.46,2.492-1.791c1.736-5.005,0.904-8.262-2.492-9.771
			c0.385-1.125,0.26-2.249-0.379-3.374C606.518,526.252,607.283,525.546,608.84,525.407z"/>
		<path fill="#232458" d="M626.371,525.429c0.949,0.123,2.084,0.123,3.406,0l0.379,0.185h1.514c0.133,0.015,0.26-0.048,0.379-0.185
			c0.191,0.097,0.445,0.156,0.756,0.185c0.105,0.906,0.422,2.01,0.957,3.313v0.516l0.557,1.399l0.199,0.533
			c-0.014,0.179,0.045,0.357,0.18,0.536c0.059,0.533,0.25,1.173,0.578,1.912l0.178,1.05l0.379,0.535
			c0.074,0.645,0.326,1.453,0.758,2.427c0.057,0.537,0.25,1.127,0.578,1.77v0.516c-0.031,0.124,0.029,0.24,0.178,0.348l0.379,1.4
			c0.057,0.522,0.311,1.105,0.756,1.749c0.031,0.412,0.156,0.816,0.377,1.215c0.031,0.508,0.225,1.098,0.58,1.77l0.379,1.214
			l0.178,1.05c0.104,0.273,0.297,0.562,0.58,0.863c-0.225,1.151-0.291,2.612-0.201,4.382c0,0.384-0.061,0.851-0.178,1.399
			l0.178,0.701l-0.178,2.98l0.178,0.7c0.223,0.893,0.037,1.763-0.557,2.614l0.178,0.35h-5.854l-1.135-0.7
			c-0.076-1.056,0.051-2.4,0.377-4.033l-0.201-0.329c0.15-0.794,0.215-1.729,0.201-2.798v-0.885c-0.014-0.768-0.014-1.7,0-2.797
			v-1.915c-0.518-0.988-0.898-2.214-1.135-3.682l-0.199-0.35l-0.379-0.351l-0.377-1.399l-0.18-0.699
			c-0.016-0.604-0.268-1.241-0.758-1.913v-0.537l-0.379-0.863l-0.199-0.885l-0.18-0.7c-0.133-0.163-0.197-0.396-0.197-0.698
			c-0.209-0.892-0.586-1.885-1.137-2.982v-0.864l-0.379-0.699c-0.148-0.782-0.459-1.715-0.934-2.799l-0.959-2.799v-0.535
			l-0.176-0.328L626.371,525.429z M641.887,525.613c1.201,0.221,2.656,0.221,4.361,0h0.559h0.576l0.557,0.164
			c0.074,0.59,0.018,1.29-0.178,2.101c-0.504,0.781-0.883,1.829-1.135,3.147c-0.133,0.039-0.26,0.157-0.379,0.349l-0.197,0.536
			l-0.18,0.698l-0.758,1.914l-0.199,0.7l-0.18,0.516l-1.133,2.796l0.178,0.7c-0.225,0.11-0.41,0.288-0.557,0.534l-0.957,2.264
			l-0.18,1.069c-0.326,0.344-0.771,0.631-1.336,0.866c-0.34-0.755-0.525-1.635-0.555-2.636l-0.201-0.328
			c0.014-0.178-0.045-0.357-0.178-0.537l-0.379-1.396l-0.58-1.237v-0.514l-0.377-0.35l-0.178-0.535l-0.201-0.697l-0.176-1.216
			c0.77-1.11,1.336-2.573,1.689-4.382l0.758-1.215l0.201-0.7l0.377-0.698l0.379-1.398L641.887,525.613z"/>
		<path fill="#232458" d="M669.07,525.017h3.807l0.578,0.185h2.092c0.416,0,0.922,0.057,1.514,0.166h0.58h2.67l1.336-0.166
			c0.564,0.082,1.32,0.082,2.271,0l0.379,0.166h0.578h0.955l1.137-0.166l1.135,0.351c0.416,1.935,0.164,3.923-0.756,5.968
			c-0.816,0.067-1.832,0.013-3.049-0.165l-0.379,0.165l-0.379-0.165l-0.578,0.165h-0.758h-0.557h-0.957
			c-0.607,0.039-1.307-0.015-2.092-0.165l-0.957,0.165l-0.758-0.165c-0.475,0.082-0.986,0.314-1.535,0.698l-0.18,3.17v0.535
			l0.18,1.397l-0.18,0.885l0.18,0.536l-0.18,0.864c1.707,0.479,3.799,0.597,6.277,0.348l0.959,0.372
			c0.146,0.961,0.146,2.017,0,3.168l0.178,0.35v0.514v0.722l-0.758,1.213h-3.428h-1.336h-0.756h-0.758l-0.576-0.165v2.121v0.514
			v3.005v0.7v0.698v0.698v0.699v1.955v3.147v0.722v2.284l-0.959,0.35c-1.318-0.412-2.84-0.473-4.563-0.186l-0.58,0.186l-0.756-0.35
			c-0.164-1.001-0.096-2.291,0.201-3.868l-0.201-0.885l0.201-0.535v-5.453v-0.885v-24.978L669.07,525.017z"/>
		<path fill="#232458" d="M699.777,525.613c1.203-0.302,2.531-0.246,3.986,0.164l0.379,2.8c-0.135,0.355-0.201,0.821-0.201,1.398
			l0.201,0.351v0.534v0.514v0.885v2.964v0.535v1.748v0.885v2.448v3.148v0.697v1.216v0.535v0.514v0.536v2.264v0.533v0.536v2.097
			v0.516v2.985v0.698v3.498v0.513v1.399c-1.041,0-2.301,0.179-3.785,0.536c-0.861-0.316-1.871-0.434-3.027-0.351l-0.201-1.05v-9.978
			l-0.178-0.516l0.178-0.885l-0.178-1.048l0.178-0.885l-0.178-1.049c-0.074-0.633-0.014-1.386,0.178-2.264l-0.178-0.353v-5.244v-0.7
			v-2.982c-0.162-1.399-0.162-3.211,0-5.432l-0.201-0.864l0.201-0.536l-0.201-1.048v-1.749l0.758-0.516
			c0.594,0.138,1.225,0.075,1.893-0.185L699.777,525.613z"/>
		<path fill="#232458" d="M732.178,525.429l0.936,0.164c0.727,1.961,0.854,4.122,0.379,6.481h-3.762h-0.578h-0.557l-0.379-0.185
			l-0.756,0.185l-0.58-0.185v2.098v0.514v2.984v0.701v2.261v0.865v1.934v0.7l0.201,0.699l-0.201,1.049l0.201,0.7v1.048l-0.201,0.679
			c0.164,0.796,0.229,1.729,0.201,2.801v1.048v1.049v1.236v1.563c-0.061,0.753,0,1.686,0.178,2.796v0.701v0.515v1.233v1.216
			c-1.293,0.575-2.865,0.692-4.719,0.348c-0.564,0.234-1.256,0.352-2.07,0.352l-0.758-2.1c0.283-0.811,0.342-1.682,0.178-2.612
			v-2.964c0.045-0.124-0.014-0.239-0.178-0.35c0.191-1.235,0.127-2.749-0.199-4.547c0.193-0.645,0.193-1.406,0-2.285v-0.679
			c0.133-0.795,0.133-1.727,0-2.797v-8.744l0.199-1.216l-0.199-2.262l-0.381-0.35c-0.621,0-1.313,0.117-2.068,0.35
			c-0.697-0.179-1.514-0.24-2.447-0.187h-0.58h-0.557l-0.58-0.163c-0.311-0.823-0.436-1.818-0.377-2.983v-1.914l-0.178-0.885
			l0.178-0.35c1.039-0.165,2.301-0.219,3.785-0.165h0.578h2.07h3.404h0.557c1.01,0.083,2.203,0.021,3.584-0.185h0.58h1.313h0.58
			h0.934h1.514L732.178,525.429z"/>
		<path fill="#232458" d="M745.705,562.854c-1.441,0.191-2.762-0.104-3.965-0.885v-2.1l0.023-0.534v-2.963v-0.7v-0.514
			c0.074-0.59,0.016-1.234-0.178-1.935c0.193-0.629,0.193-1.387,0-2.264c0.164-0.698,0.17-1.515,0.023-2.448
			c0.057-0.617,0-1.315-0.18-2.097c0.09-0.345,0.09-0.692,0-1.05l0.201-0.701c-0.193-0.697-0.26-1.515-0.201-2.448
			c-0.117-0.933-0.045-2.037,0.223-3.313v-0.532l0.758,0.185c0.176,0.466,0.488,0.933,0.934,1.398
			c0.311,1.633,1.061,3.211,2.248,4.73l0.178,0.701l0.758,1.215l0.936,2.099l0.199,0.35l0.557,0.533v0.7l0.758,0.865l0.178,0.883
			l0.379,0.7c0.027,0.288,0.154,0.575,0.377,0.865c-0.639,2.043-0.646,4.376-0.021,6.995l-0.201,0.35l-0.199,1.398L745.705,562.854z
			 M761.396,562.382c-1.129,0.163-2.256-0.132-3.383-0.885c-0.283-1.194-0.914-2.537-1.893-4.033l-0.178-0.7l-0.379-0.348
			c-0.223-0.839-0.66-1.71-1.313-2.616l-0.18-0.533l-0.379-0.515c-0.191-0.796-0.629-1.612-1.313-2.449v-0.534l-0.379-0.7
			l-0.555-0.535c-0.164-0.81-0.602-1.563-1.314-2.263c-0.074-0.355-0.201-0.705-0.379-1.049c0.031-0.124-0.037-0.241-0.199-0.35
			c-0.283-0.904-0.779-1.782-1.492-2.636v-0.513l-0.555-0.885l-0.58-0.863l-0.557-0.885c-0.193-0.878-0.697-1.756-1.514-2.636
			v-0.514c-0.369-0.493-0.742-1.076-1.113-1.747l-0.379-0.351l-0.199-0.351c-0.148-0.794-0.586-1.611-1.313-2.448l-0.357-1.748
			c0.09-0.59,0.09-1.235,0-1.935v-1.214c0.951-0.288,2.084-0.288,3.406,0l1.336-0.329h0.758l0.555,0.164
			c0.313,0.906,0.936,2.071,1.869,3.498c-0.029,0.123,0.039,0.24,0.201,0.35c0,0.178,0.059,0.356,0.178,0.535
			c0.164,0.494,0.416,1.077,0.758,1.749l0.379,0.534c0,0.165,0.057,0.338,0.176,0.516l0.381,0.885
			c0.191,0.604,0.57,1.24,1.135,1.912v0.536l0.377,0.515c0.119,0.327,0.305,0.679,0.557,1.049l0.379,1.048l0.355,0.886l0.578,1.05
			l0.559,1.05l0.379,0.7l0.557,1.048l0.377,1.049l0.557,1.05c0.355,0.851,0.92,1.846,1.691,2.983c0.164,0.729,0.541,1.426,1.135,2.1
			c0.031,0.37,0.215,0.836,0.557,1.396l0.756,1.052c0.061,0.37,0.188,0.774,0.379,1.212l-0.02,4.384l0.176,0.35l-0.176,0.516
			l-0.023,2.096C761.654,562.059,761.529,562.176,761.396,562.382z M761.842,546.126l-1.514-0.534l0.021-1.563l-0.758-1.564
			l-0.756-1.77l-0.379-0.348l-0.178-0.516l-0.379-0.35c-0.162-0.494-0.416-1.077-0.756-1.75l-0.379-0.533
			c-0.059-0.206-0.184-0.377-0.377-0.516l-0.18-0.699l-0.178-0.885l-0.578-0.515l-0.178-0.699l-0.557-0.535
			c0-0.412-0.068-0.815-0.201-1.214l0.023-1.398c-0.105-0.824-0.037-1.819,0.199-2.984c-0.074-0.494-0.074-1.077,0-1.748
			l1.137-0.164c1.156,0.096,2.604,0.039,4.34-0.167h0.578c0.031,0.125,0.158,0.242,0.379,0.353c0.4,1.438,0.453,3.188,0.156,5.244
			l0.199,0.537l-0.021,2.962c0.059,0.493,0.059,1.076,0,1.75c-0.029,0.521,0.027,0.986,0.178,1.397v0.535v1.563v0.701l0.178,2.263
			l0.178,2.283L761.842,546.126z"/>
		<path fill="#232458" d="M772.25,525.017h2.492h0.557h1.537l0.578,0.185h0.578c0.639-0.067,1.402-0.014,2.295,0.166l0.4-0.166
			l1.336,0.166h0.576c0.758-0.109,1.648-0.109,2.672,0h0.779l0.957-0.166c0.859,0.18,1.943,0.234,3.25,0.166h1.158
			c0.029,0.302,0.154,0.597,0.379,0.885c-0.389,0.686-0.389,1.454,0,2.305l-0.201,1.232l0.201,0.721l-0.58,0.885
			c-1.277,0.235-2.938,0.235-4.986,0c-0.564,0.056-1.328,0.056-2.293,0c-0.77,0.151-1.668,0.214-2.693,0.186
			c-0.564-0.219-1.201-0.341-1.914-0.369h-0.758c-0.191,0.973-0.258,2.16-0.199,3.559v0.513v0.537c0,0.533-0.059,1.24-0.178,2.117
			v0.722l-0.402,0.535v0.698l0.959,0.352c1.35-0.345,2.885-0.46,4.607-0.352h0.578h0.58h1.336l0.578,0.536v3.54v1.418l-0.201,0.35
			l-0.756,0.72c-0.668-0.123-1.441-0.068-2.314,0.165l-0.559-0.165c-0.549,0.057-1.186,0.057-1.912,0h-0.58h-0.578h-0.578
			l-0.58-0.349v3.168v3.189l-0.178,1.254v0.537l-0.402,1.398l3.854-0.165h0.555l0.58,0.165h0.777h2.094h0.578h2.494l0.955-0.165
			c0.58,0.082,1.158,0.316,1.738,0.7l-0.201,0.534v3.537v0.537l-0.178,0.535v0.885l-0.201,0.534
			c-0.133,0.029-0.258,0.145-0.377,0.351c-0.861-0.18-1.887-0.24-3.072-0.188h-0.58h-0.578h-1.336l-0.578-0.163h-6.322h-1.914
			l-2.113-0.35h-0.756l-0.781,0.35l-1.135-0.185c-0.164-0.796-0.23-1.741-0.199-2.839v-24.073c0-0.77,0.066-1.832,0.199-3.189
			v-2.489c0.119-1.001,0.051-2.298-0.199-3.89C771.418,525.88,771.803,525.525,772.25,525.017z"/>
		<path fill="#232458" d="M805.25,550.961h1.557c0.328,2.771,1.561,4.754,3.697,5.946c0.355,1.688,0.355,3.848,0,6.482l-1.357-0.351
			h-0.604c-4.271-1.592-7.063-4.712-8.367-9.361C799.967,551.826,801.66,550.922,805.25,550.961z M807.588,525.223
			c0.711,0.015,1.49,0.192,2.336,0.534c-0.074,0.797-0.014,1.758,0.178,2.881c-0.162,0.604-0.223,1.269-0.178,1.997l-0.199,0.349
			l0.199,0.536c-0.178,0.41-0.311,0.892-0.4,1.439c-0.385,0.384-0.771,0.863-1.156,1.438c-0.15,0.552-0.215,1.271-0.201,2.161
			c1.662,1.702,3.797,3.025,6.41,3.973c0.682,0.698,1.596,1.296,2.738,1.789l0.779,0.72c0.727,0.427,1.504,1.091,2.336,1.997
			l0.379,0.163l1.76,3.252l0.398,0.72c0.031,0.549,0.225,1.091,0.58,1.626c0.461,4.334-1.289,7.99-5.252,10.966
			c-1.248,0.741-2.748,1.166-4.496,1.275c-0.268-1.194-0.328-2.695-0.18-4.506l-0.199-2.695c1.781-0.809,2.752-2.256,2.914-4.341
			c-0.459-1.098-1.305-2.175-2.535-3.229l-1.357-0.353c-0.492-0.465-1.137-0.945-1.938-1.438l-0.58-0.186l-0.199-0.369l-0.578-0.165
			l-0.201-0.371c-6.01-2.36-8.674-6.919-7.992-13.682c0.402-0.412,0.795-0.954,1.18-1.626c0.402-0.534,0.787-1.193,1.158-1.976
			c0.355-0.204,0.682-0.506,0.98-0.904c0.979-0.302,1.885-0.898,2.715-1.791C807.18,525.422,807.381,525.359,807.588,525.223z
			 M812.441,525.407c4.717,0.357,7.967,2.758,9.748,7.201c0.355,0.947,0.355,1.962,0,3.046c-0.875,0.014-1.982,0.137-3.318,0.371
			h-0.576c-0.195-0.014-0.395,0.046-0.602,0.185h-0.779l-0.781,0.186h-0.576l-0.58-0.37c-0.148-0.59-0.215-1.249-0.201-1.976
			c-0.311-0.562-0.83-1.043-1.557-1.441l-0.777-1.089v-4.137c0.057-0.508-0.01-0.987-0.203-1.44L812.441,525.407z"/>
		<path fill="#232458" d="M836.428,550.961h1.557c0.326,2.771,1.559,4.754,3.695,5.946c0.355,1.688,0.355,3.848,0,6.482
			l-1.357-0.351h-0.602c-4.273-1.592-7.063-4.712-8.369-9.361C831.145,551.826,832.836,550.922,836.428,550.961z M838.764,525.223
			c0.713,0.015,1.492,0.192,2.338,0.534c-0.074,0.797-0.014,1.758,0.178,2.881c-0.164,0.604-0.223,1.269-0.178,1.997l-0.201,0.349
			l0.201,0.536c-0.178,0.41-0.311,0.892-0.4,1.439c-0.389,0.384-0.773,0.863-1.158,1.438c-0.15,0.552-0.215,1.271-0.201,2.161
			c1.664,1.702,3.799,3.025,6.412,3.973c0.682,0.698,1.594,1.296,2.736,1.789l0.781,0.72c0.727,0.427,1.504,1.091,2.336,1.997
			l0.379,0.163l1.758,3.252l0.4,0.72c0.029,0.549,0.225,1.091,0.58,1.626c0.459,4.334-1.291,7.99-5.252,10.966
			c-1.248,0.741-2.748,1.166-4.498,1.275c-0.268-1.194-0.328-2.695-0.178-4.506l-0.201-2.695c1.779-0.809,2.752-2.256,2.916-4.341
			c-0.461-1.098-1.307-2.175-2.537-3.229l-1.357-0.353c-0.49-0.465-1.137-0.945-1.938-1.438l-0.578-0.186l-0.201-0.369l-0.578-0.165
			l-0.201-0.371c-6.01-2.36-8.674-6.919-7.99-13.682c0.4-0.412,0.793-0.954,1.178-1.626c0.402-0.534,0.789-1.193,1.16-1.976
			c0.355-0.204,0.682-0.506,0.979-0.904c0.98-0.302,1.885-0.898,2.715-1.791C838.355,525.422,838.557,525.359,838.764,525.223z
			 M843.617,525.407c4.719,0.357,7.969,2.758,9.75,7.201c0.354,0.947,0.354,1.962,0,3.046c-0.877,0.014-1.982,0.137-3.318,0.371
			h-0.576c-0.195-0.014-0.395,0.046-0.604,0.185h-0.777l-0.781,0.186h-0.576l-0.58-0.37c-0.15-0.59-0.215-1.249-0.201-1.976
			c-0.311-0.562-0.83-1.043-1.557-1.441l-0.779-1.089v-4.137c0.059-0.508-0.01-0.987-0.201-1.44L843.617,525.407z"/>
	</g>
	<g>
		<linearGradient id="SVGID_1_" gradientUnits="userSpaceOnUse" x1="164.9609" y1="397.9155" x2="164.9609" y2="511.0132">
			<stop  offset="0" style="stop-color:#232458"/>
			<stop  offset="0.5399" style="stop-color:#3C5BA8"/>
			<stop  offset="1" style="stop-color:#232458"/>
		</linearGradient>
		<path fill="url(#SVGID_1_)" d="M186.055,397.607l5.625,21.094h-15.156v92.187h-23.125v-92.187h-15.156l5.938-21.094H186.055z"/>
		<linearGradient id="SVGID_2_" gradientUnits="userSpaceOnUse" x1="227.2275" y1="397.9155" x2="227.2275" y2="511.0132">
			<stop  offset="0" style="stop-color:#232458"/>
			<stop  offset="0.5399" style="stop-color:#3C5BA8"/>
			<stop  offset="1" style="stop-color:#232458"/>
		</linearGradient>
		<path fill="url(#SVGID_2_)" d="M256.523,510.888h-23.125v-45.31h-12.342v45.31h-23.125v-113.28h23.125v48.437h12.342v-48.437
			h23.125V510.888z"/>
		<linearGradient id="SVGID_3_" gradientUnits="userSpaceOnUse" x1="289.8828" y1="397.9155" x2="289.8828" y2="511.0132">
			<stop  offset="0" style="stop-color:#232458"/>
			<stop  offset="0.5399" style="stop-color:#3C5BA8"/>
			<stop  offset="1" style="stop-color:#232458"/>
		</linearGradient>
		<path fill="url(#SVGID_3_)" d="M265.898,397.607h44.063l3.906,21.094H289.18v26.875h18.748v19.531H289.18v24.688h23.75
			l-3.906,21.093h-43.125V397.607z"/>
		<linearGradient id="SVGID_4_" gradientUnits="userSpaceOnUse" x1="359.4014" y1="397.9155" x2="359.4014" y2="511.0132">
			<stop  offset="0" style="stop-color:#232458"/>
			<stop  offset="0.5399" style="stop-color:#3C5BA8"/>
			<stop  offset="1" style="stop-color:#232458"/>
		</linearGradient>
		<path fill="url(#SVGID_4_)" d="M339.559,510.888l-4.061-21.093h24.373c1.77,0,2.658-0.782,2.658-2.342v-20.627
			c0-1.562-0.314-2.5-0.939-2.813s-1.719-0.469-3.283-0.469H346.59c-1.67,0-3.258-0.128-4.768-0.391
			c-1.51-0.26-2.863-0.861-4.063-1.797c-1.197-0.936-2.135-2.238-2.809-3.907c-0.68-1.663-1.018-3.905-1.018-6.718v-38.436
			c0-4.479,1.223-8.049,3.672-10.703c2.447-2.658,6.328-3.986,11.641-3.986h31.248l3.906,21.094h-25.625
			c-1.871,0-2.811,0.836-2.811,2.5v20.625c0,1.147,0.285,1.93,0.861,2.345c0.568,0.416,1.428,0.624,2.576,0.624h14.217
			c3.646,0,6.432,0.859,8.361,2.578c1.926,1.72,2.889,4.715,2.889,8.984v37.344c0,6.25-1.275,10.679-3.828,13.282
			c-2.555,2.604-7.057,3.904-13.514,3.904H339.559z"/>
		<linearGradient id="SVGID_5_" gradientUnits="userSpaceOnUse" x1="423.54" y1="397.9155" x2="423.54" y2="511.0132">
			<stop  offset="0" style="stop-color:#232458"/>
			<stop  offset="0.5399" style="stop-color:#3C5BA8"/>
			<stop  offset="1" style="stop-color:#232458"/>
		</linearGradient>
		<path fill="url(#SVGID_5_)" d="M411.9,510.888c-6.563,0-11.148-1.35-13.752-4.062c-2.604-2.708-3.904-7.188-3.904-13.438v-95.781
			h23.125v90.938c0,0.836,0.129,1.459,0.389,1.875c0.258,0.418,0.857,0.625,1.797,0.625h7.971c0.934,0,1.535-0.207,1.795-0.625
			c0.26-0.416,0.391-1.039,0.391-1.875v-90.938h23.125v95.781c0,6.249-1.303,10.729-3.904,13.438
			c-2.605,2.712-7.188,4.062-13.752,4.062H411.9z"/>
		<linearGradient id="SVGID_6_" gradientUnits="userSpaceOnUse" x1="491.1953" y1="397.9155" x2="491.1953" y2="511.0132">
			<stop  offset="0" style="stop-color:#232458"/>
			<stop  offset="0.5399" style="stop-color:#3C5BA8"/>
			<stop  offset="1" style="stop-color:#232458"/>
		</linearGradient>
		<path fill="url(#SVGID_6_)" d="M506.744,397.607c4.477,0,7.834,1.25,10.076,3.752c2.238,2.497,3.359,5.834,3.359,9.999v54.22
			c0,2.184-0.234,4.192-0.705,6.014c-0.469,1.824-1.328,3.413-2.576,4.767c-1.25,1.354-2.916,2.42-4.998,3.202
			c-2.086,0.781-4.691,1.172-7.814,1.172h-19.375v30.155h-22.5v-113.28H506.744z M484.711,417.452v44.53h11.25
			c0.936,0,1.537-0.181,1.795-0.547c0.26-0.363,0.391-0.961,0.391-1.797v-40c0-1.458-0.678-2.187-2.027-2.187H484.711z"/>
		<linearGradient id="SVGID_7_" gradientUnits="userSpaceOnUse" x1="553.0684" y1="397.9155" x2="553.0684" y2="511.0132">
			<stop  offset="0" style="stop-color:#232458"/>
			<stop  offset="0.5399" style="stop-color:#3C5BA8"/>
			<stop  offset="1" style="stop-color:#232458"/>
		</linearGradient>
		<path fill="url(#SVGID_7_)" d="M529.084,397.607h44.064l3.904,21.094h-24.686v26.875h18.752v19.531h-18.752v24.688h23.75
			l-3.906,21.093h-43.127V397.607z"/>
		<linearGradient id="SVGID_8_" gradientUnits="userSpaceOnUse" x1="614.8633" y1="397.9155" x2="614.8633" y2="511.0132">
			<stop  offset="0" style="stop-color:#232458"/>
			<stop  offset="0.5399" style="stop-color:#3C5BA8"/>
			<stop  offset="1" style="stop-color:#232458"/>
		</linearGradient>
		<path fill="url(#SVGID_8_)" d="M643.145,464.795c0,2.501-0.855,4.793-2.576,6.875c-1.719,2.084-4.246,3.125-7.58,3.125
			l11.875,36.093h-23.436l-10.938-36.093h-2.969v36.093h-22.658v-113.28h42.969c5.313,0,9.193,1.328,11.643,3.986
			c2.447,2.654,3.67,6.225,3.67,10.703V464.795z M607.521,417.452v39.062h11.094c1.455,0,2.188-0.781,2.188-2.344v-34.376
			c0-1.562-0.732-2.342-2.188-2.342H607.521z"/>
		<linearGradient id="SVGID_9_" gradientUnits="userSpaceOnUse" x1="690.5557" y1="397.9155" x2="690.5557" y2="511.0132">
			<stop  offset="0" style="stop-color:#232458"/>
			<stop  offset="0.5399" style="stop-color:#3C5BA8"/>
			<stop  offset="1" style="stop-color:#232458"/>
		</linearGradient>
		<path fill="url(#SVGID_9_)" d="M670.713,510.888l-4.061-21.093h24.373c1.77,0,2.658-0.782,2.658-2.342v-20.627
			c0-1.562-0.314-2.5-0.939-2.813s-1.719-0.469-3.283-0.469h-11.717c-1.67,0-3.258-0.128-4.768-0.391
			c-1.51-0.26-2.863-0.861-4.063-1.797c-1.197-0.936-2.135-2.238-2.811-3.907c-0.678-1.663-1.016-3.905-1.016-6.718v-38.436
			c0-4.479,1.223-8.049,3.67-10.703c2.449-2.658,6.33-3.986,11.641-3.986h31.25l3.906,21.094H689.93c-1.873,0-2.811,0.836-2.811,2.5
			v20.625c0,1.147,0.283,1.93,0.859,2.345c0.568,0.416,1.43,0.624,2.578,0.624h14.217c3.646,0,6.432,0.859,8.361,2.578
			c1.926,1.72,2.889,4.715,2.889,8.984v37.344c0,6.25-1.275,10.679-3.828,13.282c-2.555,2.604-7.057,3.904-13.514,3.904H670.713z"/>
		<linearGradient id="SVGID_10_" gradientUnits="userSpaceOnUse" x1="754.7734" y1="397.9155" x2="754.7734" y2="511.0132">
			<stop  offset="0" style="stop-color:#232458"/>
			<stop  offset="0.5399" style="stop-color:#3C5BA8"/>
			<stop  offset="1" style="stop-color:#232458"/>
		</linearGradient>
		<path fill="url(#SVGID_10_)" d="M784.148,494.795c0,2.188-0.264,4.246-0.783,6.172c-0.523,1.93-1.408,3.621-2.654,5.078
			c-1.25,1.46-2.918,2.633-5.004,3.516c-2.082,0.887-4.688,1.327-7.811,1.327h-26.248c-3.127,0-5.732-0.44-7.814-1.327
			c-2.084-0.883-3.75-2.056-5-3.516c-1.25-1.457-2.135-3.148-2.654-5.078c-0.523-1.926-0.781-3.983-0.781-6.172v-82.498
			c0-4.479,1.221-8.049,3.67-10.703c2.449-2.658,6.328-3.986,11.641-3.986h28.127c5.311,0,9.188,1.328,11.641,3.986
			c2.445,2.654,3.672,6.225,3.672,10.703V494.795z M750.24,417.452c-1.355,0-2.029,0.729-2.029,2.187v69.063
			c0,0.834,0.127,1.434,0.391,1.797c0.256,0.366,0.857,0.547,1.795,0.547h8.596c0.936,0,1.535-0.181,1.795-0.547
			c0.258-0.363,0.391-0.963,0.391-1.797v-69.063c0-1.458-0.68-2.187-2.029-2.187H750.24z"/>
		<linearGradient id="SVGID_11_" gradientUnits="userSpaceOnUse" x1="816.5674" y1="397.9155" x2="816.5674" y2="511.0132">
			<stop  offset="0" style="stop-color:#232458"/>
			<stop  offset="0.5399" style="stop-color:#3C5BA8"/>
			<stop  offset="1" style="stop-color:#232458"/>
		</linearGradient>
		<path fill="url(#SVGID_11_)" d="M793.521,397.607h23.281v92.188h22.811l-3.904,21.093h-42.188V397.607z"/>
		<linearGradient id="SVGID_12_" gradientUnits="userSpaceOnUse" x1="875.5527" y1="397.9155" x2="875.5527" y2="511.0132">
			<stop  offset="0" style="stop-color:#232458"/>
			<stop  offset="0.5399" style="stop-color:#3C5BA8"/>
			<stop  offset="1" style="stop-color:#232458"/>
		</linearGradient>
		<path fill="url(#SVGID_12_)" d="M904.459,493.389c0,6.249-1.305,10.729-3.906,13.438c-2.605,2.712-7.189,4.062-13.752,4.062
			h-40.154v-113.28h44.375c4.479,0,7.836,1.25,10.078,3.752c2.238,2.497,3.359,5.834,3.359,9.999V493.389z M869.146,417.452v73.593
			h10.625c0.938,0,1.535-0.181,1.795-0.547c0.26-0.363,0.391-0.963,0.391-1.797v-69.063c0-1.458-0.678-2.187-2.027-2.187H869.146z"
			/>
		<linearGradient id="SVGID_13_" gradientUnits="userSpaceOnUse" x1="925.1602" y1="397.9155" x2="925.1602" y2="511.0132">
			<stop  offset="0" style="stop-color:#232458"/>
			<stop  offset="0.5399" style="stop-color:#3C5BA8"/>
			<stop  offset="1" style="stop-color:#232458"/>
		</linearGradient>
		<path fill="url(#SVGID_13_)" d="M913.832,397.607h22.656v113.28h-22.656V397.607z"/>
		<linearGradient id="SVGID_14_" gradientUnits="userSpaceOnUse" x1="969.8438" y1="397.9155" x2="969.8438" y2="511.0132">
			<stop  offset="0" style="stop-color:#232458"/>
			<stop  offset="0.5399" style="stop-color:#3C5BA8"/>
			<stop  offset="1" style="stop-color:#232458"/>
		</linearGradient>
		<path fill="url(#SVGID_14_)" d="M945.859,397.607h44.064l3.904,21.094h-24.686v26.875h18.752v19.531h-18.752v24.688h23.752
			l-3.91,21.093h-43.125V397.607z"/>
		<linearGradient id="SVGID_15_" gradientUnits="userSpaceOnUse" x1="1031.6426" y1="397.9155" x2="1031.6426" y2="511.0132">
			<stop  offset="0" style="stop-color:#232458"/>
			<stop  offset="0.5399" style="stop-color:#3C5BA8"/>
			<stop  offset="1" style="stop-color:#232458"/>
		</linearGradient>
		<path fill="url(#SVGID_15_)" d="M1059.924,464.795c0,2.501-0.859,4.793-2.58,6.875c-1.717,2.084-4.244,3.125-7.576,3.125
			l11.875,36.093h-23.438l-10.938-36.093h-2.969v36.093h-22.656v-113.28h42.969c5.313,0,9.193,1.328,11.643,3.986
			c2.443,2.654,3.67,6.225,3.67,10.703V464.795z M1024.299,417.452v39.062h11.096c1.457,0,2.186-0.781,2.186-2.344v-34.376
			c0-1.562-0.729-2.342-2.186-2.342H1024.299z"/>
	</g>
	<g>
		<linearGradient id="SVGID_16_" gradientUnits="userSpaceOnUse" x1="164.9453" y1="393.7261" x2="164.9453" y2="516.3735">
			<stop  offset="0" style="stop-color:#939597"/>
			<stop  offset="0.0551" style="stop-color:#A1A2A3"/>
			<stop  offset="0.2026" style="stop-color:#C5C4C5"/>
			<stop  offset="0.3362" style="stop-color:#E2E0E0"/>
			<stop  offset="0.45" style="stop-color:#F5F4F4"/>
			<stop  offset="0.5305" style="stop-color:#FFFFFF"/>
			<stop  offset="0.6013" style="stop-color:#F3F2F2"/>
			<stop  offset="0.7119" style="stop-color:#DCDBDB"/>
			<stop  offset="0.8485" style="stop-color:#BBBABB"/>
			<stop  offset="1" style="stop-color:#939597"/>
		</linearGradient>
		<path fill="url(#SVGID_16_)" d="M178.344,512.708h-26.766v-92.187H135.84l6.961-24.732h44.654l6.596,24.732h-15.707V512.708z
			 M155.219,509.068h19.486v-92.187h14.607l-4.654-17.455h-39.1l-4.914,17.455h14.574V509.068z"/>
		<linearGradient id="SVGID_17_" gradientUnits="userSpaceOnUse" x1="227.2275" y1="393.7261" x2="227.2275" y2="516.3735">
			<stop  offset="0" style="stop-color:#939597"/>
			<stop  offset="0.0551" style="stop-color:#A1A2A3"/>
			<stop  offset="0.2026" style="stop-color:#C5C4C5"/>
			<stop  offset="0.3362" style="stop-color:#E2E0E0"/>
			<stop  offset="0.45" style="stop-color:#F5F4F4"/>
			<stop  offset="0.5305" style="stop-color:#FFFFFF"/>
			<stop  offset="0.6013" style="stop-color:#F3F2F2"/>
			<stop  offset="0.7119" style="stop-color:#DCDBDB"/>
			<stop  offset="0.8485" style="stop-color:#BBBABB"/>
			<stop  offset="1" style="stop-color:#939597"/>
		</linearGradient>
		<path fill="url(#SVGID_17_)" d="M258.344,512.708h-26.766v-45.312h-8.701v45.312h-26.766V395.789h26.766v48.436h8.701v-48.436
			h26.766V512.708z M235.217,509.068h19.488V399.427h-19.488v48.437h-15.979v-48.437H199.75v109.642h19.488v-45.311h15.979V509.068z
			"/>
		<linearGradient id="SVGID_18_" gradientUnits="userSpaceOnUse" x1="290.0684" y1="393.7261" x2="290.0684" y2="516.3735">
			<stop  offset="0" style="stop-color:#939597"/>
			<stop  offset="0.0551" style="stop-color:#A1A2A3"/>
			<stop  offset="0.2026" style="stop-color:#C5C4C5"/>
			<stop  offset="0.3362" style="stop-color:#E2E0E0"/>
			<stop  offset="0.45" style="stop-color:#F5F4F4"/>
			<stop  offset="0.5305" style="stop-color:#FFFFFF"/>
			<stop  offset="0.6013" style="stop-color:#F3F2F2"/>
			<stop  offset="0.7119" style="stop-color:#DCDBDB"/>
			<stop  offset="0.8485" style="stop-color:#BBBABB"/>
			<stop  offset="1" style="stop-color:#939597"/>
		</linearGradient>
		<path fill="url(#SVGID_18_)" d="M310.537,512.708H264.08V395.789h47.396l4.58,24.732H291v23.235h18.748v23.171H291v21.047h24.117
			L310.537,512.708z M267.717,509.068h39.793l3.234-17.455h-23.383v-28.324h18.748v-15.893h-18.748v-30.515h24.32l-3.234-17.455
			h-40.73V509.068z"/>
		<linearGradient id="SVGID_19_" gradientUnits="userSpaceOnUse" x1="359.4004" y1="393.7261" x2="359.4004" y2="516.3735">
			<stop  offset="0" style="stop-color:#939597"/>
			<stop  offset="0.0551" style="stop-color:#A1A2A3"/>
			<stop  offset="0.2026" style="stop-color:#C5C4C5"/>
			<stop  offset="0.3362" style="stop-color:#E2E0E0"/>
			<stop  offset="0.45" style="stop-color:#F5F4F4"/>
			<stop  offset="0.5305" style="stop-color:#FFFFFF"/>
			<stop  offset="0.6013" style="stop-color:#F3F2F2"/>
			<stop  offset="0.7119" style="stop-color:#DCDBDB"/>
			<stop  offset="0.8485" style="stop-color:#BBBABB"/>
			<stop  offset="1" style="stop-color:#939597"/>
		</linearGradient>
		<path fill="url(#SVGID_19_)" d="M367.527,512.708h-29.471l-4.762-24.733h26.576c0.586,0,0.775-0.121,0.787-0.131
			c0,0,0.051-0.106,0.051-0.391v-20.627c0-0.699-0.074-1.078-0.129-1.256c-0.293-0.086-0.947-0.206-2.273-0.206H346.59
			c-1.77,0-3.479-0.141-5.078-0.415c-1.797-0.311-3.438-1.037-4.871-2.158c-1.449-1.133-2.584-2.701-3.375-4.656
			c-0.775-1.896-1.152-4.319-1.152-7.402v-38.436c0-4.934,1.396-8.948,4.156-11.938c2.791-3.034,7.158-4.57,12.977-4.57h32.764
			l4.58,24.732h-27.814c-0.99,0-0.99,0.157-0.99,0.68v20.625c0,0.578,0.102,0.847,0.141,0.902c0.039,0.021,0.402,0.247,1.477,0.247
			h14.217c4.086,0,7.307,1.021,9.572,3.038c2.322,2.073,3.496,5.553,3.496,10.344v37.344c0,6.811-1.42,11.57-4.346,14.556
			C379.404,511.252,374.557,512.708,367.527,512.708z M341.061,509.068h26.467c5.922,0,10.029-1.13,12.217-3.359
			c2.193-2.238,3.307-6.277,3.307-12.008v-37.344c0-3.711-0.77-6.276-2.281-7.627c-1.576-1.404-3.982-2.117-7.15-2.117h-14.217
			c-1.561,0-2.758-0.318-3.654-0.977c-1.059-0.762-1.604-2.049-1.604-3.811v-20.625c0-2.664,1.777-4.319,4.631-4.319h23.439
			l-3.232-17.455h-29.736c-4.76,0-8.225,1.144-10.303,3.399c-2.145,2.328-3.191,5.426-3.191,9.471v38.436
			c0,2.567,0.299,4.596,0.883,6.032c0.555,1.363,1.307,2.423,2.25,3.159c0.965,0.758,2.027,1.229,3.246,1.439
			c1.396,0.239,2.896,0.362,4.459,0.362h11.717c1.895,0,3.195,0.21,4.098,0.661c1.943,0.971,1.943,3.582,1.943,4.439v20.627
			c0,2.565-1.717,4.16-4.477,4.16h-22.17L341.061,509.068z"/>
		<linearGradient id="SVGID_20_" gradientUnits="userSpaceOnUse" x1="423.54" y1="393.7261" x2="423.54" y2="516.3735">
			<stop  offset="0" style="stop-color:#939597"/>
			<stop  offset="0.0551" style="stop-color:#A1A2A3"/>
			<stop  offset="0.2026" style="stop-color:#C5C4C5"/>
			<stop  offset="0.3362" style="stop-color:#E2E0E0"/>
			<stop  offset="0.45" style="stop-color:#F5F4F4"/>
			<stop  offset="0.5305" style="stop-color:#FFFFFF"/>
			<stop  offset="0.6013" style="stop-color:#F3F2F2"/>
			<stop  offset="0.7119" style="stop-color:#DCDBDB"/>
			<stop  offset="0.8485" style="stop-color:#BBBABB"/>
			<stop  offset="1" style="stop-color:#939597"/>
		</linearGradient>
		<path fill="url(#SVGID_20_)" d="M435.18,512.708H411.9c-7.146,0-12.074-1.511-15.064-4.62c-2.926-3.046-4.412-7.99-4.412-14.699
			v-97.6h26.766v92.756c0,0.309,0.023,0.522,0.049,0.666c0.082,0.008,0.186,0.015,0.316,0.015h7.971
			c0.131,0,0.238-0.007,0.316-0.015c0.029-0.141,0.049-0.357,0.049-0.666v-92.756h26.766v97.6c0,6.703-1.484,11.65-4.414,14.699
			C447.256,511.197,442.33,512.708,435.18,512.708z M396.063,399.427v93.962c0,5.737,1.145,9.833,3.398,12.176
			c2.234,2.326,6.42,3.504,12.439,3.504h23.279c6.02,0,10.205-1.178,12.441-3.504c2.256-2.345,3.396-6.441,3.396-12.176v-93.962
			h-19.488v89.118c0,1.193-0.215,2.12-0.666,2.84c-0.609,0.98-1.732,1.48-3.338,1.48h-7.971c-1.605,0-2.729-0.5-3.344-1.486
			c-0.443-0.711-0.662-1.638-0.662-2.834v-89.118H396.063z"/>
		<linearGradient id="SVGID_21_" gradientUnits="userSpaceOnUse" x1="491.1953" y1="393.7261" x2="491.1953" y2="516.3735">
			<stop  offset="0" style="stop-color:#939597"/>
			<stop  offset="0.0551" style="stop-color:#A1A2A3"/>
			<stop  offset="0.2026" style="stop-color:#C5C4C5"/>
			<stop  offset="0.3362" style="stop-color:#E2E0E0"/>
			<stop  offset="0.45" style="stop-color:#F5F4F4"/>
			<stop  offset="0.5305" style="stop-color:#FFFFFF"/>
			<stop  offset="0.6013" style="stop-color:#F3F2F2"/>
			<stop  offset="0.7119" style="stop-color:#DCDBDB"/>
			<stop  offset="0.8485" style="stop-color:#BBBABB"/>
			<stop  offset="1" style="stop-color:#939597"/>
		</linearGradient>
		<path fill="url(#SVGID_21_)" d="M486.531,512.708h-26.139V395.789h46.352c4.994,0,8.842,1.465,11.43,4.354
			c2.539,2.833,3.824,6.606,3.824,11.216v54.22c0,2.33-0.254,4.507-0.76,6.467c-0.541,2.109-1.553,3.975-2.998,5.547
			c-1.441,1.559-3.359,2.793-5.701,3.672c-2.281,0.855-5.123,1.289-8.453,1.289h-17.555V512.708z M464.031,509.068h18.861v-30.154
			h21.193c2.891,0,5.305-0.355,7.178-1.058c1.803-0.677,3.252-1.597,4.299-2.733c1.053-1.139,1.756-2.442,2.15-3.984
			c0.43-1.664,0.646-3.535,0.646-5.561v-54.22c0-3.739-0.943-6.613-2.893-8.788c-1.896-2.115-4.75-3.144-8.723-3.144h-42.713
			V509.068z M495.961,463.803h-13.068v-48.17h13.227c2.373,0,3.848,1.535,3.848,4.006v40c0,1.234-0.238,2.166-0.729,2.854
			C498.311,463.803,496.545,463.803,495.961,463.803z M486.531,460.164h9.43c0.141,0,0.254-0.006,0.342-0.013
			c0.016-0.121,0.025-0.288,0.025-0.513v-40c0-0.179-0.014-0.296-0.031-0.363c-0.029,0-0.094-0.004-0.178-0.004h-9.588V460.164z"/>
		<linearGradient id="SVGID_22_" gradientUnits="userSpaceOnUse" x1="553.2539" y1="393.7261" x2="553.2539" y2="516.3735">
			<stop  offset="0" style="stop-color:#939597"/>
			<stop  offset="0.0551" style="stop-color:#A1A2A3"/>
			<stop  offset="0.2026" style="stop-color:#C5C4C5"/>
			<stop  offset="0.3362" style="stop-color:#E2E0E0"/>
			<stop  offset="0.45" style="stop-color:#F5F4F4"/>
			<stop  offset="0.5305" style="stop-color:#FFFFFF"/>
			<stop  offset="0.6013" style="stop-color:#F3F2F2"/>
			<stop  offset="0.7119" style="stop-color:#DCDBDB"/>
			<stop  offset="0.8485" style="stop-color:#BBBABB"/>
			<stop  offset="1" style="stop-color:#939597"/>
		</linearGradient>
		<path fill="url(#SVGID_22_)" d="M573.723,512.708h-46.457V395.789h47.396l4.58,24.732h-25.057v23.235h18.752v23.171h-18.752
			v21.047h24.123L573.723,512.708z M530.902,509.068h39.793l3.236-17.455h-23.385v-28.324h18.752v-15.893h-18.752v-30.515h24.32
			l-3.234-17.455h-40.73V509.068z"/>
		<linearGradient id="SVGID_23_" gradientUnits="userSpaceOnUse" x1="615.2119" y1="393.7261" x2="615.2119" y2="516.3735">
			<stop  offset="0" style="stop-color:#939597"/>
			<stop  offset="0.0551" style="stop-color:#A1A2A3"/>
			<stop  offset="0.2026" style="stop-color:#C5C4C5"/>
			<stop  offset="0.3362" style="stop-color:#E2E0E0"/>
			<stop  offset="0.45" style="stop-color:#F5F4F4"/>
			<stop  offset="0.5305" style="stop-color:#FFFFFF"/>
			<stop  offset="0.6013" style="stop-color:#F3F2F2"/>
			<stop  offset="0.7119" style="stop-color:#DCDBDB"/>
			<stop  offset="0.8485" style="stop-color:#BBBABB"/>
			<stop  offset="1" style="stop-color:#939597"/>
		</linearGradient>
		<path fill="url(#SVGID_23_)" d="M647.381,512.708H620.08l-10.74-35.44v35.44h-26.297V395.789h44.789
			c5.818,0,10.186,1.536,12.98,4.57c2.754,2.989,4.152,7.004,4.152,11.938v52.498c0,2.925-1.008,5.629-2.992,8.033
			c-1.613,1.957-3.803,3.16-6.531,3.6L647.381,512.708z M622.779,509.068h19.572l-11.875-36.092h2.512
			c2.791,0,4.809-0.808,6.176-2.463c1.455-1.764,2.16-3.632,2.16-5.719v-52.498c0-4.045-1.041-7.143-3.188-9.471
			c-2.078-2.256-5.547-3.399-10.305-3.399h-41.148v109.642h19.018v-36.092h6.141L622.779,509.068z M618.615,458.334h-12.914v-42.701
			h12.914c2.473,0,4.008,1.596,4.008,4.161v34.376C622.623,456.738,621.088,458.334,618.615,458.334z M609.34,454.694h9.275
			c0.191,0,0.291-0.022,0.334-0.037c-0.008-0.024,0.035-0.175,0.035-0.487v-34.376c0-0.298-0.039-0.45-0.064-0.508
			c-0.014,0.005-0.123-0.015-0.305-0.015h-9.275V454.694z"/>
		<linearGradient id="SVGID_24_" gradientUnits="userSpaceOnUse" x1="690.5547" y1="393.7261" x2="690.5547" y2="516.3735">
			<stop  offset="0" style="stop-color:#939597"/>
			<stop  offset="0.0551" style="stop-color:#A1A2A3"/>
			<stop  offset="0.2026" style="stop-color:#C5C4C5"/>
			<stop  offset="0.3362" style="stop-color:#E2E0E0"/>
			<stop  offset="0.45" style="stop-color:#F5F4F4"/>
			<stop  offset="0.5305" style="stop-color:#FFFFFF"/>
			<stop  offset="0.6013" style="stop-color:#F3F2F2"/>
			<stop  offset="0.7119" style="stop-color:#DCDBDB"/>
			<stop  offset="0.8485" style="stop-color:#BBBABB"/>
			<stop  offset="1" style="stop-color:#939597"/>
		</linearGradient>
		<path fill="url(#SVGID_24_)" d="M698.682,512.708h-29.471l-4.762-24.733h26.576c0.586,0,0.773-0.121,0.787-0.131
			c0,0,0.051-0.106,0.051-0.391v-20.627c0-0.699-0.074-1.078-0.129-1.256c-0.293-0.086-0.947-0.206-2.273-0.206h-11.717
			c-1.77,0-3.479-0.141-5.078-0.415c-1.797-0.311-3.438-1.037-4.871-2.158c-1.449-1.133-2.584-2.701-3.375-4.656
			c-0.775-1.896-1.152-4.319-1.152-7.402v-38.436c0-4.934,1.396-8.948,4.154-11.938c2.793-3.034,7.16-4.57,12.977-4.57h32.764
			l4.582,24.732H689.93c-0.99,0-0.99,0.157-0.99,0.68v20.625c0,0.578,0.102,0.847,0.141,0.902c0.039,0.021,0.402,0.247,1.477,0.247
			h14.217c4.086,0,7.305,1.021,9.572,3.038c2.32,2.073,3.496,5.553,3.496,10.344v37.344c0,6.811-1.42,11.57-4.346,14.556
			C710.557,511.252,705.711,512.708,698.682,512.708z M672.215,509.068h26.467c5.922,0,10.029-1.13,12.217-3.359
			c2.193-2.238,3.305-6.277,3.305-12.008v-37.344c0-3.711-0.768-6.276-2.279-7.627c-1.576-1.404-3.982-2.117-7.15-2.117h-14.217
			c-1.561,0-2.76-0.318-3.654-0.977c-1.061-0.762-1.604-2.049-1.604-3.811v-20.625c0-2.664,1.777-4.319,4.631-4.319h23.439
			l-3.234-17.455h-29.736c-4.758,0-8.223,1.144-10.301,3.399c-2.146,2.328-3.191,5.426-3.191,9.471v38.436
			c0,2.567,0.299,4.596,0.881,6.032c0.557,1.363,1.309,2.423,2.25,3.159c0.967,0.758,2.029,1.229,3.248,1.439
			c1.396,0.239,2.896,0.362,4.459,0.362h11.717c1.895,0,3.193,0.21,4.098,0.661c1.943,0.971,1.943,3.582,1.943,4.439v20.627
			c0,2.565-1.717,4.16-4.477,4.16h-22.17L672.215,509.068z"/>
		<linearGradient id="SVGID_25_" gradientUnits="userSpaceOnUse" x1="754.7725" y1="393.7261" x2="754.7725" y2="516.3735">
			<stop  offset="0" style="stop-color:#939597"/>
			<stop  offset="0.0551" style="stop-color:#A1A2A3"/>
			<stop  offset="0.2026" style="stop-color:#C5C4C5"/>
			<stop  offset="0.3362" style="stop-color:#E2E0E0"/>
			<stop  offset="0.45" style="stop-color:#F5F4F4"/>
			<stop  offset="0.5305" style="stop-color:#FFFFFF"/>
			<stop  offset="0.6013" style="stop-color:#F3F2F2"/>
			<stop  offset="0.7119" style="stop-color:#DCDBDB"/>
			<stop  offset="0.8485" style="stop-color:#BBBABB"/>
			<stop  offset="1" style="stop-color:#939597"/>
		</linearGradient>
		<path fill="url(#SVGID_25_)" d="M767.896,512.708h-26.248c-3.363,0-6.23-0.495-8.525-1.474c-2.332-0.99-4.238-2.337-5.672-4.005
			c-1.422-1.657-2.441-3.606-3.027-5.79c-0.563-2.064-0.846-4.3-0.846-6.645v-82.498c0-4.934,1.396-8.948,4.154-11.938
			c2.793-3.034,7.16-4.57,12.977-4.57h28.127c5.813,0,10.18,1.536,12.977,4.569c2.758,2.993,4.154,7.009,4.154,11.938v82.498
			c0,2.33-0.285,4.565-0.842,6.645c-0.594,2.186-1.613,4.131-3.031,5.789c-1.428,1.669-3.34,3.018-5.676,4.008
			C774.127,512.213,771.26,512.708,767.896,512.708z M740.709,399.427c-4.758,0-8.223,1.144-10.301,3.399
			c-2.146,2.328-3.191,5.426-3.191,9.471v82.498c0,2.021,0.242,3.938,0.717,5.695c0.449,1.658,1.217,3.127,2.283,4.371
			c1.063,1.238,2.514,2.257,4.326,3.024c1.85,0.785,4.236,1.183,7.105,1.183h26.248c2.869,0,5.256-0.397,7.1-1.181
			c1.816-0.77,3.273-1.788,4.332-3.026c1.066-1.244,1.834-2.715,2.283-4.371c0.475-1.77,0.717-3.685,0.717-5.695v-82.498
			c0-4.043-1.041-7.14-3.188-9.473c-2.082-2.254-5.547-3.397-10.305-3.397H740.709z M758.992,492.865h-8.596
			c-0.582,0-2.359,0-3.283-1.326c-0.48-0.659-0.721-1.596-0.721-2.838v-69.063c0-2.471,1.473-4.006,3.848-4.006h8.908
			c2.375,0,3.848,1.535,3.848,4.006v69.063c0,1.231-0.238,2.166-0.729,2.854C761.342,492.865,759.574,492.865,758.992,492.865z
			 M750.059,489.213c0.088,0.008,0.199,0.013,0.338,0.013h8.596c0.139,0,0.252-0.005,0.34-0.015c0.016-0.118,0.027-0.287,0.027-0.51
			v-69.063c0-0.179-0.016-0.296-0.033-0.363c-0.029,0-0.092-0.004-0.178-0.004h-8.908c-0.09,0-0.154,0.006-0.195,0.011
			c0.002,0.05-0.016,0.167-0.016,0.356v69.063C750.029,488.924,750.045,489.091,750.059,489.213z"/>
		<linearGradient id="SVGID_26_" gradientUnits="userSpaceOnUse" x1="816.7529" y1="393.7261" x2="816.7529" y2="516.3735">
			<stop  offset="0" style="stop-color:#939597"/>
			<stop  offset="0.0551" style="stop-color:#A1A2A3"/>
			<stop  offset="0.2026" style="stop-color:#C5C4C5"/>
			<stop  offset="0.3362" style="stop-color:#E2E0E0"/>
			<stop  offset="0.45" style="stop-color:#F5F4F4"/>
			<stop  offset="0.5305" style="stop-color:#FFFFFF"/>
			<stop  offset="0.6013" style="stop-color:#F3F2F2"/>
			<stop  offset="0.7119" style="stop-color:#DCDBDB"/>
			<stop  offset="0.8485" style="stop-color:#BBBABB"/>
			<stop  offset="1" style="stop-color:#939597"/>
		</linearGradient>
		<path fill="url(#SVGID_26_)" d="M837.223,512.708h-45.52V395.789h26.92v92.186h23.18L837.223,512.708z M795.34,509.068h38.854
			l3.234-17.455h-22.443v-92.187H795.34V509.068z"/>
		<linearGradient id="SVGID_27_" gradientUnits="userSpaceOnUse" x1="875.5518" y1="393.7261" x2="875.5518" y2="516.3735">
			<stop  offset="0" style="stop-color:#939597"/>
			<stop  offset="0.0551" style="stop-color:#A1A2A3"/>
			<stop  offset="0.2026" style="stop-color:#C5C4C5"/>
			<stop  offset="0.3362" style="stop-color:#E2E0E0"/>
			<stop  offset="0.45" style="stop-color:#F5F4F4"/>
			<stop  offset="0.5305" style="stop-color:#FFFFFF"/>
			<stop  offset="0.6013" style="stop-color:#F3F2F2"/>
			<stop  offset="0.7119" style="stop-color:#DCDBDB"/>
			<stop  offset="0.8485" style="stop-color:#BBBABB"/>
			<stop  offset="1" style="stop-color:#939597"/>
		</linearGradient>
		<path fill="url(#SVGID_27_)" d="M886.801,512.708h-41.975V395.789h46.195c4.998,0,8.842,1.465,11.432,4.354
			c2.537,2.833,3.824,6.606,3.824,11.216v82.03c0,6.703-1.484,11.65-4.414,14.699C898.875,511.197,893.951,512.708,886.801,512.708z
			 M848.465,509.068h38.336c6.02,0,10.205-1.178,12.441-3.504c2.256-2.345,3.396-6.441,3.396-12.176v-82.03
			c0-3.739-0.945-6.613-2.893-8.788c-1.896-2.115-4.752-3.144-8.725-3.144h-42.557V509.068z M879.771,492.865h-12.445v-77.232
			h12.604c2.373,0,3.846,1.535,3.846,4.006v69.063c0,1.231-0.236,2.166-0.727,2.854
			C882.121,492.865,880.354,492.865,879.771,492.865z M870.967,489.226h8.805c0.139,0,0.254-0.005,0.342-0.015
			c0.014-0.118,0.025-0.287,0.025-0.51v-69.063c0-0.179-0.016-0.296-0.033-0.363c-0.031,0-0.092-0.004-0.176-0.004h-8.963V489.226z"
			/>
		<linearGradient id="SVGID_28_" gradientUnits="userSpaceOnUse" x1="925.1602" y1="393.7261" x2="925.1602" y2="516.3735">
			<stop  offset="0" style="stop-color:#939597"/>
			<stop  offset="0.0551" style="stop-color:#A1A2A3"/>
			<stop  offset="0.2026" style="stop-color:#C5C4C5"/>
			<stop  offset="0.3362" style="stop-color:#E2E0E0"/>
			<stop  offset="0.45" style="stop-color:#F5F4F4"/>
			<stop  offset="0.5305" style="stop-color:#FFFFFF"/>
			<stop  offset="0.6013" style="stop-color:#F3F2F2"/>
			<stop  offset="0.7119" style="stop-color:#DCDBDB"/>
			<stop  offset="0.8485" style="stop-color:#BBBABB"/>
			<stop  offset="1" style="stop-color:#939597"/>
		</linearGradient>
		<path fill="url(#SVGID_28_)" d="M938.309,512.708h-26.297V395.789h26.297V512.708z M915.652,509.068h19.018V399.427h-19.018
			V509.068z"/>
		<linearGradient id="SVGID_29_" gradientUnits="userSpaceOnUse" x1="970.0293" y1="393.7261" x2="970.0293" y2="516.3735">
			<stop  offset="0" style="stop-color:#939597"/>
			<stop  offset="0.0551" style="stop-color:#A1A2A3"/>
			<stop  offset="0.2026" style="stop-color:#C5C4C5"/>
			<stop  offset="0.3362" style="stop-color:#E2E0E0"/>
			<stop  offset="0.45" style="stop-color:#F5F4F4"/>
			<stop  offset="0.5305" style="stop-color:#FFFFFF"/>
			<stop  offset="0.6013" style="stop-color:#F3F2F2"/>
			<stop  offset="0.7119" style="stop-color:#DCDBDB"/>
			<stop  offset="0.8485" style="stop-color:#BBBABB"/>
			<stop  offset="1" style="stop-color:#939597"/>
		</linearGradient>
		<path fill="url(#SVGID_29_)" d="M990.5,512.708h-46.459V395.789h47.396l4.58,24.732h-25.055v23.235h18.75v23.171h-18.75v21.047
			h24.119L990.5,512.708z M947.68,509.068h39.793l3.236-17.455h-23.387v-28.324h18.754v-15.893h-18.754v-30.515h24.32l-3.232-17.455
			h-40.73V509.068z"/>
		<linearGradient id="SVGID_30_" gradientUnits="userSpaceOnUse" x1="1031.9922" y1="393.7261" x2="1031.9922" y2="516.3735">
			<stop  offset="0" style="stop-color:#939597"/>
			<stop  offset="0.0551" style="stop-color:#A1A2A3"/>
			<stop  offset="0.2026" style="stop-color:#C5C4C5"/>
			<stop  offset="0.3362" style="stop-color:#E2E0E0"/>
			<stop  offset="0.45" style="stop-color:#F5F4F4"/>
			<stop  offset="0.5305" style="stop-color:#FFFFFF"/>
			<stop  offset="0.6013" style="stop-color:#F3F2F2"/>
			<stop  offset="0.7119" style="stop-color:#DCDBDB"/>
			<stop  offset="0.8485" style="stop-color:#BBBABB"/>
			<stop  offset="1" style="stop-color:#939597"/>
		</linearGradient>
		<path fill="url(#SVGID_30_)" d="M1064.16,512.708h-27.307l-10.734-35.427v35.427h-26.295V395.789h44.787
			c5.816,0,10.184,1.536,12.98,4.57c2.754,2.992,4.15,7.008,4.15,11.938v52.498c0,2.924-1.004,5.626-2.996,8.033
			c-1.607,1.957-3.797,3.16-6.527,3.6L1064.16,512.708z M1039.555,509.068h19.576l-11.875-36.092h2.512
			c2.789,0,4.809-0.808,6.172-2.463c1.457-1.766,2.164-3.637,2.164-5.719v-52.498c0-4.043-1.039-7.14-3.186-9.473
			c-2.08-2.254-5.549-3.397-10.307-3.397h-41.15v109.642h19.02v-36.092h6.137L1039.555,509.068z M1035.395,458.334h-12.914v-42.701
			h12.914c2.469,0,4.004,1.596,4.004,4.161v34.376C1039.398,456.738,1037.863,458.334,1035.395,458.334z M1026.119,454.694h9.275
			c0.188,0,0.287-0.022,0.33-0.034c-0.008-0.027,0.035-0.18,0.035-0.49v-34.376c0-0.298-0.039-0.45-0.061-0.508
			c-0.031-0.002-0.127-0.015-0.305-0.015h-9.275V454.694z"/>
	</g>
</g>
</svg>
